<svg xmlns="http://www.w3.org/2000/svg" viewBox="0 0 182.16 182.16"><defs><style>.cls-1{fill:#866c4f;}</style></defs><title>contact</title><g id="Graphic"><path class="cls-1" d="M26.24,155.92a89.83,89.83,0,0,1,0-126.9l29-29,2.61,2.61-29,29A86,86,0,0,0,150.53,153.3l29-29,2.62,2.61-29,29A89.85,89.85,0,0,1,26.24,155.92Z"/><path class="cls-1" d="M38.32,143.83a72.73,72.73,0,0,1,0-102.73l29-29L70,14.7l-29,29a68.94,68.94,0,0,0,97.5,97.5l29-29,2.61,2.61-29,29A72.73,72.73,0,0,1,38.32,143.83Z"/><path class="cls-1" d="M50.41,131.74a55.6,55.6,0,0,1,0-78.55l29-29L82,26.78l-29,29a51.85,51.85,0,0,0,73.33,73.33l29-29,2.62,2.61-29,29A55.62,55.62,0,0,1,50.41,131.74Z"/></g></svg>