<svg xmlns="http://www.w3.org/2000/svg" viewBox="0 0 32.61 96.88"><defs><style>.cls-1{fill:#866c4f;}</style></defs><title>contact</title><g id="Graphic"><path class="cls-1" d="M1.38,95.28c0-2.2.06-3.09.09-3.81,0-.87.06-1.5,0-4,0-3.42,0-4.81.06-6.75,0-.89,0-1.89.05-3.25,0-2.12,0-3.37-.09-4.95,0-.58,0-1.22-.05-2,0-1.69,0-2.82.07-3.78,0-1.64.06-2.83,0-5.56s-.06-3.86-.1-4.88-.07-1.86,0-3.61c0-2.12.07-3.24.14-4.43s.13-2.43.14-4.76c-.05-2.68-.05-3.33-.07-5.38l0-2.06,0-3c0-2.44.05-2.89.06-5.2,0-2.95-.07-4.19-.17-5.5-.08-1.13-.16-2.3-.17-4.7,0-1.7,0-2.55,0-3.34,0-1.09,0-2,0-4.92a33,33,0,0,1,.21-3.89A23.51,23.51,0,0,0,1.7,1.93c0-.26-.31-.46-.67-.46S.37,1.69.38,2A24,24,0,0,1,.22,5.48a31,31,0,0,0-.22,4c0,2.89,0,3.84,0,4.93,0,.79,0,1.64,0,3.34,0,2.41.09,3.59.17,4.74.1,1.3.19,2.53.17,5.45,0,2.31,0,2.75-.06,5.19l0,3,0,2.07c0,2.05,0,2.7.07,5.38,0,2.3-.07,3.53-.14,4.71S.13,50.61.12,52.75c0,1.76,0,2.59,0,3.63s.09,2.28.1,4.86,0,3.91,0,5.54c0,1-.05,2.09-.07,3.81,0,.75,0,1.38,0,2,.05,1.58.09,2.82.09,4.93,0,1.35,0,2.35,0,3.24,0,1.94-.06,3.34-.06,6.76,0,2.47,0,3.06,0,4,0,.72-.06,1.61-.09,3.82,0,.26.29.47.65.47h0C1.08,95.74,1.38,95.54,1.38,95.28ZM8,94.63c0-2,0-2.7,0-3.46s-.07-1.77,0-4.52c0-1.38-.06-2.29-.1-3.16,0-1.14-.11-2.32-.12-4.59,0-1.47,0-2.42,0-3.19,0-1.62,0-2.43,0-5.54,0-2.68,0-4.07.07-5.29s.07-2.32,0-4.39c0-.63,0-1.13.05-1.59,0-1.51.09-2.6.07-6.49a28.85,28.85,0,0,0-.29-4.65,17.44,17.44,0,0,1-.21-3.29,32.5,32.5,0,0,1,.27-4.62A31.55,31.55,0,0,0,8,35.46a19.68,19.68,0,0,0-.26-4.06,23.89,23.89,0,0,1-.29-4.54,28.87,28.87,0,0,1,.23-4.41,27.49,27.49,0,0,0,.21-4.28,45.19,45.19,0,0,0-.23-4.79,43.21,43.21,0,0,1-.2-4.48,33.05,33.05,0,0,1,.13-3.42A39.85,39.85,0,0,0,7.73.7c0-.25-.3-.46-.66-.46h0c-.36,0-.65.22-.65.47a38.66,38.66,0,0,1-.14,4.71A34.44,34.44,0,0,0,6.14,8.9a40.91,40.91,0,0,0,.21,4.54c.1,1.13.21,2.3.22,4.74a26.27,26.27,0,0,1-.21,4.19,30,30,0,0,0-.23,4.49,24.89,24.89,0,0,0,.3,4.65,19.36,19.36,0,0,1,.25,3.95,29.78,29.78,0,0,1-.26,4.32,33.42,33.42,0,0,0-.27,4.68,19.12,19.12,0,0,0,.21,3.39,27.59,27.59,0,0,1,.29,4.55c0,3.89,0,5-.07,6.48,0,.46,0,1,0,1.61,0,2.06,0,3.13,0,4.37s-.08,2.62-.07,5.31c0,3.11,0,3.92,0,5.53,0,.77,0,1.72,0,3.2,0,2.29.07,3.47.12,4.62,0,.87.08,1.77.1,3.13,0,2.76,0,3.71,0,4.54s0,1.47,0,3.43c0,.26.29.47.65.47h0C7.68,95.09,8,94.89,8,94.63Zm5.55.06c0-1.54.06-2.3.09-3,0-.9.07-1.61,0-3.84,0-3,0-4.24,0-5.84,0-1.1-.06-2.35-.07-4.41,0-1.36.08-2.4.18-3.51.1-1.31.23-2.8.23-5.13,0-2-.05-2.94-.1-3.89s-.12-2-.09-4.27c0-1.46,0-2.53.1-3.66.08-1.34.16-2.72.11-4.89s0-2.9,0-4.49c0-1,0-2.3,0-4.37,0-3.13,0-3.25,0-6.48l0-1.35c0-2,0-3.26-.07-4.33s-.06-2.16,0-3.9c0-1.31,0-2.3,0-3.2,0-1.8,0-3.23,0-6.1,0-2.13.05-3.06.12-4s.14-2,.14-4.24c0-2.55-.09-3.7-.15-4.71S13.85,3.44,13.85,2c0-.26-.29-.46-.66-.46h0c-.36,0-.66.2-.66.46,0,1.51,0,2.27.1,3.16s.12,2.14.14,4.67c0,2.24-.07,3.24-.14,4.2s-.13,1.92-.12,4.09c0,2.86,0,4.29,0,6.09,0,.9,0,1.89,0,3.2,0,1.75,0,2.8,0,3.92s.07,2.28.07,4.32l0,1.35c0,3.22,0,3.35,0,6.46,0,2.07,0,3.37,0,4.37,0,1.6,0,2.45,0,4.51s0,3.52-.11,4.84c-.06,1.15-.13,2.23-.1,3.7,0,2.26,0,3.26.09,4.31s.11,1.9.1,3.85c0,2.3-.13,3.78-.23,5.08-.09,1.12-.18,2.17-.18,3.56,0,2.07,0,3.32.07,4.42,0,1.6.07,2.87,0,5.83,0,2.22,0,2.92,0,3.81,0,.68-.07,1.44-.09,3,0,.26.29.47.66.47h0C13.24,95.15,13.53,94.94,13.53,94.69Zm6,2.19c.37,0,.66-.21.66-.47,0-2.4,0-3.75-.05-4.83,0-1.5,0-2.58,0-5.37,0-1.34-.11-2.35-.19-3.33-.1-1.18-.19-2.3-.19-3.92,0-2.53,0-3.76.07-4.85s.07-2.18.05-4.42c0-1.51,0-2.6.06-3.66,0-1.38.06-2.69.06-4.74,0-1.79.07-3,.12-4.09.07-1.33.12-2.47.08-4.27,0-2,0-3,0-4.34,0-1.19,0-2.65.05-5.25a29.54,29.54,0,0,0-.19-3.89,25.48,25.48,0,0,1-.21-3.36c0-3,0-4,.08-5.26,0-1,.06-2,.09-4.24S20,23.49,20,22.44s-.13-1.91-.14-3.77.15-3.35.27-4.66.22-2.38.25-4c0-2.26-.09-3.5-.12-4.49s-.07-1.87-.08-3.37c0-.26-.29-.47-.66-.47h0c-.36,0-.66.21-.66.47,0,1.52,0,2.3.08,3.4S19,7.77,19,10c0,1.59-.14,2.73-.25,3.95s-.25,2.7-.27,4.72.08,2.86.14,3.81.14,2,.14,4.11-.06,3.27-.09,4.23c0,1.23-.06,2.29-.08,5.28a26.79,26.79,0,0,0,.21,3.43,28.12,28.12,0,0,1,.19,3.8c0,2.61,0,4.07-.05,5.25,0,1.37,0,2.37,0,4.36,0,1.78,0,2.91-.08,4.23,0,1.09-.11,2.32-.12,4.12,0,2.05,0,3.35-.06,4.73,0,1.06,0,2.15-.06,3.67,0,2.23,0,3.24-.05,4.4s-.07,2.33-.07,4.87c0,1.65.1,2.83.19,4,.08,1,.17,2,.19,3.28,0,2.79,0,3.88,0,5.38,0,1.08,0,2.43.05,4.83,0,.25.3.46.66.46Zm6.72-.78A28.17,28.17,0,0,0,26,91a19.69,19.69,0,0,1-.22-3.54c0-1.61,0-2.78.05-3.78,0-1.58,0-2.72,0-4.52a41.51,41.51,0,0,1,.2-5c.11-1.25.23-2.54.24-5.09,0-1-.08-1.88-.12-2.7-.07-1.34-.14-2.72-.16-5,0-2.68-.06-4-.12-5s-.09-1.78-.05-3.34a35.59,35.59,0,0,1,.25-4.62,31.09,31.09,0,0,0,.21-3.54,48.13,48.13,0,0,0-.27-6,30.29,30.29,0,0,1-.19-3.23,26.7,26.7,0,0,1,.21-4.2,21.8,21.8,0,0,0,.18-3.68c0-3.12-.08-4.21-.14-5.17S26.05,21,26.05,19c0-2.8.09-4,.17-5.09a32,32,0,0,0,.1-3.77c0-4.61,0-5.42,0-9.69,0-.25-.3-.46-.66-.46h0c-.37,0-.66.21-.66.47,0,4.26,0,5.07,0,9.69a30.9,30.9,0,0,1-.1,3.71c-.08,1.09-.18,2.32-.17,5.14,0,2,0,2.74.09,3.56s.13,2,.14,5.14a20.69,20.69,0,0,1-.18,3.59,28,28,0,0,0-.21,4.29,28.5,28.5,0,0,0,.2,3.29A49.68,49.68,0,0,1,25,44.81a27.88,27.88,0,0,1-.21,3.47A38.62,38.62,0,0,0,24.57,53c0,1.57,0,2.37.05,3.38s.12,2.33.12,5c0,2.31.1,3.7.16,5,.05.86.09,1.66.12,2.68,0,2.51-.13,3.79-.24,5a42.65,42.65,0,0,0-.2,5.11c0,1.79,0,2.93,0,4.51,0,1,0,2.17-.05,3.79a20.37,20.37,0,0,0,.23,3.63,27.47,27.47,0,0,1,.25,5c0,.26.29.47.66.47h0C26,96.56,26.29,96.35,26.29,96.1Zm6,.15c0-2.18,0-3.32.06-4.42s0-2.25,0-4.44c0-3.06,0-4.77.1-6.74,0-.51,0-1,0-1.61,0-1.82,0-2.92,0-3.82,0-1.68,0-2.6,0-6.13a29.12,29.12,0,0,0-.21-3.27,34.79,34.79,0,0,1-.22-4.8v-.79c0-3.28,0-3.28,0-6.12V52.17c0-2.09.07-3.3.15-4.58.07-1,.15-2,.18-3.55,0-1.95-.07-2.81-.13-3.64s-.13-1.8-.12-4.09.12-3.25.19-4.27c.09-1.27.17-2.46.19-5.59,0-2.49,0-3.5,0-4.68,0-1,.07-2.08.07-4.24a23.25,23.25,0,0,0-.24-3.35,35.23,35.23,0,0,1-.32-5V8.12c0-2,0-2.82,0-7.3,0-.25-.29-.46-.65-.46s-.67.2-.67.46c0,4.48,0,5.25,0,7.31V9.19a35.75,35.75,0,0,0,.33,5.07,23.07,23.07,0,0,1,.23,3.27c0,2.15,0,3.25-.07,4.22,0,1.18-.07,2.2,0,4.7,0,3.1-.1,4.29-.19,5.54-.07,1-.15,2.1-.19,4.31s.05,3.21.12,4.15.12,1.67.13,3.58c0,1.5-.1,2.52-.17,3.51-.09,1.3-.18,2.52-.16,4.63v1.94c0,2.84,0,2.84,0,6.13V61A33.81,33.81,0,0,0,31,65.88a31.09,31.09,0,0,1,.2,3.21c0,3.53,0,4.45,0,6.13,0,.89,0,2,0,3.81,0,.57,0,1.1,0,1.6-.06,2-.1,3.69-.1,6.76,0,2.19,0,3.28,0,4.43S31,94.06,31,96.25c0,.26.3.46.66.47h0C32,96.72,32.28,96.51,32.28,96.25Z"/></g></svg>