<svg id="Layer_1" data-name="Layer 1" xmlns="http://www.w3.org/2000/svg" viewBox="0 0 192.53 25.1"><defs><style>.cls-1{fill:#b3b3b3;}</style></defs><title>email_head_logo</title><path class="cls-1" d="M21.27,14.47a10.26,10.26,0,0,1-.85,4.19A10.41,10.41,0,0,1,18.1,22a11,11,0,0,1-3.38,2.25,10.06,10.06,0,0,1-4.08.83,10.38,10.38,0,0,1-4.19-.83A10.53,10.53,0,0,1,0,14.47V.64H2.13V8.08H7.87v2.13H2.13v4.26a8,8,0,0,0,.68,3.29,8.56,8.56,0,0,0,4.53,4.53,8.21,8.21,0,0,0,6.59,0,8.47,8.47,0,0,0,4.53-4.53,8,8,0,0,0,.69-3.29Z"/><path class="cls-1" d="M34.46,3.83a10.24,10.24,0,0,1,4.09.83,11.22,11.22,0,0,1,3.38,2.25,10.48,10.48,0,0,1,2.32,3.39,10.27,10.27,0,0,1,.85,4.17,10.26,10.26,0,0,1-.85,4.19A10.57,10.57,0,0,1,41.93,22a11.22,11.22,0,0,1-3.38,2.25,10.07,10.07,0,0,1-4.09.83,10.41,10.41,0,0,1-4.19-.83,10.42,10.42,0,0,1-5.61-5.61,10.41,10.41,0,0,1-.83-4.19,10.75,10.75,0,0,1,3.08-7.56,10.61,10.61,0,0,1,7.55-3.08m0,19.15a8.19,8.19,0,0,0,3.3-.68,8.82,8.82,0,0,0,2.7-1.83,8.64,8.64,0,0,0,1.83-2.71,8.32,8.32,0,0,0,0-6.59,8.65,8.65,0,0,0-4.53-4.53,8.32,8.32,0,0,0-6.59,0,8.64,8.64,0,0,0-2.71,1.83,8.82,8.82,0,0,0-1.83,2.7,8.32,8.32,0,0,0,0,6.59,8.59,8.59,0,0,0,4.54,4.54,8.14,8.14,0,0,0,3.29.68"/><path class="cls-1" d="M58.29,25.1a10.41,10.41,0,0,1-4.19-.83A10.55,10.55,0,0,1,50.74,22a10.74,10.74,0,0,1-2.26-3.36,10.59,10.59,0,0,1-.83-4.19V3.83h2.13V14.47a8.14,8.14,0,0,0,.68,3.29,8.48,8.48,0,0,0,1.83,2.7A8.71,8.71,0,0,0,55,22.29a8.24,8.24,0,0,0,6.6,0,8.71,8.71,0,0,0,2.7-1.83,8.82,8.82,0,0,0,1.83-2.7,8.14,8.14,0,0,0,.68-3.29V3.83h2.13V14.47a10.42,10.42,0,0,1-.85,4.19A10.57,10.57,0,0,1,65.76,22a11.15,11.15,0,0,1-3.39,2.25,10,10,0,0,1-4.08.83"/><path class="cls-1" d="M92.75,14.47a10.26,10.26,0,0,1-.85,4.19A10.57,10.57,0,0,1,89.58,22a11,11,0,0,1-3.38,2.25,10.06,10.06,0,0,1-4.08.83A10.65,10.65,0,0,1,74.56,22a10.61,10.61,0,0,1-3.08-7.55V.64h2.13V8.08h5.74v2.13H73.61v4.26a8,8,0,0,0,.68,3.29,8.56,8.56,0,0,0,4.53,4.53,8.21,8.21,0,0,0,6.59,0,8.47,8.47,0,0,0,4.53-4.53,8,8,0,0,0,.69-3.29Z"/><path class="cls-1" d="M105.94,23a8.28,8.28,0,0,0,2.85-.49,9.3,9.3,0,0,0,2.41-1.34,9,9,0,0,0,1.87-2,9.16,9.16,0,0,0,1.17-2.54h2.13A10.45,10.45,0,0,1,115,20a12.17,12.17,0,0,1-2.34,2.7,10.47,10.47,0,0,1-6.73,2.42,10.41,10.41,0,0,1-4.19-.83,10.42,10.42,0,0,1-5.61-5.61,10.41,10.41,0,0,1-.83-4.19,10.75,10.75,0,0,1,3.08-7.56,10.61,10.61,0,0,1,7.55-3.08,10.47,10.47,0,0,1,6.73,2.42A12,12,0,0,1,115,9a10.31,10.31,0,0,1,1.36,3.38h-2.13a9,9,0,0,0-1.17-2.53,8.74,8.74,0,0,0-4.28-3.36,8.43,8.43,0,0,0-6.15.19,8.71,8.71,0,0,0-2.7,1.83,8.82,8.82,0,0,0-1.83,2.7,8.32,8.32,0,0,0,0,6.59,9,9,0,0,0,1.83,2.71,9.07,9.07,0,0,0,2.7,1.83,8.23,8.23,0,0,0,3.3.68"/><rect class="cls-1" x="118.92" width="2.13" height="25.1"/><path class="cls-1" d="M134.24,3.83a10.23,10.23,0,0,1,4.08.83,11.1,11.1,0,0,1,3.38,2.25A10.48,10.48,0,0,1,144,10.3a10.27,10.27,0,0,1,.85,4.17,10.26,10.26,0,0,1-.85,4.19A10.57,10.57,0,0,1,141.7,22a11.1,11.1,0,0,1-3.38,2.25,10.06,10.06,0,0,1-4.08.83A10.65,10.65,0,0,1,126.68,22a10.61,10.61,0,0,1-3.08-7.55,10.59,10.59,0,0,1,.83-4.17,10.54,10.54,0,0,1,9.81-6.47m0,19.15a8.14,8.14,0,0,0,3.29-.68,9,9,0,0,0,2.71-1.83,8.78,8.78,0,0,0,1.82-2.71,8.21,8.21,0,0,0,0-6.59,8.56,8.56,0,0,0-4.53-4.53,8.32,8.32,0,0,0-6.59,0,8.65,8.65,0,0,0-4.53,4.53,8.32,8.32,0,0,0,0,6.59,8.64,8.64,0,0,0,1.83,2.71,8.82,8.82,0,0,0,2.7,1.83,8.16,8.16,0,0,0,3.3.68"/><path class="cls-1" d="M158.06,25.1a10.41,10.41,0,0,1-4.19-.83,10.42,10.42,0,0,1-5.61-5.61,10.42,10.42,0,0,1-.84-4.19V3.83h2.13V14.47a8.14,8.14,0,0,0,.68,3.29,8.82,8.82,0,0,0,1.83,2.7,8.71,8.71,0,0,0,2.7,1.83,8.24,8.24,0,0,0,6.6,0,8.59,8.59,0,0,0,2.7-1.83,8.48,8.48,0,0,0,1.83-2.7,8.14,8.14,0,0,0,.68-3.29V3.83h2.13V14.47a10.26,10.26,0,0,1-.85,4.19A10.57,10.57,0,0,1,165.53,22a11.22,11.22,0,0,1-3.38,2.25,10.07,10.07,0,0,1-4.09.83"/><path class="cls-1" d="M192.53,14.47a10.26,10.26,0,0,1-.86,4.19A10.55,10.55,0,0,1,189.36,22,11.15,11.15,0,0,1,186,24.27a10,10,0,0,1-4.08.83,10.38,10.38,0,0,1-4.19-.83A10.55,10.55,0,0,1,174.34,22a10.74,10.74,0,0,1-2.26-3.36,10.59,10.59,0,0,1-.83-4.19V.64h2.13V8.08h5.74v2.13h-5.74v4.26a8.14,8.14,0,0,0,.68,3.29,8.64,8.64,0,0,0,1.83,2.71,8.86,8.86,0,0,0,2.7,1.82,8.24,8.24,0,0,0,6.6,0,8.86,8.86,0,0,0,2.7-1.82,9,9,0,0,0,1.83-2.71,8.14,8.14,0,0,0,.68-3.29Z"/></svg>