<svg id="Layer_1" data-name="Layer 1" xmlns="http://www.w3.org/2000/svg" viewBox="0 0 46.14 17.66"><defs><style>.cls-1{fill:#9d9fa1;}</style></defs><title>email_footer_smallIcon</title><path class="cls-1" d="M46.14,10.87a4.2,4.2,0,0,0-3.35,1.2L39.87,15a2.22,2.22,0,0,1-3.12,0l-2.92-2.93a4.22,4.22,0,0,0-6,0L24.94,15a2.23,2.23,0,0,1-3.12,0L18.9,12.07a4.22,4.22,0,0,0-6,0L10,15a2.22,2.22,0,0,1-3.12,0L4,12.07A4.21,4.21,0,0,0,0,11V13.1a2.11,2.11,0,0,1,1-.25,2.16,2.16,0,0,1,1.55.65l2.93,2.92a4.21,4.21,0,0,0,6,0l2.93-2.92a2.19,2.19,0,0,1,1.56-.65,2.16,2.16,0,0,1,1.55.65l2.93,2.92a4.2,4.2,0,0,0,6,0l2.93-2.92a2.2,2.2,0,0,1,3.11,0l2.93,2.92a4.21,4.21,0,0,0,6,0l2.93-2.92a2.21,2.21,0,0,1,1.92-.61Z"/><path class="cls-1" d="M46.14,0a4.23,4.23,0,0,0-3.35,1.2L39.87,4.16a2.22,2.22,0,0,1-3.12,0L33.83,1.23a4.24,4.24,0,0,0-6,0L24.94,4.16a2.21,2.21,0,0,1-3.12,0L18.9,1.23a4.24,4.24,0,0,0-6,0L10,4.16a2.22,2.22,0,0,1-3.12,0L4,1.23A4.23,4.23,0,0,0,0,.12V2.26A2.22,2.22,0,0,1,1,2a2.2,2.2,0,0,1,1.55.64L5.47,5.59a4.22,4.22,0,0,0,6,0l2.93-2.93A2.22,2.22,0,0,1,15.92,2a2.2,2.2,0,0,1,1.55.64L20.4,5.59a4.22,4.22,0,0,0,6,0l2.93-2.93a2.2,2.2,0,0,1,3.11,0l2.93,2.93a4.22,4.22,0,0,0,6,0l2.93-2.93a2.21,2.21,0,0,1,1.92-.61Z"/></svg>