<svg id="Layer_1" data-name="Layer 1" xmlns="http://www.w3.org/2000/svg" viewBox="0 0 75.73 60.17"><defs><style>.cls-1{fill:#9b9d9f;}.cls-2{fill:#d6d7d7;}.cls-3{fill:#545655;}.cls-4{fill:none;stroke:#d6d7d7;stroke-miterlimit:10;stroke-width:1.81px;}</style></defs><title>email_section_icon1</title><path class="cls-1" d="M1.85,44.42c1.21,0,1.8.07,2.32.11.7,0,1.26.07,3,.1,2.32.08,3.32.09,4.57.1l3.45.05c1.07,0,1.88.1,2.74.17,1,.09,2.19.19,4,.24,1.54.05,2.3,0,3,0s1.59,0,3.35,0c1.14,0,2,.08,2.86.14s2.12.14,3.82.16l3.51.11,3.42.1c2.44.07,2.54.07,5.07.12l1.05,0c1.6,0,2.55.05,3.39.05s1.69,0,3,0l2.5.06c1.42,0,2.53.07,4.77.11,1.67,0,2.4.09,3.16.15s1.54.11,3.31.16c2,.05,2.9,0,3.69,0s1.28,0,2.44,0a.37.37,0,0,0,.38-.35h0a.37.37,0,0,0-.36-.37c-1.18,0-1.78,0-2.47,0s-1.67,0-3.66,0c-1.75,0-2.53-.11-3.28-.17s-1.5-.11-3.19-.15L57,45.34l-2.5-.06c-1.37,0-2.19-.05-3.06-.06s-1.79,0-3.38,0l-1.06,0c-2.52,0-2.62,0-5.06-.12l-3.41-.1L35,44.82c-1.68,0-2.75-.09-3.78-.16s-1.74-.12-2.89-.13c-1.77-.07-2.55-.06-3.38,0s-1.48,0-3,0c-1.8-.06-2.95-.15-4-.24-.87-.07-1.69-.14-2.78-.17-1.62,0-2.6-.05-3.46-.05-1.25,0-2.24,0-4.56-.11-1.73,0-2.28-.06-3-.1-.53,0-1.12-.07-2.34-.11A.36.36,0,0,0,1.5,44h0a.37.37,0,0,0,.35.38M.35,54.7l3.46.12,3.47.12c2.4.06,3.73.12,5.28.19l1.25.06,3,.09c1.32,0,2,.06,4.8.11,1.05,0,1.79,0,2.57,0a36.82,36.82,0,0,1,3.75,0h.61l4.8.11,1.51,0c1.63,0,2.58.1,3.58.18.78.06,1.59.12,2.78.17,1.52,0,2.19,0,2.84,0s1.41,0,3.21,0,2.53.13,3.33.19c1,.08,1.92.15,4.37.22,2,0,2.74.07,3.66.12.76,0,1.63.08,3.32.12a24.3,24.3,0,0,0,2.62-.06c.84-.05,1.8-.11,3.91-.07h.83c1.61,0,2.21,0,5.71.15a.35.35,0,0,0,.37-.35.36.36,0,0,0-.35-.37c-3.51-.11-4.11-.12-5.71-.15l-.84,0a39.38,39.38,0,0,0-4,.08,23.31,23.31,0,0,1-2.55.06c-1.69,0-2.55-.09-3.3-.13-.93,0-1.73-.08-3.68-.11-2.43-.08-3.35-.15-4.33-.22-.81-.06-1.64-.13-3.37-.2s-2.51,0-3.24,0-1.31,0-2.81,0c-1.17,0-2-.11-2.74-.17-1-.07-2-.15-3.62-.18l-1.52,0-4.79-.11h-.61c-1.79-.07-2.81,0-3.81,0-.76,0-1.49.07-2.51.05-2.76-.05-3.48-.08-4.79-.12l-3-.09-1.25-.05c-1.55-.07-2.89-.14-5.29-.2-1.71,0-2.56-.08-3.46-.11S2.08,54,.37,54a.36.36,0,0,0-.37.35H0a.35.35,0,0,0,.35.37m0,3.16a.37.37,0,0,0,.35.38c1.77,0,2.69,0,3.57,0s1.75-.07,3.42,0,2.42.12,3.17.19,1.51.14,3.36.2c2,.06,2.78.07,3.59.07s1.59,0,3.64.06,2.77.06,3.61,0c.66,0,1.28,0,2.41,0l4.13.12L35,59c1.87,0,2.45.06,3.12.09s1.12.06,2.44.09c2.07.06,3.21,0,4.43,0,1,0,2,0,3.48,0,.71,0,1.16.07,1.67.13a44.17,44.17,0,0,0,4.86.29c2.2.09,2.46.09,3.72.11l2.65.05c1.39,0,2.21,0,3,0s1.79-.06,3.52,0,2.57.12,3.52.22c.79.08,1.61.16,2.9.2a.37.37,0,0,0,.38-.35h0a.36.36,0,0,0-.35-.37c-1.27-.05-2.08-.13-2.86-.21S69.6,59.05,67.9,59s-2.66,0-3.55,0-1.58,0-3,0L58.74,59c-1.25,0-1.51,0-3.71-.11a43,43,0,0,1-4.8-.29,17,17,0,0,0-1.74-.14c-1.53,0-2.53,0-3.49,0-1.21,0-2.36,0-4.41-.05-1.31,0-1.9-.06-2.42-.08-.68,0-1.27-.07-3.14-.09l-3.4-.11c-1,0-1.78-.07-4.14-.12-1.14,0-1.78,0-2.45,0s-1.67,0-3.57,0c-2.06-.05-2.88-.06-3.66-.06s-1.56,0-3.57-.06c-1.82-.07-2.58-.14-3.32-.2s-1.46-.14-3.21-.19-2.59,0-3.47,0-1.78.07-3.52,0a.35.35,0,0,0-.37.35h0"/><path class="cls-2" d="M.05,47.69a.37.37,0,0,0,.35.38l3.79.07c1.17,0,2,0,4.2.11,1,0,1.83,0,2.6,0,.93,0,1.8-.06,3.07,0,2,.06,2.94.1,3.79.14s1.71.09,3.45.12l2.87.11c1.08.05,2.1.09,3.7.13,1.4,0,2.36.11,3.2.16,1,.06,1.93.11,3.34.13l3.39.11,4.11.13a28.89,28.89,0,0,0,3.05,0c.54,0,1.11-.07,2.62,0,2.32.07,3.15.11,4.11.15l3.32.13c1.65,0,2.43,0,3.25,0s1.5,0,3,0,2.61.16,3.64.25,1.86.17,3.13.22c1.76,0,2.73,0,3.51,0s1.46,0,2.64,0a.37.37,0,0,0,.37-.36h0a.36.36,0,0,0-.35-.37c-1.19,0-1.81,0-2.66,0l-3.49,0c-1.24,0-2.13-.14-3.08-.22s-2.11-.19-3.69-.25-2.24,0-3,0-1.58,0-3.22,0-2.55-.1-3.3-.14c-1,0-1.8-.08-4.13-.15-1.55,0-2.13,0-2.69,0a29.16,29.16,0,0,1-3,0l-4.1-.14-3.41-.11c-1.39,0-2.28-.07-3.31-.13-.84,0-1.81-.11-3.22-.15-1.6,0-2.62-.09-3.69-.13-.83,0-1.68-.08-2.88-.11-1.74,0-2.52-.08-3.43-.12s-1.83-.09-3.81-.14c-1.29,0-2.22,0-3.11,0s-1.55.05-2.57,0c-2.18-.07-3-.09-4.2-.11L.42,47.34a.35.35,0,0,0-.37.35h0"/><path class="cls-2" d="M.56,51.41a30.45,30.45,0,0,0,4,0,22.75,22.75,0,0,1,2.77,0l3,.11c1.23,0,2.12.08,3.53.11,2,0,2.93.13,3.94.22s2,.18,4,.24h2.12c1,0,2.12,0,3.92,0,2.09.06,3.11,0,3.93,0s1.4,0,2.61,0c1.57,0,2.61.13,3.62.23s1.69.17,2.76.19c2.61.08,3.72,0,4.7,0,.71,0,1.38-.06,2.52,0a30,30,0,0,1,3.29.2,24.55,24.55,0,0,0,2.87.18c2.45.06,3.3,0,4.05,0s1.24,0,2.76,0c2.18.06,3.13.13,4,.2s1.46.12,3,.14c3.6.11,4.24.12,7.57.21a.38.38,0,0,0,.38-.36h0a.37.37,0,0,0-.36-.37c-3.33-.08-4-.1-7.58-.21-1.46,0-2.13-.07-2.9-.13s-1.81-.15-4-.2c-1.54,0-2.15,0-2.79,0s-1.59,0-4,0a21.83,21.83,0,0,1-2.81-.17,33.23,33.23,0,0,0-3.35-.21c-1.17,0-1.86,0-2.58,0-1,0-2.06.09-4.64,0-1,0-1.85-.1-2.71-.19-1-.1-2.08-.21-3.66-.23-1.23-.06-1.86,0-2.65,0s-1.82,0-3.9,0c-1.81,0-2.9,0-3.95,0h-2.1c-2-.06-3-.15-3.92-.24s-2-.18-4-.21l-3.53-.12-3-.1a22,22,0,0,0-2.85,0,31.92,31.92,0,0,1-3.88,0A.37.37,0,0,0,.21,51h0a.37.37,0,0,0,.35.38"/><polygon class="cls-3" points="20.72 54.82 26.89 27.41 33.06 0 53.72 19.05 74.37 38.1 47.54 46.46 20.72 54.82"/><path class="cls-4" d="M54.27,31.08h0A12.13,12.13,0,1,1,65.91,18.47,12.14,12.14,0,0,1,54.27,31.08Z"/><path class="cls-1" d="M16.62,35.42a3,3,0,1,1,.94-4.16,3,3,0,0,1-.94,4.16"/></svg>