<svg xmlns="http://www.w3.org/2000/svg" xmlns:xlink="http://www.w3.org/1999/xlink" viewBox="0 0 105.71 103.94"><defs><style>.cls-1{fill:none;}.cls-2{isolation:isolate;}.cls-3{clip-path:url(#clip-path);}.cls-4{opacity:0.6;mix-blend-mode:multiply;}.cls-5{fill:#9d9fa1;}</style><clipPath id="clip-path"><rect id="SVGID" class="cls-1" x="0.39" y="-0.42" width="104.78" height="104.78"/></clipPath></defs><title>email_footer_sidegraphic</title><g class="cls-2"><g id="Layer_1" data-name="Layer 1"><g class="cls-3"><g class="cls-4"><path class="cls-5" d="M40,101.56h1.35v0l3.54.1,5.42.15.48,0,1.31,0,3.3-.08,5.87-.14.15.51h1.39c0-.28-.56-.48-1.11-.51l10.58.38h0l1.46,0,3.56-.06,5.61-.08h.21c.34,0,.73,0,1.16,0l3.19,0,5.87,0h.29l0,.51h0l0-.51,8.76-.1c2.46,0,2.46,0,2.87.12l-.94.38,0,.51-1.86,0-5.57.07c-1.69,0-2.64,0-3.21,0h-.38l-9.11.08v.75l-1.89-.72-8.84.14v0H72.17l-5.53-.2L63,102.69c-.64,0-1.16,0-1.56-.07l-1.8.06-4.07.09-4.66.11-.18-.51-.16.51-5.87-.16-3.32-.09-1.33,0h0c-.67,0-10,.34-10.55.37v0c-.78,0-2.6,0-7.59-.14l-3.4-.07H7.26l-1.49,0c-2.64,0-8.1.14-8.59.16-.77,0-1.49-.21-1.49-.52,0-.49,1.12-.51,2.2-.53l7.76-.15,2,0,.08.52h0l.07-.52,10.61,0v0c.55,0,1.55,0,3.57.06l7.22.16h0c.39,0,.89,0,1.5-.07l3.63-.13,5.59-.18"/><path class="cls-5" d="M104.36,96.71c.75,0,1.35.23,1.35.52,0,.48-1,.51-2.36.55l-2.65.07c-2.72.08-6.83.19-7.17.21l-.18-.52-.08.52-1.6,0L85.83,98l-2.52,0c-.35,0-.69,0-1,0l-1.43,0L77.4,98c-2.34,0-5.54.11-5.88.13l-.15-.51h0l0,.52h0l-10.87.1v0c-.67,0-2,0-5,0l-6,0v0c-.62,0-1.79,0-4.22-.06L38.83,98l-1.88.7V98l-9.63,0,0-.51-.07.51-10.39-.13-1.9.73v-.72l-6.53.08c-1.71,0-2.62,0-3.15,0h0l-7.07.1c-2.23,0-3.34,0-3.95,0v0l-7.32.08c-4.19.06-4.19.06-4.61-.09l1.88-.75-.94.37v-.51l3.59,0c4.57-.06,6.52-.08,7.42-.06v0l3.84,0C2.49,97,4.37,97,5.26,97v0l3.05,0,5.18-.07h1.44v0H16.3l5.72.07,3.67.05c.67,0,1.2,0,1.63,0h12.3v0l5.66.1,4.07.09v0c.82,0,2.47,0,6.09,0l4.85,0v0c.44,0,1,0,1.64,0l3.66,0,5.73,0h.19l1.67,0L77.26,97l4.91-.1.14.51h1.38c0-.29-.6-.49-1.16-.51.54,0,6.86.12,9.24.15l1.49,0,.67,0,6.58-.19,3.69-.11h.16"/><path class="cls-5" d="M-15.59,91.41v.73h.07l8.57.11c.34,0,.65,0,1,0h0L3.77,92v0H5.13c.09,0,.33,0,5.78.19l3.7.13c.65,0,1.17,0,1.57.07h11l1.64,0,3.84-.09L38,92l.14.52h0l.15-.52,2.67.08,5.38.14,2.1.06.76,0c.4,0,.9,0,1.5-.06l3.62-.08,5.84-.12h.47L66,92l5.18-.09.11.52h0l.19-.52,7,.21,2.81.09,1.12,0h0c.56,0,6.91,0,9.64-.08v0h1.35l5.63.11,3.76.08c2.23,0,3,.06,3,.55,0,.29-.65.53-1.43.51l-11-.21h0c-.41,0-.91,0-1.51,0l-3.56,0-5.85,0H81v0l-2.81-.08L73.51,93l-1.68-.06-.63,0c-.4,0-.89,0-1.49,0L66.08,93l-4.47.07v.76l-1.89-.72c-2.09,0-9.59.2-10.26.23l-.18-.51h-1.4c0,.28.57.48,1.11.51-.49,0-5.48-.16-8.16-.23l-1.95-.06-.71,0-1.57,0-3.75.08-5.5.14-.14-.52H25.83c0,.31.63.51,1.22.52-.7,0-10.31,0-10.81,0l-.09-.52-.19.51c-.46,0-10.22-.37-10.86-.38h0L3.52,93l-3.79.12-5.64.18H-7.26v0l-8.34-.11h-1.34l-5.67-.08L-26.34,93c-2.17,0-3,0-3-.55,0-.29.6-.52,1.35-.52h.19l10.31.16ZM81,92.78v0s0,0,0,0m22,.07Z"/><path class="cls-5" d="M48.58,86.86l1.81.64L56,87.26c3-.13,4.29-.19,4.92-.18v0l10.26.3.51-.18.5.19c2.15,0,9.76-.17,10.22-.19l.11.52h0l0-.52H84.4c4,0,6.34,0,7.73,0h1.35c.11,0,.28,0,5.7.21l3.66.14c2.21.09,2.87.11,2.87.58,0,.29-.6.52-1.35.52h-.17L94,88.22l-1.83.67V88.2H82.56l-1.55,0-3.65.07-5.65.09H70.37v0l-4.21-.13-3.74-.11c-.61,0-1.1,0-1.49,0h0l-4.58.2c-3.92.17-5.6.24-6.4.24s-2.82,0-7.41,0l-3,0-1.88.71v-.73l-4.6,0-3.44,0q-.91,0-1.53,0c-.59,0-1.61,0-3.54,0s-4.44,0-6,0v.7l-1.84-.68-.93,0c-4.26.11-6.69.17-8.11.19v0H6.36L.71,88.47-3,88.38c-.71,0-1.27,0-1.7-.07-1.08,0-3.41,0-8.92,0h-.48V89l-1.89-.72-5.64.14c-2.63.07-3.92.1-4.62.1s-1.56,0-3.66-.07l-5.76-.14-1.64,0,.08-.51-.93-.38c.42-.16.43-.16,2.67-.1l8.63.21.52-.19.52.19,4-.1c3.46-.09,5.16-.13,6.06-.13h0c.35,0,1,0,2.14,0,2.51,0,8.39,0,8.91,0l.07.51h.05l.16-.51,10.22.27,1.86-.69v.68l7.94-.19,1.78,0c1,0,2.92,0,7.15,0,1.61,0,3.27,0,3.48,0l.05.52h0l.12-.52,4.85,0,4.05,0h1.38l.66,0,3.41,0,6,.07ZM103,88.1Z"/><path class="cls-5" d="M95.06,82v.69l9.22-.1c.78,0,1.43.22,1.43.52,0,.5-.89.51-2.82.53l-3.41,0-5.69.06h-.1l-.28,0-3,0-6.77-.14-.54.21-.55-.21c-2.1,0-9.33.08-9.93.11l-.13-.52H71.06c0,.29.6.49,1.15.51-.6,0-7.83-.09-9.88-.1h-.58l-5.42-.09-3.65-.06c-.65,0-1.18,0-1.6,0v0l-10.56.13-.08-.52-.14.51-5.61-.07-3.42,0c-.58,0-1.06,0-1.45,0l-1.17,0-2.9.08-5.27.14v.75l-1.88-.7c-2.15,0-9.46.14-10,.16l-.15-.51-.23.51c-.2,0-2-.1-3.75-.18l-4.57-.22-1.65-.07-.51,0-1.43.08-3.65.18-5.53.25h-1.34v0l-8.57-.24c-.28,0-.56,0-.82,0h0c-.68,0-5.78.1-8.26.14l-2.4,0h-9.15c-1.71,0-2.74,0-2.74-.52,0-.31.71-.54,1.47-.52h10.52l2.17,0c5.6-.11,7.7-.15,8.61-.12v0l.83,0,5.85.16,2.8.08,1,0,10.5-.5.21.51h0l.28-.51c.37,0,4.19.2,6.72.32l2.69.13c.39,0,.74,0,1,.06l1.53,0,3.66-.06,5.39-.08.49,0,1.55,0,4.39-.12,4.06-.12.14.51h0l.13-.51,4.85.06,3.9.05c.76,0,1.35,0,1.8,0l1.53,0,3.56,0,5.52-.07h1.35v0l9.3.15h.16l5.76,0,3.33,0c.56,0,1,0,1.44,0s1,0,1.58,0l3.63,0,5.42,0H84.4v0c1.18,0,3.06,0,6.12.12l2.67,0Zm-44,.83Z"/><path class="cls-5" d="M95.35,77.26v.66l1.76,0c7.74-.1,7.74-.1,8.19.07l-.94.37h0l-.1.52c-.45,0-4.58,0-7.07.07l-1.84,0v0H94l-5.39-.21-3.52-.14c-.6,0-1.09,0-1.48-.07l-1.45.06-3.55.13-5.32.18H71.94v0l-9-.23h0l-.52,0-6.12.17-2.36.06v0H52.56l-5.38-.1-3.47-.06c-.68,0-1.23,0-1.66-.06-1,0-3.27,0-8.37,0H31.81c-.59,0-5-.09-5.52-.1l-3.37-.07c-.59,0-1.08,0-1.47,0h0l-4.14,0c-3.56,0-5.22,0-6.07,0l-1.59.06-3.51.09-5.35.13H-.57l-3.9,0-3.54,0c-.68,0-1.22,0-1.66,0v0c-.5,0-9.62-.09-10.21-.08l0-.51h-1.38c0,.29.64.5,1.25.51-.42,0-4.09,0-6.53.07-2,0-3,0-3.62,0-.23,0-.44,0-.59,0-8.18,0-9.66,0-9.82,0l-.07-.52-.19.51c-.51,0-6.07-.09-8.44-.12l-1.29,0c-.49,0-1.79,0-1.79-.52,0-.3.68-.54,1.44-.52l1.73,0,5.41.08,2.27,0c.31,0,.63,0,.94,0l1.16,0,9.1,0,0,.52h0l0-.52c.19,0,1.94,0,3.61,0,3.7,0,5.5-.07,6.43-.06h.45l5.62,0,3.2,0c.56,0,1,0,1.43,0h0l9.76.08.53-.2.52.19L11,77.53l.11.52h0l.09-.52c.35,0,3.62,0,6,0,2.66,0,3.84,0,4.44,0v0c.64,0,9.48.2,10.13.2h1.92l8.4,0,.05.51h1.39c0-.29-.59-.49-1.17-.51.62,0,9.69.19,10.18.19h0l1,0,2.55-.06,5.5-.15v0h1.35l5.39.13,3.49.09,1.37,0h0c.3,0,10-.35,10.31-.37l.14.52h0l.23-.51c.55,0,7.59.31,9.64.38Z"/><path class="cls-5" d="M-36,72.34l1.88.7,3.49-.06c3.77-.06,5.56-.09,6.48-.08.45,0,1.05,0,1.82,0l3.66,0,5.41,0v0c.69,0,2.06,0,5,.11l5.19.13,1.86-.68v.68c2.7,0,8.66-.14,9.19-.16l.12.52H9.48c0-.29-.58-.49-1.15-.51L14,73l3.42.07,1.38.05c.31,0,.67,0,1.07-.06L22.62,73l5.56-.26v-.06h1.35c.11,0,.35,0,5.66.27l3.59.18,1.49.09,1.39,0,3.43-.06L50.82,73H51l.68,0,2,0,5.21-.12,2.61-.06.1.51h0l.26-.5,6.07.21,3.12.1,1.24,0,1.5-.08,3.66-.17L83,72.61h1.34v0l8.21.14c.51,0,1,0,1.33,0v0c.32,0,3.33.09,5.74.15L103,73c1.88,0,2.74.07,2.74.56,0,.28-.6.51-1.35.51h-.2c-.38,0-2.68-.07-4.72-.12l-4-.1c-.79,0-1.4,0-1.86-.07h0l-9.86-.16-.61,0-10.58.49-.23-.51-.22.51L67.71,74l-4.22-.14c-.82,0-1.44,0-1.92-.09l-.65,0-1.9,0L51.1,74,51,73.51H49.56c0,.3.66.51,1.28.51-.66,0-9.77.15-10.44.18l-.14-.52h-1.4c0,.28.56.47,1.08.51-.69,0-9.58-.5-10.43-.53l-.68,0-9.75.47-.25-.51-.18.51-4.83-.11L9.88,74c-.73,0-1.31,0-1.76,0L6.66,74,3.21,74l-5.7.08H-3.84v0L-8.44,74l-4.31-.11-.52.19-.52-.2-8.81.07v.73l-1.88-.71-6,.1c-2.42,0-3.58.06-4.19,0-.77,0-2.24,0-5.33,0l-5.29,0v-.52h0l-.16.51L-56,73.7a2.85,2.85,0,0,1-.51,0c-.5-.08-.82-.26-.82-.47s.6-.52,1.35-.52l5.51.13,3.63.1c.72,0,1.28,0,1.71.06.79,0,2.27,0,5.23,0l4,0Zm139,1.25Z"/><path class="cls-5" d="M-6.49,67.24-4.6,68l10.23-.18.13.51h0L6,67.79l10.82.4h0l1.68,0,3.9-.07,5.21-.1H38.67l5.64.11,3.71.08,1.54,0c.3,0,.61,0,.91,0l2.25,0c1.77,0,3.94,0,5.55-.06l2.21,0h0c.53,0,1.48,0,3.36,0l5.6.09,2.11,0c.4,0,.9-.05,1.52-.07L76.81,68l4.3-.17v-.05h1.36l5.6.09,3.72.07,1.62,0c.34,0,.73,0,1.14,0h2.73l6.8,0c1.51,0,1.63.4,1.63.52,0,.31-.74.56-1.52.52-1,0-10.16,0-10.73,0l0-.52-.08.52L83,68.86l-.5.19-.5-.18-10.25.41h0c-.4,0-1.07,0-2.42,0l-8.73-.15H60l-1.63,0c-2.6,0-8,.08-8.54.1l-.13-.51h-1.4c0,.3.61.5,1.21.52-.43,0-8.13-.18-10.29-.22l-1.88.7V69H27.75l-1.61,0-3.63.07-4.41.09v0H16.75l-5.7-.2-3.71-.14c-.63,0-1.14,0-1.54-.07s-.93,0-1.55,0l-3.63.06L-5.12,69h-.29L-6.8,69l-3.76.06-4.19.06v0H-16.1L-21.77,69l-3.72-.12c-.65,0-1.17,0-1.58-.07l-1.24,0-3.16.09-6.31.2v0c-.46,0-1.08,0-1.88,0l-3.71,0-5.59,0h-.16l-2.94,0c-8.35.07-8.35.07-8.8-.1l.94-.37h0l.11-.51c.47,0,5,0,7.69-.06,1.71,0,2.62,0,3.16,0h0l10.9-.08h0l.52,0,1.51-.05,4.35-.13,4.43-.13.17.51h1.38c0-.28-.56-.48-1.11-.51.61,0,8.09.27,10.21.33l.51-.19.52.19L-6.49,68ZM103,68.49Z"/><path class="cls-5" d="M40.71,62.74l1.86.69c2-.06,9.11-.32,9.66-.35h0c.34,0,.71,0,1,0H62.9l2.36,0,7.9.16h0v.52h0l.06-.52h2.67l5,0h1.93c.24,0,.51,0,.78,0l1.54,0,3.6-.07,5.07-.09h0c.47,0,1.29,0,3,.06l7.56.19,0,.51,1,.39c-.45.16-.45.16-8.67-.06l-2.69-.07h0l-1.47,0-3.54.06-5.18.1-.11-.51H82.25c0,.29.63.49,1.2.51l-7.53,0H74c-.29,0-.64,0-1,0-1,0-3.13,0-7.92-.15l-1.76,0-1.86.69v-.71l-8.91,0h0L51,64.17l-3.44.13c-3.36.12-5.22.18-5.52.18H40.9l-2.78,0-6.32,0L31.71,64h0l-.14.51c-.68,0-9.42-.15-10.16-.15h0l0-.52h0l-.14.51L11.83,64l-1-.05h0l-6.08.08c-2.29,0-3.47,0-4.13,0l-1.28,0-2.93.08-6.11.15-.18-.51-.16.52-5.17-.12-3.53-.07-1.46,0h0l-6.39.22c-2.52.08-3.64.12-4.21.11v0l-3.23-.1-4.7-.15-1.73-.06-.65,0-1.21,0-3.06,0-5.72,0h-.4l-2.28,0L-59,64.18l-2.06,0c-1,0-2.13,0-2.13-.53,0-.29.6-.52,1.35-.52h.19c.63,0,5.54.08,7.92.1l1.67,0,.7,0h0c.55,0,9.51,0,10.19-.06l.08.51h0l.2-.51,7,.23,2.32.07c.27,0,.54,0,.78,0l3.9-.13c4.29-.15,6-.2,6.71-.19v0l5,.11,3.62.08,1.51,0,.53,0,1.46,0,4.18-.11,4.13-.1.13.51h0l0-.51,4.1-.06C8.71,63,10.32,63,11.06,63v0l9.18.34.94,0h.17l5.56.08,3.33,0,1.38,0,.6,0h1.53l4.33,0h2.62Zm62.71.8h0Z"/><path class="cls-5" d="M21.23,57.69v.7l9.18.08h0l1.1,0h9.9l5.82,0,3,0,1.3,0h0c.37,0,3.82-.12,6.33-.2l2.88-.09v0h1.35c.13,0,.29,0,5.56.25l3.56.17,1.39.08,10.42-.4v0c.77,0,2.47,0,6.78,0l4,0h0c.4,0,.91,0,1.52,0l3.49-.06,5.54-.07h1.34l0,.52c0,.29-.65.53-1.4.52s-9.86.13-10.36.15v0c-.59,0-1.72,0-4.17,0l-6.5,0h0c-.4,0-.89.05-1.52.07l-3.57.14-5.51.2H71.34v-.06l-8.75-.42-.48.18-.48-.18-3.5.11c-4.12.14-5.82.19-6.62.18v0c-.53,0-9.78-.06-10.41,0L41.05,59h0l-.06.51H30.4l-5.57,0-3.44,0c-.57,0-1.05,0-1.44,0s-1.07,0-2.26,0L9.3,59.19H.11v.66l-1.81-.63-9.88.43-.22-.51-.1.52-6.84,0h-3.64c-.33,0-3.64-.15-5.58-.25l-3.55-.16L-33,59.16l-1,0-2.77,0c-2.42,0-6.07,0-6.48.07v0c-.77,0-2.46,0-6.63,0H-54v0l-1.49,0-3.44.05-5.6.08h-1.35l0-.52c0-.29.68-.52,1.42-.51l10.43-.16v0c.62,0,1.8,0,4.19,0l6.42,0h.58l1.59,0,4.44,0,3.85,0,.09.51h1.38c0-.27-.53-.46-1-.5.65,0,7.73.38,9.78.46l1.82-.66v.68h9.19l1.51-.08,3.61-.16,5.47-.23v0c.38,0,.82,0,1.32,0H9.22c.51,0,1.42,0,3.24,0l5.38.11,1.53,0Zm81.78,1Z"/><path class="cls-5" d="M-65.66,53.32h.14l10.52.08v0c1,0,3.11,0,8.32.08l2.3,0h0l1.49,0,3.52-.07,5.58-.1h1.35l8.23,0h1.07l5.49.14,3.6.09,1.63.06h0L-2,53.76l0,.51H-.54c0-.3-.64-.5-1.22-.51l5.77,0,3.3,0c.54,0,1,0,1.4,0s.83,0,1.34,0l3.12,0,5.85,0h.36l6.73-.2c2.45-.07,3.52-.1,4.07-.09v0l7.27.24,2.33.07.77,0h9.21c.56,0,1,0,1.43,0v0l7.67-.19c1.65,0,2.51-.07,3-.06v0h0l10.56-.06,0,.51h0l.07-.51c.66,0,9.94,0,10.45,0l.07.52h1.38c0-.31-.65-.51-1.25-.52.47,0,6.55,0,10.51,0v0c.64,0,1.83,0,4.33.08l6.25.15v.51h0l.92.38c-.46.17-.46.17-7.39,0l-4.11-.1H88.45c-3,0-4.5,0-5.26,0-.33,0-.7,0-1.06,0H72.41c-.4,0-.89,0-1.48,0l-3.52,0-5.51,0L59,54.62l-5,.13c-1.54,0-2.35.06-2.83,0v0l-10.54,0,0-.52-.16.51-3.23-.1-4.85-.15-1.8-.06-.56,0-3.69.11-4.57.14c-1.36,0-2.07.07-2.5.06h0c-.58,0-9.7.06-10.39.08l-.09-.51h0l-.1.51L4,54.82l-4,0h-2l-5.78,0-3.27,0c-.63,0-1.15,0-1.56,0v0l-10.46-.27h-.26l-5.82,0H-32.4c-.53,0-1,0-1.39,0h0c-.54,0-10,.19-10.49.2h0c-.43,0-1.15,0-2.49,0l-7.44-.1H-55s-2.66,0-5.31,0l-3.66,0c-2.11,0-3,0-3-.54,0-.28.6-.52,1.34-.52m31.89.53ZM103,54.17Z"/><path class="cls-5" d="M95.08,47.91v.76l3.37.08,5.47.13c.58,0,1.79,0,1.79.53,0,.31-.73.55-1.51.52-.36,0-3.43-.09-5.91-.15l-3.22-.08-1.15,0h-.19l-5.49-.06-3.57,0c-.62,0-1.13,0-1.54,0h0c-.49,0-9.79.18-10.45.21l-.15-.51H71.14c0,.3.64.5,1.24.51-.57,0-6.53,0-9.17.08v0H61.85l-5.51,0-3.54,0c-.69,0-1.25,0-1.68,0h0c-.55,0-9.7,0-10.42,0h0c-.54,0-1.52,0-3.51-.06L30,49.53h0c-.33,0-.72,0-1.13,0l-8.19.09v.74l-1.87-.7-4.37.1c-3.57.08-5.09.12-5.82.1v0l-3.71,0-4.58,0-1.65,0-.64,0c-.4,0-.89,0-1.49,0L-7,49.92l-5.36.14-.14-.51-.13.51-7.37-.2-2.29-.07c-.33,0-.65,0-.94,0h0l-4.26,0-4.25,0-1.49,0h-.48l-.6,0-1.63,0-4.54.08-3.75.07-.12-.51h-1.38c0,.31.67.51,1.3.51h0l-5.1.11c-3.56.07-5,.1-5.67.08v0c-.45,0-9.8-.35-10.49-.37a2.63,2.63,0,0,1-.49,0c-.49-.08-.81-.27-.81-.48s.14-.26.39-.36a2.76,2.76,0,0,1,1-.15l5.49.18,3.62.13c.64,0,1.16,0,1.56.07h0l5.28-.11c2.95-.06,4.4-.09,5.16-.08.36,0,.77,0,1.21,0l2.7-.05c2.47,0,6.21-.11,6.63-.13l.17.51h1.4c0-.3-.63-.5-1.22-.51l6.21.06,3,0c.53,0,1,0,1.38,0h0l3.22.09,6.68.18.66,0c.41,0,.93,0,1.56,0l3.72-.1L-2,48.76l.13.51h0l.14-.51L5,48.83l2.66,0,1.08,0h0l5.55-.12c2.72-.07,4.13-.1,4.87-.1.36,0,.79,0,1.24,0l2.64,0,5.77-.07h1.11v0c.86,0,2.74,0,7.42.13l3.29.07h0l.82,0h9l.78,0h0l10.57.09h0c.38,0,.83,0,1.34,0l3.16,0,6.1,0h.14l1.45,0,3.6-.07,5.47-.11h1.35v0l8.73.1Zm7.93,1.5Z"/><path class="cls-5" d="M70.52,43.7h2.17l5.55.18,3.54.12c.59,0,1.08,0,1.46.07l.71,0,9.66-.26.16.51h0l.06-.52,3.47,0,6.41.08c.73,0,2,0,2,.52,0,.3-.66.54-1.44.52l-7-.09-2.47,0-.93,0-1.13,0L90,44.93l-5.81.15-.79,0-.11-.52L83,45.1c-.56,0-7.79-.28-9.84-.34l-1.85.68v-.71l-9.18,0h0l-.72,0-2.12.09-7.51.36-.24-.51-.16.51-4.16-.13-5.78-.18-.5,0c-.4,0-.91,0-1.51.05L35.84,45l-5.4.11h0c-.47,0-1.25,0-2.64,0L19.94,45l0-.51h0l-.12.51-9.92-.19L8,45.54v-.72l-9.12,0h0l-1.57,0L-6.18,45l-5.59.09h-1.35L-22.28,45l0-.51h-1.39c0,.3.63.5,1.21.51-.65,0-9.87,0-10.36,0l0-.52h-1.37c0,.3.62.5,1.2.52-.52,0-6.42,0-9.07,0v.7L-44,44.91l-9.88.27h-9.58c-1.4,0-2.51,0-2.51-.53,0-.31.73-.55,1.5-.52s9.71,0,10.33,0h0c.41,0,.94,0,1.6,0l3.59-.1,5.45-.15h9.55l.94,0h.72l5.83,0h4.29l5.76,0,3.22,0c.56,0,1,0,1.41,0h0c.62,0,9.94-.18,10.39-.2v0c.35,0,.76,0,1.19,0H2.39c2.54,0,5.63,0,6.62,0h.31l5.43.1,3.58.07c.72,0,1.29,0,1.72,0,1,0,3.11,0,7.84.07l2,0,.53-.2.53.2c2.11,0,9.28-.19,9.84-.22l.16.51h1.39c0-.29-.59-.49-1.16-.51l6.27.2,2.95.09,1.09,0,.64,0L59,43.86l2.93-.14v0c.34,0,.7,0,1.06,0h7.53m32.49.73Z"/><path class="cls-5" d="M-32.72,38.58l1.86.7,6-.2c2.38-.07,3.47-.11,4-.1v0l4.05.08,5.77.1h.54l5.48.1,3.45.07c.6,0,1.09,0,1.49,0s.9,0,1.49,0l3.4,0h5.67c.29,0,.62,0,1,0l2.78-.06L20,39.1h.74l.57,0,1.47,0,8.32-.19.13.51h0l.15-.51c.13,0,1.25,0,10.11.15h.32l5.58,0,3.29,0c.59,0,1.1,0,1.51,0h0l10.29,0,0,.51h0l.14-.51,6.05.11,3,.06c.44,0,.83,0,1.17,0l1.53-.08,3.55-.14,5.43-.21h.06l10.29,0,.06.51h0l.07-.51,7.42,0c3.5,0,3.5,0,3.9.15l-1,.36h0l0,.52h-2.9c-4.4,0-6.4,0-7.37,0q-.66,0-1.74,0H88.76l-5.24,0c-.86,0-9.64.37-10.22.41l-.22-.51h0l-.12.52-4.26-.08-5.58-.11h-.75l-5.71,0-3.12,0c-.56,0-1.06,0-1.46,0h0l-4.64,0-3.89,0c-.77,0-1.38,0-1.84,0v0h-.23L35.76,40l-3.16,0-1.29,0q-.4,0-.84,0L23,40.07l-2,0h0l-.78,0-9.6.2-.17-.52,0,.52c-.55,0-9.63,0-10.27,0L0,39.87H-1.4c0,.3.62.5,1.21.52-.51,0-7.72-.16-9.76-.19l-1.89.72v-.76l-5.05-.09-2.88,0-1.13,0h0l-3.73.12c-3.91.13-5.69.19-6.58.19-.49,0-1.15,0-2,0H-40.4c-.53,0-1,0-1.37,0s-.57,0-.82,0h-9.67l-5.35-.18L-61.2,40c-2.14-.07-2.86-.09-2.86-.57,0-.29.6-.52,1.35-.52h.18l9.79.32,1.82-.64v.67c2.61,0,8.46,0,9,0l.06.51h1.39c0-.3-.64-.5-1.24-.51.46,0,6.35,0,9,0Z"/><path class="cls-5" d="M-17.44,33.65l1.86.69,8-.21c1.48,0,2.22-.06,2.64-.05h0l10.31.37,1.82-.64v.67h9.6l1.38,0,3.33-.08,6.11-.15v0c.72,0,2.2,0,5.67,0l5.34,0,0,.51h0l0-.51h0l10.85-.08h0c.54,0,1.49,0,3.41.07l7.08.17,1.88-.72v.72l8.26-.1v0h1.36l5.71.12,3.66.08c.63,0,1.15,0,1.57.06l1.08,0,2.85-.1,6.82-.23.17.51h0l0-.51,4.89-.05c6.55-.06,6.55-.06,7,.09l-.94.37h0l0,.52h0l-5.91.06c-2.63,0-4,0-4.77,0-.25,0-.51,0-.73,0l-6.27.22-4,.13-.17-.51-.22.51c-.65,0-10.06-.24-10.72-.24h0c-.41,0-.92,0-1.53,0l-3.53,0-5.83.06H59.28v0l-6.5-.15-3.2-.08h0c-.42,0-.93,0-1.56,0l-3.62,0-5.71,0H37.34l-4.14,0-5.41,0h0l-.54,0-5.62.14-4.74.11L16.76,35l0,.52H5.8L.19,35.3l-3.76-.14-1.51-.06h0l-2.35.07-5.49.14c-1.6,0-2.5.07-3,.07h0l-.56,0-5.24.08-5.16.08-.11-.51-.15.51-7.9-.07h-2.09l-.85,0-1.54,0-3.59,0-5.7,0L-49,35l-.18.51-5.46-.13-3.72-.09c-2.14-.05-3-.07-3-.56,0-.29.61-.52,1.35-.52h.21l5.27.13,3.82.09q1.07,0,1.71.06c.45,0,1,0,1.75,0l3.95,0,5.12,0L-38,35h0l.08-.51,2.88,0,5.23,0,2,0c.26,0,.54,0,.82,0l1.5,0,3.6,0,4.45-.07Z"/><path class="cls-5" d="M-25.09,29l1.84.67,8.9-.33,1.41,0h9.82l.68,0H8.18l.07.51h0l.1-.51,10,.11.54-.2.54.2,2.44,0,6.34-.06h1.37c.43,0,4.76.13,5.63.16l3.55.11c.59,0,1.07,0,1.47.07l.88,0,2.42-.07,5.64-.17.39,0v0H51c.3,0,4.2.08,5.55.12l3.59.08,1.44.05h.2l5.71,0,3.38,0c.57,0,1,0,1.45,0s.94,0,1.58-.05l3.64-.09L83,29.35h9.35c.5,0,1,0,1.32,0h0l10.54-.09c.76,0,1.49.21,1.49.51,0,.51-.87.52-2.95.54l-3.63,0-5.44,0H89.25l-5.69,0h-.5l-10.57.25-.15-.52-.1.52-10.53-.06,0-.51-.21.51c-.64,0-10-.25-10.47-.25h0l-1.53.06-8.94.27-.17-.51H39c0,.28.56.48,1.11.51-.54,0-7.85-.26-9.92-.32l-1.87.7v-.7L22,30.4c-1.65,0-2.55,0-3.07,0h0l-5.42-.06-3.64,0c-.65,0-1.18,0-1.6,0s-.75,0-1.16,0H-2.38v-.51l-.09.51c-.46,0-6.52,0-9.24,0V31l-1.81-.63-.56,0-5.79.21-2.51.09v0h-1.42l-5.69-.08-3.45-.06-1.61,0h0l-5.19-.07-3.71-.05-1.69,0-1.28,0-9.27,0c-.78,0-1.43-.22-1.43-.52,0-.51,1.11-.51,2.39-.52l9.62,0v.52h0l.14-.52,5.3.08,3.64,0c.7,0,1.27,0,1.7.05v0l9.22.15Z"/><path class="cls-5" d="M43.56,24.11v.67l5.55-.05,3.19,0h.37l5.58.08,3.28.05,1.45,0h4.11c3.67,0,5.34,0,6.17,0v0l10.25-.36.14.51h0l.08-.51,5.14,0,3.56,0c.66,0,1.19,0,1.62,0,.64,0,1.82,0,4.18.07l5.7.13h.51l-.07.51h0l.92.37a3.63,3.63,0,0,1-1.52.13l-9.23-.2-1.87.71v-.73l-3.87,0-3.56,0c-.61,0-1.12,0-1.53,0s-.89,0-1.5.06l-3.48.13-5.43.18H67.1c-2.47,0-3.64,0-4.27,0v0c-.53,0-9.58-.16-10.18-.15l0-.52h0l0,.52h0l-3.36,0-5.62,0H42.21l-5.39-.21-3.51-.14-1.45-.06c-.4,0-.88,0-1.48.05l-3.52.11-5.36.16H20.15v0l-8.5-.18-.54.19-.52-.2-5.07.09c-2.87,0-4.17.06-4.83,0v0l-4.41-.07-5.38-.08h-.78c-1,0-4,0-6.51,0h-2.52l-.95,0-1.48.08-3.48.15-4.13.16v.05h-2.68v0l-4.09-.1-3.48-.09c-.6,0-1.11,0-1.51-.06s-.92,0-1.53,0l-3.57,0-5.22,0v-.51l.95-.37-.95.37,0-.52c.75,0,9.64-.07,10.25-.09l.1.51h1.39c0-.28-.57-.48-1.12-.51.56,0,7.56.21,9.61.25l.51-.19.51.19c2-.08,8.94-.36,9.58-.4l.23.5h1.4c0-.3-.63-.5-1.22-.52.7,0,9.49,0,10.11,0l.08.51h0l.1-.51,5.86.09,3.1,0,1.32,0v0l4.61-.07c3.43-.06,5-.08,5.74-.07v0l5.27.11,3.55.08,1.49,0h0c.43,0,9.58-.29,10.2-.32l.17.51h0l.19-.51c.31,0,7.58.31,9.69.38Zm59.87.82Z"/><path class="cls-5" d="M39.09,19.31,41,20l.74,0c5.76-.13,8.15-.18,9.24-.17.47,0,1.32,0,3,0l7.71.09,0,.52H63.1c0-.29-.59-.49-1.14-.51.62,0,7.83.15,9.91.19l1.88-.71v.72l9.22,0H85.8l6.56,0v-.7L94.2,20l4.14-.14c6.47-.23,6.47-.23,6.93-.06l-1.84.75.93-.37,0,.52c-.33,0-3.49.11-5.8.19-2.61.09-3.94.14-4.67.14-.32,0-.67,0-1,0l-7.11,0H83.09c-.31,0-.64,0-1,0H72.4l-5.52-.1L63.29,21c-.72,0-1.3,0-1.74-.07-1,0-3.08,0-7.66-.07l-2.26,0-1.88.72v-.7l-7.9.17-1.43,0-.74,0-2,0-5.16,0-2.66,0-.06-.52-.16.51-10.51-.23H9.85l-1.36,0h0l-4,.07C1.91,21,.25,21-.83,21v0h-1.4L-7.87,21l-3.48-.06-1.49,0c-.36,0-.79,0-1.27,0l-3,0c-2.4,0-5.6,0-6.28,0H-34.12l0-.51-.18.51-4.75-.16-4-.12c-2.44-.08-3.1-.11-3.1-.58,0-.29.61-.52,1.35-.52h.21l5.75.18,3.34.11c.54,0,1,0,1.38.06h2l8.52,0,.08.51h1.39c0-.3-.65-.5-1.24-.51.68,0,10.06-.06,10.51-.06l0,.52h0l.07-.52,9.24.16v-.71l1.87.71,6-.11c2.41-.05,3.55-.07,4.16-.06h0l9.31,0h1.27l5.48.11,3.62.08,1.55.05h.75l1.93,0L39.09,20Z"/><path class="cls-5" d="M26.8,14.33l1.86.69L31.34,15l5-.1c1.34,0,2.12,0,2.6,0,.25,0,.49,0,.65,0h6l4.26,0,.07.52h0l.15-.51L60.77,15h0l5.58.16,3.73.11,1.54.06.57,0L78.71,15l3.7-.14.16.51h0l.23-.51c.24,0,2.41.1,4.33.18l4.36.17,1.53.06.5,0c.38,0,.85-.05,1.43-.07l3.65-.16c5.41-.24,5.6-.24,5.73-.24h1.35v.52c0,.21-.32.4-.82.48a3,3,0,0,1-.53,0l-10.71.46-.18-.52-.26.51-6.34-.26-3.09-.12-1.2,0-1,0L79,16l-7.07.28-.21-.51-.22.51c-.62,0-9.87-.31-10.7-.33l-5.64-.09-3.64-.06-1.59,0-1.28,0H45.58l-5.2,0v.73l-1.87-.71-7,.15-3.22.05-.77,0-10.06.1-.12-.51h-1.4c0,.28.57.48,1.13.51L10.86,16l-3.21-.11-1.28,0h0c-.64,0-10.27.32-10.73.34l-.16-.52-.08.52-1.93,0-5.64-.07-2.34,0c-.33,0-.67,0-1,0L-17,16l-3.69.06-5.58.09h-1.35v0c-2.71-.07-9-.23-9.54-.23h0a2.87,2.87,0,0,1-.52-.05c-.5-.08-.83-.26-.83-.47s.61-.52,1.36-.52l5.66.14,3.66.09,1.55.05h0L-15.53,15l.1.51h0l.17-.51c.52,0,6.32.08,8.79.11l1.42,0h.53l1.5-.06,3.62-.11c5.36-.17,5.63-.17,5.73-.17H7.7v0l3.39.12,4.26.14,1.47,0,.5,0c.35,0,.73,0,1.15,0l3,0L26.8,15Z"/><path class="cls-5" d="M50.58,9.54v.72c2.06,0,6.22.1,8.33.12V9.71l1.83.66c1.22,0,4.17-.17,6.26-.26C69.8,10,71,10,71.5,10v0c.43,0,8.14.35,10.31.43l.51-.19.51.2,10.35-.3.13.51h0l.12-.51,10.93.18,0,.51h0v.52l-5.6-.09L95,11.14l-1.63,0c-.4,0-.91,0-1.55.06l-3.63.11-4.52.12v0H81v0l-4.5-.18L72.8,11c-.6,0-1.08,0-1.47-.07l-4,.17c-3.73.16-5.59.24-6.58.26l-.43,0h-.14l-6-.08-3.48,0-1.48,0h0l-5.63-.12-3.77-.09c-.69,0-1.24,0-1.67-.05s-.88,0-1.45,0l-3.45,0-5.94,0h-.21l-.61,0-1.9,0-5.1.11-2,0V12l-1.89-.72-4.74.08c-3.48.06-5,.09-5.78.08s-2.65-.08-7-.26l-3.56-.14-.48.17-.48-.18c-2.19.08-9.78.39-10.29.43L-16.9,11h-1.39c0,.28.55.47,1.05.5-.61,0-9.83-.48-10.74-.51a3.08,3.08,0,0,1-.53,0c-.49-.08-.81-.27-.81-.48s.15-.26.4-.36A2.73,2.73,0,0,1-28,10c.25,0,2.21.08,5.82.26l3.7.18,1.52.08,1.51-.07,3.73-.16c2-.08,5.49-.22,5.77-.22h1.34v.05l3,.12,6.21.26.51-.19.52.2,5.08-.09c3,0,4.44-.08,5.23-.07l1.06,0,2.33,0c2.72-.06,7.26-.15,7.65-.17l.13.52h0l.06-.52c.59,0,10.33-.05,10.87-.06l.08.51h0l.17-.51,10.35.23Zm52.84.86h0Z"/><path class="cls-5" d="M83.69,4.64v.74l4.11,0,5.11,0,.49,0L95,5.43l3.77-.09,5.62-.14v.52l-.93.37.93-.37.06.52-10.91.27L93.35,6l-.1.51-5.51,0L84,6.42c-.66,0-1.2,0-1.63,0s-1.36,0-3,0l-5.31-.1-2.75,0h0l-5.78,0-3.6,0c-.58,0-1.06,0-1.45,0h0c-.6,0-10.18.47-10.85.52l-.25-.5H48c0,.27.54.47,1.08.5-.62,0-10.22-.44-10.85-.46H27.36l-.07-.51,0,.51-4.4,0c-3.69,0-5.45.07-6.36,0a6.25,6.25,0,0,1-.64,0h-7l-2.53,0c-.33,0-.66,0-1,0l-.52,0-1.5,0C.81,6.46-5,6.63-5.5,6.66l-.2-.5h0l-.1.51-4.25-.1-6.13-.14c-.7,0-1.88,0-1.88-.53,0-.31.71-.55,1.48-.52l6.69.16,3,.07,1.11,0c.28,0,.59,0,.9-.05l2.34-.07,5.66-.18,2.05-.06.13.51h0l.15-.51c.71,0,10,0,10.72,0l.09.52h1.4c0-.31-.67-.52-1.29-.52l6.44-.07c2.46,0,3.72,0,4.4,0,.33,0,.67,0,1,0h2.19l6.59,0v0H38.3L44,5.39l3.77.16,1.55.08,1.56-.09,3.78-.18,5.68-.26h1.35l9.62.06h0c.5,0,1.34,0,2.91,0l7.59.14Z"/><path class="cls-5" d="M51.17.27c.55,0,10,0,10.51,0l0,.51h1.36c0-.28-.56-.48-1.1-.5l8.17.21,1.68,0,.6,0c.27,0,.55,0,.81,0H93.61l.06.52h0l.18-.51,5.55.15,3.47.1c2,0,2.81.07,2.81.56,0,.28-.6.51-1.35.51h-.2L99.24,1.7l-3.86-.1-1.72-.06H83.15c-.26,0-.53,0-.73,0H80.79l-8.3,0-.07-.51h0l-.14.51L70,1.55l-5.34-.13-2.14-.06-.79,0H52.31l-1.18,0-.87,0-2.3.1-7.29.29-.22-.5h-1.4c0,.3.66.51,1.28.51l-5.13.05c-3.41,0-4.87.06-5.58,0v0L19,1.51h0l-1.18,0-3.07.05c-2.44,0-5.78.11-6.15.13l-.15-.51H7.07c0,.31.66.51,1.28.51l-10.52.08c-.77,0-1.43-.22-1.43-.52,0-.51.93-.51,2.78-.53l3.33,0L8.27.7h.16l.47,0,1.48,0L14.63.57l3.1-.06v0h1.35l5.48.17L28.2.76l1.62.06h0l5.3-.05c2.85,0,4.3-.05,5.09,0l.76,0L42.79.6,47.68.41,50.87.28,51,.79h0ZM103,1.33h0Z"/></g></g></g></g></svg>