<svg id="Layer_1" data-name="Layer 1" xmlns="http://www.w3.org/2000/svg" viewBox="0 0 100.87 86.1"><defs><style>.cls-1,.cls-3,.cls-4,.cls-5{fill:none;}.cls-1{stroke:#bbbdbf;stroke-width:0.82px;}.cls-1,.cls-3,.cls-4{stroke-linecap:round;stroke-linejoin:round;}.cls-2{fill:#525f83;}.cls-3,.cls-5{stroke:#ddd;}.cls-3{stroke-width:1.09px;}.cls-4{stroke:#d8954e;stroke-width:0.77px;}.cls-5{stroke-miterlimit:10;stroke-width:0.91px;}</style></defs><title>email_footer_bottomicon</title><path class="cls-1" d="M54.74,16.2c-.09.13,5.85,3.8,5.78,3.9s-20.16-8.85-20.41-8.47S70.71,31.27,70.25,32c-.31.46-37.56-21.09-38-20.37-.32.47,42.94,28.06,42.53,28.68S28.86,11.68,28.24,12.6c-.84,1.25,47.37,30.47,46.68,31.49S26.17,13.57,25.45,14.64,76.37,48.05,75.93,48.69c-.69,1-51.44-34.33-52.37-33-.48.73,52.86,34.13,52.16,35.18S22.1,16,21.07,17.5c-.56.82,55.47,35.89,54.76,36.94-1,1.5-58.64-37-59.43-35.83-.95,1.4,58.93,38.8,58.49,39.45-1.18,1.75-59.63-39.32-60.32-38.3-.43.65,58.32,37.88,57.64,38.89-1,1.45-59.1-38-59.74-37-1,1.45,60,38.44,59.07,39.84C70.44,63.08,11.94,24,11,25.33s59.9,39.31,59.4,40.06S9.46,26.94,8.74,28c-.83,1.23,62.46,40.5,61.7,41.62C69.79,70.59,7,30.44,6.27,31.55c-.54.8,61.35,39.74,60.59,40.87C66.27,73.29,4,32.35,3,33.87,2.29,34.93,64.78,73.7,63.93,75,62.84,76.57,2.28,36.61,1.35,38,.69,39,61.82,76.54,60.78,78.08S3.32,43,2.32,44.52C1.55,45.65,56.13,79.3,55.43,80.34,54.37,81.91,1.36,45.21.66,46.26-.18,47.49,55.83,82.62,55.43,83.2c-.5.75-52.3-33.43-53.2-32.11S52.68,83.44,51.9,84.6,1.37,53.25.41,54.66c-.48.72,44.4,29.13,44,29.69C43.66,85.49,4,59.94,3.7,60.44c-.58.86,37.54,23.65,36.77,24.79S4.44,64.37,3.81,65.29c-.48.72,30.63,19.82,30.24,20.4-.16.24-24.57-13.51-25-12.9-.21.3,15.36,9.76,15.08,10.17"/><polygon class="cls-2" points="50.85 67.07 19.52 67.07 19.52 35.74 22.65 33.01 50.85 35.74 53.57 63.94 50.85 67.07"/><path class="cls-3" d="M22.65,33.32c0,.4,30.89-.38,30.89,0,0,.22-30.89.77-30.89,1.16s30.9-.26,30.9,0-30.9.79-30.9,1.19,30.9-.35,30.9,0c0,.19-30.9.74-30.9.92s30.9-.42,30.9,0c0,.19-30.9,1.61-30.9,1.85s30.9-.17,30.9,0c0,.33-30.89,1.43-30.89,1.65s30.89-.37,30.89,0-30.89,1.28-30.89,1.64,30.89-.26,30.89,0-30.89.24-30.89.68c0,.17,30.89-.35,30.89,0s-30.89,1.33-30.89,1.65,30.89-.31,30.89,0-30.89.79-30.89,1.23,30.9-.42,30.9,0c0,.26-30.9.22-30.9.64s30.9-.33,30.9,0-30.9,1.71-30.9,1.87,30.9-.46,30.9,0c0,.25-30.9.82-30.9,1.28s30.9-.35,30.9,0-30.9,1.45-30.9,1.81c0,.2,30.9-.33,30.9,0s-30.89,2.29-30.89,2.5,30.89-.17,30.89,0S22.67,55.5,22.67,55.67c0,.33,30.89-.2,30.89,0s-30.89.52-30.89.95,30.9-.25,30.9,0-30.9,2-30.9,2.31,30.9-.46,30.9,0c0,.28-30.9,1.7-30.9,2.09,0,.23,30.9-.19,30.9,0S22.68,62.61,22.68,63s30.89-.18,30.89,0c0,.41-30.89.29-30.89.71s30.89-.37,30.89,0"/><polygon class="cls-2" points="92.86 59.51 36.99 50.28 72.91 6.5 92.86 59.51"/><path class="cls-4" d="M50.55,36.63C50.91,37,80.05,6.4,80.41,6.77c.6.6-42.16,43.1-41.67,43.6S80.61,7.41,81.15,8c.37.36-41,41.84-40.47,42.39C41,50.67,81.3,9.2,81.57,9.47c.59.59-39.45,40.9-39.19,41.15.44.45,39.43-40.61,40-40C82.72,10.92,43.6,50.53,44,51c.22.21,38.18-38.71,38.44-38.44.48.47-36.56,38.07-36.33,38.29s36.76-37.19,37-37c.38.38-35.29,36.61-35,36.88.52.52,35.28-35.91,35.6-35.6s-34.48,35.67-34.1,36S84,16,84.33,16.39,51.3,50.57,51.7,51s33.05-33.74,33.4-33.4S52.9,51,53.24,51.3,85,18.79,85.38,19.15,55,51.11,55.15,51.28c.45.45,30.68-31.23,31-30.95S56.29,51.44,56.6,51.75,86.15,21.7,86.4,22c.42.41-28.12,29.33-27.78,29.67S86.82,22.77,87.15,23.1c.15.15-27.07,28.67-26.93,28.82.3.29,27.42-27.95,27.69-27.69s-26,27.41-25.73,27.66S87.77,25.57,88.13,25.94,63.66,52.06,63.8,52.19C64.15,52.54,88.73,26.81,89,27S65.35,52.32,65.49,52.46c.32.31,23.57-23.83,23.7-23.7S67.07,52.15,67.37,52.45,90,29.35,90.21,29.61,69.05,52.26,69.29,52.5s20.92-21.16,21-21-19.25,20.83-19.09,21,20-20.33,20.17-20.17S72.6,52.65,72.75,52.8s18.76-19.32,19-19-17.22,18.81-17,19S92.14,35.07,92.29,35.22,76.48,52.7,76.6,52.82s16-16.23,16.11-16.11S78.15,53,78.23,53.11s14.86-15.23,15-15-13,14.79-12.94,14.87S93.86,39.17,94,39.29s-12.14,13.87-12,14S94.63,40.42,94.7,40.49s-11.37,13-11.23,13.1S95.16,41.77,95.23,41.84s-9.64,11.43-9.56,11.51,9.94-10.18,10-10.06S87.26,53.5,87.37,53.61,95.82,44.9,96,45s-7,8.67-6.88,8.76,7.64-7.73,7.69-7.68-6.1,7.87-6,8,6.41-6.49,6.45-6.44-4.35,6.14-4.31,6.17S98,48.6,98,48.63s-3.82,5.65-3.76,5.71,4-4.09,4-4-2.07,3.85-2,3.89S99,51.45,99,51.47s-.89,2.71-.87,2.73,1.14-1.17,1.16-1.15.41,1.43.42,1.44.14-.14.14-.14"/><polyline class="cls-5" points="78.02 0.29 36.98 50.28 100.8 60.82"/></svg>