<svg xmlns="http://www.w3.org/2000/svg" viewBox="0 0 64.65 78"><defs><style>.cls-1{fill:#9d9fa1;}.cls-2{fill:#c8c8c9;}.cls-3{fill:none;stroke:#484c50;stroke-miterlimit:10;stroke-width:1.42px;}.cls-4{fill:#484c50;}</style></defs><title>Asset 3</title><g id="Layer_2" data-name="Layer 2"><g id="Layer_1-2" data-name="Layer 1"><path class="cls-1" d="M52.49,51.44c-.65-.66-1-1-1.23-1.3s-.66-.72-1.64-1.65C48.36,47.2,47.8,46.68,47.09,46c-.48-.46-1-1-1.93-1.84-.58-.58-1-1.06-1.43-1.58a28.2,28.2,0,0,0-2.1-2.29c-.84-.84-1.29-1.23-1.72-1.6S39,37.9,38,36.93c-.64-.6-1.07-1.09-1.53-1.6s-1.09-1.23-2-2.13l-1.92-1.92-1.87-1.87c-1.34-1.33-1.4-1.39-2.8-2.74l-.59-.57c-.88-.86-1.42-1.36-1.9-1.81s-.95-.88-1.7-1.63l-1.38-1.35c-.78-.77-1.4-1.37-2.65-2.57-.92-.91-1.29-1.33-1.68-1.78s-.79-.9-1.76-1.87-1.63-1.53-2.1-1.93-.74-.65-1.38-1.28c-.11-.11-.34-.06-.51.11h0c-.17.17-.21.4-.1.5a18.81,18.81,0,0,0,1.4,1.3c.46.4,1,.85,2.08,1.92s1.36,1.41,1.74,1.85.77.88,1.7,1.8c1.25,1.2,1.87,1.8,2.65,2.57l1.37,1.35c.76.75,1.22,1.18,1.72,1.64s1,.94,1.89,1.8l.59.57C28.65,28.65,28.71,28.7,30,30l1.88,1.86,1.92,1.93c.95.9,1.5,1.51,2,2.11a21.92,21.92,0,0,0,1.54,1.62,23.46,23.46,0,0,0,1.9,1.79c.42.37.87.76,1.7,1.59,1,1,1.57,1.67,2.08,2.27s.85,1,1.45,1.6c.9.87,1.45,1.39,1.94,1.84.71.66,1.26,1.19,2.52,2.47,1,.92,1.26,1.24,1.62,1.64s.59.64,1.25,1.31c.11.11.33.06.5-.11h0c.16-.17.21-.4.1-.51m9.37-8.14L60,41.39c-.48-.5-.94-1-1.89-1.91-1.32-1.29-2-2-2.86-2.91-.21-.22-.42-.45-.67-.7l-1.63-1.63c-.72-.72-1.11-1.12-2.65-2.6a15,15,0,0,0-1.51-1.29,19.76,19.76,0,0,1-2.16-1.94l-.34-.33-2.66-2.59-.84-.82c-.9-.88-1.38-1.43-1.89-2s-.81-.93-1.45-1.59c-.85-.82-1.24-1.16-1.63-1.48S37,18.87,36,17.89s-1.34-1.43-1.75-1.9-1-1.13-2.32-2.47c-1.08-1-1.5-1.48-2-2s-.87-.91-1.8-1.83a11.54,11.54,0,0,0-1.55-1.32,19.63,19.63,0,0,1-2.3-2L23.81,6c-.9-.86-1.23-1.19-3.15-3.1-.11-.11-.33-.06-.5.11s-.22.4-.11.51C22,5.4,22.3,5.72,23.2,6.58l.46.45A20.18,20.18,0,0,0,26,9a11.06,11.06,0,0,1,1.51,1.28c.93.91,1.38,1.39,1.79,1.82s.91,1,2,2c1.33,1.32,1.8,1.86,2.3,2.44s.84,1,1.77,1.92,1.41,1.34,1.84,1.71.77.65,1.6,1.46c.63.65,1,1.12,1.44,1.57a27.3,27.3,0,0,0,1.91,2l.84.82,2.65,2.59L46,29a19,19,0,0,0,2.2,2,17.65,17.65,0,0,1,1.48,1.27c1.53,1.48,1.93,1.88,2.65,2.6L54,36.49l.66.69c.83.87,1.55,1.62,2.87,2.92.94.93,1.4,1.41,1.89,1.91s.94,1,1.88,1.9c.11.11.34.06.51-.11h0c.16-.17.21-.39.1-.5m2.62-2.74c.17-.18.22-.4.1-.51a25.35,25.35,0,0,0-2.06-1.83,25.3,25.3,0,0,1-2-1.75c-.93-.95-1.28-1.37-1.65-1.81s-.76-.91-1.76-1.93-1.54-1.5-2-1.92-.9-.83-2-1.95a22.06,22.06,0,0,0-2-1.91c-.39-.33-.76-.64-1.38-1.26C48.37,24.41,48,24,47.41,23.43s-.88-.9-1.86-1.87-1.36-1.32-1.71-1.7-.6-.63-1.33-1.35c-1.13-1.12-1.8-1.71-2.5-2.34-.55-.49-1.13-1-2-1.82a8.13,8.13,0,0,1-.85-1,21.41,21.41,0,0,0-2.54-2.79c-1.19-1.22-1.34-1.36-2-2L31.14,7.13C30.36,6.38,29.88,6,29.4,5.59a26.18,26.18,0,0,1-2-1.82,19.55,19.55,0,0,1-1.84-2A18.56,18.56,0,0,0,24.06.06C24,0,23.72,0,23.55.17h0c-.17.17-.22.4-.11.51a20.51,20.51,0,0,1,1.47,1.66,19.52,19.52,0,0,0,1.86,2.05,24.76,24.76,0,0,0,2.05,1.84c.46.39.94.78,1.71,1.52L32,9.17c.7.67.84.81,2,2A20.33,20.33,0,0,1,36.54,14a9.61,9.61,0,0,0,.88,1c.86.81,1.44,1.33,2,1.83.7.62,1.36,1.21,2.49,2.32.73.72,1,1.05,1.32,1.34s.67.72,1.72,1.72,1.44,1.44,1.85,1.86,1,1,2.27,2.25a16.55,16.55,0,0,0,1.4,1.29,21.82,21.82,0,0,1,2,1.89c1.14,1.12,1.6,1.55,2.05,2s.88.81,2,1.91a23.32,23.32,0,0,1,1.73,1.9,23.88,23.88,0,0,0,1.68,1.83,24.27,24.27,0,0,0,2,1.78,25,25,0,0,1,2,1.81c.11.11.34.06.51-.11h0"/><path class="cls-1" d="M56.24,49.53c.17-.17.21-.4.1-.5l-2.1-2c-.66-.62-1.13-1.07-2.32-2.28-.58-.55-1.06-.94-1.52-1.32s-1.08-.88-1.78-1.57c-1.09-1.08-1.6-1.62-2-2.1s-.91-1-1.88-1.9c-.65-.65-1.1-1.12-1.55-1.58s-1.13-1.18-2-2.05-1.26-1.31-1.71-1.79a24.88,24.88,0,0,0-1.8-1.85l-1.85-1.87-2.24-2.25a15.46,15.46,0,0,0-1.76-1.57,14.81,14.81,0,0,1-1.54-1.32C29,22.26,28.52,21.8,28,21.26s-.85-.89-1.78-1.84-1.37-1.29-1.85-1.7-.89-.75-1.69-1.54a28.22,28.22,0,0,1-1.88-2.11c-.46-.54-.93-1.11-1.61-1.82-1-.93-1.54-1.44-2-1.84s-.83-.76-1.48-1.4c-.11-.11-.34-.06-.51.11s-.22.4-.11.51c.66.64,1,1,1.5,1.41s1,.9,2,1.83c.67.69,1.11,1.23,1.58,1.8s1.05,1.26,1.9,2.13,1.28,1.18,1.71,1.55A24.59,24.59,0,0,1,25.6,20c.93.94,1.38,1.42,1.78,1.84s1,1,2.24,2.28a19.37,19.37,0,0,0,1.57,1.36,13.49,13.49,0,0,1,1.73,1.53l2.24,2.25c.57.59,1,1,1.85,1.87S38.26,32.42,38.8,33s1,1,1.72,1.81,1.43,1.44,2,2,.91.94,1.56,1.59c1,.94,1.38,1.38,1.87,1.89s1,1,2.06,2.11c.71.7,1.27,1.15,1.8,1.59s.93.76,1.5,1.31C52.5,46.54,53,47,53.63,47.62c.47.45,1.06,1,2.1,2,.11.11.34.05.51-.12h0"/><path class="cls-1" d="M59,46a15.94,15.94,0,0,0-2.31-2,11.22,11.22,0,0,1-1.62-1.4L53.48,41,51.56,39a24,24,0,0,1-2.08-2.23,28.84,28.84,0,0,0-2.08-2.28c-.46-.43-.85-.77-1.22-1.1C45.57,32.9,45,32.35,44,31.38c-1.15-1.14-1.75-1.66-2.22-2.08a18.94,18.94,0,0,1-1.46-1.4,19.16,19.16,0,0,1-1.88-2.08A16.4,16.4,0,0,0,37,24.22a25.59,25.59,0,0,0-2.7-2.42,18.79,18.79,0,0,1-1.48-1.28,15.4,15.4,0,0,1-1.71-1.89A12.55,12.55,0,0,0,29.57,17c-1.35-1.32-1.85-1.75-2.29-2.13s-.73-.63-1.56-1.45a28.48,28.48,0,0,1-2.11-2.25A18.83,18.83,0,0,0,22,9.5c-2-2-2.32-2.31-4.16-4.12-.11-.11-.34-.06-.51.11s-.21.4-.1.51c1.84,1.81,2.19,2.15,4.16,4.13A17.2,17.2,0,0,1,23,11.75,29,29,0,0,0,25.11,14c.84.83,1.2,1.14,1.58,1.47s.92.8,2.27,2.12a12,12,0,0,1,1.46,1.6,15.38,15.38,0,0,0,1.75,1.93,15.73,15.73,0,0,0,1.51,1.3,26.6,26.6,0,0,1,2.67,2.4,14.69,14.69,0,0,1,1.4,1.57,20.68,20.68,0,0,0,1.9,2.11,19,19,0,0,0,1.48,1.41c.47.42,1.06.94,2.2,2.07,1,1,1.64,1.53,2.25,2.07.39.34.76.66,1.21,1.08a30,30,0,0,1,2.05,2.25A23.37,23.37,0,0,0,51,39.66l1.92,1.94,1.61,1.63a11.21,11.21,0,0,0,1.67,1.44,15.59,15.59,0,0,1,2.25,2c.11.11.34.06.51-.11h0c.17-.17.21-.4.11-.51"/><polygon class="cls-2" points="56.98 18.84 0 75.82 0 18.84 56.98 18.84"/><path class="cls-3" d="M25.74,35.71a4.42,4.42,0,1,1,1.39-6.1A4.42,4.42,0,0,1,25.74,35.71Z"/><polygon class="cls-4" points="30.17 64.2 40.5 50.4 23.39 48.35 6.27 46.3 13.05 62.15 19.84 78 30.17 64.2"/></g></g></svg>