<svg xmlns="http://www.w3.org/2000/svg" viewBox="0 0 54.52 54.52"><defs><style>.cls-1{fill:#525f83;}</style></defs><title>process</title><g id="The_Process" data-name="The Process"><path class="cls-1" d="M53.13,21.28l-4.45-.7a2.37,2.37,0,0,1-2-2.72,2.32,2.32,0,0,1,.42-1l2.66-3.64a1.1,1.1,0,0,0,0-1.26,27.25,27.25,0,0,0-7.22-7.22,1.08,1.08,0,0,0-1.25,0L37.68,7.39a2.38,2.38,0,0,1-3.32-.52,2.41,2.41,0,0,1-.43-1l-.7-4.46a1.07,1.07,0,0,0-.87-.9,27.33,27.33,0,0,0-10.2,0,1.07,1.07,0,0,0-.88.9l-.7,4.46a2.38,2.38,0,0,1-2.71,2,2.45,2.45,0,0,1-1-.43L13.19,4.73a1.1,1.1,0,0,0-1.26,0,27.25,27.25,0,0,0-7.22,7.22,1.12,1.12,0,0,0,0,1.26l2.66,3.64a2.37,2.37,0,0,1-.52,3.32,2.29,2.29,0,0,1-1,.43l-4.46.7a1.08,1.08,0,0,0-.9.88,27.33,27.33,0,0,0,0,10.2,1.08,1.08,0,0,0,.9.87l4.46.7a2.38,2.38,0,0,1,2,2.72,2.41,2.41,0,0,1-.43,1L4.73,41.33a1.1,1.1,0,0,0,0,1.25,27.25,27.25,0,0,0,7.22,7.22,1.1,1.1,0,0,0,1.26,0l3.64-2.66a2.38,2.38,0,0,1,3.32.52,2.33,2.33,0,0,1,.43,1l.7,4.45a1.09,1.09,0,0,0,.88.91,27.33,27.33,0,0,0,10.2,0,1.1,1.1,0,0,0,.87-.91l.7-4.45a2.38,2.38,0,0,1,2.72-2,2.28,2.28,0,0,1,1,.42l3.65,2.66a1.08,1.08,0,0,0,1.25,0,27.25,27.25,0,0,0,7.22-7.22,1.08,1.08,0,0,0,0-1.25l-2.66-3.65a2.38,2.38,0,0,1,.52-3.32,2.45,2.45,0,0,1,1-.43l4.45-.7a1.1,1.1,0,0,0,.91-.87,27.33,27.33,0,0,0,0-10.2A1.09,1.09,0,0,0,53.13,21.28Zm-.66,10-3.75.59a4.65,4.65,0,0,0-3.87,5.3,4.81,4.81,0,0,0,.84,2l2.24,3.07a25.51,25.51,0,0,1-5.68,5.68l-3.07-2.24a4.64,4.64,0,0,0-6.48,1,4.68,4.68,0,0,0-.84,2l-.59,3.75a25.75,25.75,0,0,1-8,0l-.58-3.75a4.66,4.66,0,0,0-5.31-3.87,4.81,4.81,0,0,0-2,.84l-3.06,2.24a25.51,25.51,0,0,1-5.68-5.68l2.24-3.07a4.64,4.64,0,0,0-1-6.48,4.53,4.53,0,0,0-2-.84L2,31.27a25.75,25.75,0,0,1,0-8l3.76-.59a4.65,4.65,0,0,0,3-7.32L6.59,12.27a25.3,25.3,0,0,1,5.68-5.68l3.06,2.23a4.65,4.65,0,0,0,6.49-1,4.81,4.81,0,0,0,.84-2L23.24,2a25.75,25.75,0,0,1,8,0l.59,3.75a4.63,4.63,0,0,0,5.3,3.87,4.52,4.52,0,0,0,2-.84l3.07-2.23a25.3,25.3,0,0,1,5.68,5.68l-2.24,3.06a4.63,4.63,0,0,0,3,7.32l3.75.59a25.75,25.75,0,0,1,0,8Z"/><rect class="cls-1" x="15.37" y="31.24" width="5.03" height="7.55"/><rect class="cls-1" x="24.59" y="26.21" width="5.03" height="12.58"/><rect class="cls-1" x="33.82" y="17.82" width="5.03" height="20.97"/></g></svg>