<svg xmlns="http://www.w3.org/2000/svg" viewBox="0 0 61.58 49.85"><defs><style>.cls-1{fill:#525f83;}</style></defs><title>process</title><g id="The_Process" data-name="The Process"><path class="cls-1" d="M60.55,18.67H46.08a1,1,0,0,0-1,1v3.1H42.49L40.1,19.22a19.49,19.49,0,0,0-3.59-4,18.91,18.91,0,0,0-2.36-1.71l6.63-6.64A4,4,0,0,0,39.34.25a3.85,3.85,0,0,0-4.12.94l0,0L32.94,3.47h0l-3.1,3.1h0l-4,4a1.19,1.19,0,0,0-.32-.1c-.62-.06-1.25-.09-1.87-.09H12.4a1,1,0,0,0-.73.31L2.19,20.19a4,4,0,0,0,1.44,6.57,3.85,3.85,0,0,0,4.12-.94l0,0,1-1,.3,1a14.06,14.06,0,0,0,.53,1.46L5.47,31.38h0L3.4,33.45a1,1,0,0,0-.24.4l-2.07,6.2a1,1,0,0,0,.65,1.31,1,1,0,0,0,.33,0,.86.86,0,0,0,.32,0L8.6,39.29a1,1,0,0,0,.4-.24L11.07,37h0l3.53-3.54a14.58,14.58,0,0,0,8.61,2.81H31.6l.14,0a9.48,9.48,0,0,0,2.76,2.11,9.58,9.58,0,0,0,4.3,1H45v1a1,1,0,0,0,1,1H60.55a1,1,0,0,0,1-1V19.71A1,1,0,0,0,60.55,18.67Zm-23.46-16a1.89,1.89,0,0,1,2.67,2.68L38.25,6.87,35.57,4.2Zm-3,3,2.67,2.67L35.14,10,32.47,7.3ZM6.33,24.32a1.89,1.89,0,0,1-2.68-2.67l9.18-9.18H24.36v0l-4.12,4.12H14.47a1,1,0,0,0-.73.3Zm11.85-5.65L11.25,25.6h0l-.75-2.49,4.43-4.43ZM7.71,37.41l-4,1.33,1.34-4,1.55-1.55a3.1,3.1,0,0,1,2.67,2.68Zm3.23-3.22a5.23,5.23,0,0,0-2.68-2.68L21.4,18.37h0L31,8.77l2.67,2.67L23.35,21.77H22.08a4.24,4.24,0,0,0-3.37,1.56A4.14,4.14,0,0,0,18,27.14a.91.91,0,0,0-.16.11Zm12.27,0A12.53,12.53,0,0,1,16.08,32l3.05-3.05A4.15,4.15,0,0,0,22,30h6.38l2.37,4.14ZM45,37.28H38.8a7.56,7.56,0,0,1-6.56-3.8l-2.84-5a1,1,0,0,0-.9-.52H22a2.11,2.11,0,0,1-2-1.4,2.07,2.07,0,0,1,2-2.74H32a1,1,0,1,0,0-2.07H25.83L32.64,15a17.08,17.08,0,0,1,5.74,5.41l2.7,4.05a1,1,0,0,0,.86.46H45Zm14.47,2.07H47.11V20.74h12.4Z"/><circle class="cls-1" cx="53.75" cy="35.21" r="2.07"/><path class="cls-1" d="M22.74,43.48H1a1,1,0,0,0,0,2.07H22.74a1,1,0,0,0,0-2.07Z"/><path class="cls-1" d="M31.34,47.78H9.64a1,1,0,1,0,0,2.07h21.7a1,1,0,1,0,0-2.07Z"/></g></svg>