<svg xmlns="http://www.w3.org/2000/svg" viewBox="0 0 40.16 57.24"><defs><style>.cls-1{fill:#525f83;}</style></defs><title>process</title><g id="The_Process" data-name="The Process"><path class="cls-1" d="M5.18,24.29c.11.11,12.2,7.56,13.93,19.54v.11c0,.11,0,.11.11.22s.11.11.11.21l.1.11c.11.11.11.11.22.11a.11.11,0,0,1,.11.11c.11,0,.21.11.43.11h0a.63.63,0,0,0,.43-.11.11.11,0,0,0,.11-.11c.11,0,.11-.11.22-.11l.1-.11c0-.1.11-.1.11-.21v-.22C22.89,32.07,35,24.51,35.09,24.4a1.05,1.05,0,0,0,.32-1.51l-5.94-10H31.2a1,1,0,0,0,1.08-1.08V7.13A1,1,0,0,0,31.2,6.05H29.47v-5A1,1,0,0,0,28.39,0H11.88A1,1,0,0,0,10.8,1.08v5H9.07A1,1,0,0,0,8,7.13v4.64a1,1,0,0,0,1.08,1.08H10.8l-5.94,10A.89.89,0,0,0,5.18,24.29Zm14.9.11a1.62,1.62,0,1,1,1.62-1.62A1.59,1.59,0,0,1,20.08,24.4ZM13,2.16H27.32V6.05H13ZM10,8.21H30.12v2.48H10Zm3.24,4.64H27L33,23.1c-2.27,1.62-8.42,6.27-11.88,13.5V26.45a3.75,3.75,0,1,0-4.86-3.56A3.72,3.72,0,0,0,19,26.45V36.6C15.55,29.47,9.39,24.72,7.13,23.1Z"/><path class="cls-1" d="M3.78,49.58A3.82,3.82,0,0,0,0,53.36a3.92,3.92,0,0,0,3.78,3.88,4,4,0,0,0,3.67-2.7h9.07a3.72,3.72,0,0,0,3.56,2.7,4,4,0,0,0,3.67-2.7h9.07a3.73,3.73,0,0,0,3.56,2.7,3.78,3.78,0,0,0,0-7.56,4,4,0,0,0-3.67,2.7h-4.1a16.46,16.46,0,0,0,7.56-11,3.91,3.91,0,0,0,2.91-3.67,3.78,3.78,0,1,0-5,3.56A14.27,14.27,0,0,1,23.75,52.17a3.74,3.74,0,0,0-3.56-2.49,3.88,3.88,0,0,0-3.56,2.49A14.4,14.4,0,0,1,6.15,41.26,3.76,3.76,0,0,0,5,33.92a3.78,3.78,0,0,0-.87,7.45,16.46,16.46,0,0,0,7.56,11H7.56A4,4,0,0,0,3.78,49.58ZM35.3,36.08a1.62,1.62,0,1,1-1.61,1.62A1.66,1.66,0,0,1,35.3,36.08ZM3.24,37.7a1.66,1.66,0,0,1,1.62-1.62,1.62,1.62,0,0,1,0,3.24A1.66,1.66,0,0,1,3.24,37.7Zm.54,17.38a1.62,1.62,0,0,1,0-3.24A1.67,1.67,0,0,1,5.4,53.46,1.59,1.59,0,0,1,3.78,55.08Zm32.6-3.34A1.65,1.65,0,0,1,38,53.36a1.67,1.67,0,0,1-1.62,1.72,1.59,1.59,0,0,1-1.62-1.62A1.76,1.76,0,0,1,36.38,51.74Zm-16.3,0a1.65,1.65,0,0,1,1.62,1.62,1.68,1.68,0,0,1-1.62,1.72,1.59,1.59,0,0,1-1.62-1.62A1.76,1.76,0,0,1,20.08,51.74Z"/></g></svg>