<svg xmlns="http://www.w3.org/2000/svg" viewBox="0 0 67.8 76.74"><defs><style>.cls-1{fill:#525f83;}</style></defs><title>process</title><g id="The_Process" data-name="The Process"><path class="cls-1" d="M0,25,4.6,39.34a.72.72,0,0,0,.37.43.64.64,0,0,0,.33.08.91.91,0,0,0,.23,0l5.21-1.66a.73.73,0,0,0,.47-.92l-.91-2.87,11.62-3.7.13.41a.74.74,0,0,0,.7.51.83.83,0,0,0,.22,0l5.09-1.63A7.62,7.62,0,0,0,29.3,41.07L15.87,75h-4.1c-.41.41-.74.74-.74,1.15a.6.6,0,0,0,.74.62H56a.59.59,0,0,0,.73-.62c0-.41-.33-.74-.73-1.15H53.66c0,.32,0,.24-.06.15L38.67,40.92A7.65,7.65,0,0,0,35.8,27.47l6.62-2.11.33,1.05a.74.74,0,0,0,.7.51.91.91,0,0,0,.23,0l16-5.09,1,3.2a.67.67,0,0,0,.36.43.77.77,0,0,0,.34.08l.22,0,5.7-1.82a.73.73,0,0,0,.47-.92L60.68.51a.76.76,0,0,0-.36-.43.73.73,0,0,0-.56,0l-5.7,1.81a.72.72,0,0,0-.43.37.68.68,0,0,0-.05.56l1,3.2-16,5.09a.76.76,0,0,0-.43.36.78.78,0,0,0,0,.56l.33,1-19.44,6.2a.75.75,0,0,0-.48.93l.13.4L7.08,24.28,6.64,22.9a.73.73,0,0,0-.92-.47L.51,24.08a.74.74,0,0,0-.43.37A.77.77,0,0,0,0,25Zm60.89-4.67h0L56.69,6.49h0l-.94-3.07,4-1.32,6.1,20-4,1.32Zm-20.7-7.89L54.79,7.82l4,12.37L44.18,24.82ZM51.9,75H34.42V42.14a7.72,7.72,0,0,0,2.79-.82ZM33.54,35.25v5.83a6.41,6.41,0,0,1-2.05-.61Zm.88.11,2.2,5a6.29,6.29,0,0,1-2.2.69ZM31,41.43a7.43,7.43,0,0,0,2.58.71V75H17.82ZM28.1,34.85a5.8,5.8,0,0,1,11.6,0,5.66,5.66,0,0,1-1.94,4.24l-3.23-7.33h0s0,0,0-.06a.72.72,0,0,0-.11-.15l-.11-.08a.6.6,0,0,0-.11-.06.58.58,0,0,0-.19,0h-.07l-.09,0a.66.66,0,0,0-.71.41l-2.94,7.41A5.67,5.67,0,0,1,28.1,34.85Zm-4.56-5.36-2.91-9,18-5.64,2.91,9Zm-13.39,3L8,25.82l10.88-3.41L21,29.13Zm-8-6.9,3.38-1.14.35,1.16a.68.68,0,0,0,0,.14l2.46,8.15a.91.91,0,0,0,.07.14l.77,2.54L5.76,37.75Z"/></g></svg>