<svg xmlns="http://www.w3.org/2000/svg" viewBox="0 0 58.47 54.52"><defs><style>.cls-1{fill:#525f83;}</style></defs><title>process</title><g id="The_Process" data-name="The Process"><path class="cls-1" d="M18.69,35.23h0a.87.87,0,0,0,.28.19h0a.78.78,0,0,0,.33.07.75.75,0,0,0,.33-.07.33.33,0,0,0,.1-.06.67.67,0,0,0,.19-.12h0l4.12-4.12H33.9l4.39,4.4h0a1,1,0,0,0,.28.18h0a.87.87,0,0,0,.32.06h0a.92.92,0,0,0,.33-.06l.1-.06a1.13,1.13,0,0,0,.18-.12l0,0h0a7.27,7.27,0,0,0-2.68-12.19,32,32,0,0,0,.21-3.54c0-7.62-2.73-14.61-7.48-19.2L29,0l-.62.6c-4.76,4.58-7.48,11.58-7.48,19.2a30.78,30.78,0,0,0,.23,3.74,7.33,7.33,0,0,0-4.44,6.7,7.25,7.25,0,0,0,2,5S18.69,35.23,18.69,35.23Zm21.9-4.92a5.64,5.64,0,0,1-1.22,3.52l-3.76-3.76A31.33,31.33,0,0,0,37,25,5.77,5.77,0,0,1,40.59,30.31ZM29,2.45a21.78,21.78,0,0,1,4.38,6.48H24.61A21.94,21.94,0,0,1,29,2.45Zm-5.12,8.27H34.1a26.75,26.75,0,0,1,1.54,9,27.26,27.26,0,0,1-.27,3.85.75.75,0,0,0,0,.16.76.76,0,0,0,0,.26,25.87,25.87,0,0,1-1.41,5.28H24.06a27,27,0,0,1-.2-18.52ZM21,25.24a30.23,30.23,0,0,0,1.33,4.83L18.93,33.5a5.71,5.71,0,0,1-1-3.19A5.78,5.78,0,0,1,21,25.24Z"/><path class="cls-1" d="M29.27,20.15a3.07,3.07,0,1,0-3.06-3.06A3.06,3.06,0,0,0,29.27,20.15Zm0-4.24a1.18,1.18,0,1,1-1.17,1.18A1.18,1.18,0,0,1,29.27,15.91Z"/><path class="cls-1" d="M58.45,53.42A8.36,8.36,0,0,0,44,49.12a8.36,8.36,0,0,0-4.7-1.45,8.5,8.5,0,0,0-3.15.62,8.36,8.36,0,0,0-13.94.23A8.46,8.46,0,0,0,15,48.46,8.36,8.36,0,0,0,0,53.57a.94.94,0,0,0,.94.94.94.94,0,0,0,1-.94,6.48,6.48,0,0,1,12-3.39l.49.8.8-.48a6.54,6.54,0,0,1,6.87.11l.9.58.46-1A6.48,6.48,0,0,1,35,50l.45.82.83-.45a6.46,6.46,0,0,1,7.29.81l.79.68.61-.84A6.48,6.48,0,0,1,56.6,53.72a.94.94,0,0,0,.93.8l.15,0A.93.93,0,0,0,58.45,53.42Z"/><path class="cls-1" d="M24.44,34.18v4.56a.95.95,0,0,0,1.89,0V34.18a.95.95,0,0,0-1.89,0Z"/><path class="cls-1" d="M32,34.18v4.56a.95.95,0,0,0,1.89,0V34.18a.95.95,0,0,0-1.89,0Z"/><path class="cls-1" d="M28.22,34.18v6.93a.95.95,0,0,0,1.89,0V34.18a.95.95,0,0,0-1.89,0Z"/></g></svg>