<svg xmlns="http://www.w3.org/2000/svg" viewBox="0 0 70.91 105.78"><defs><style>.cls-1{fill:#7184a3;}.cls-2{fill:#8197b3;}</style></defs><title>light_half_circle</title><g id="Footer"><path class="cls-1" d="M70.91,102.79v3A72.69,72.69,0,0,1,0,33.2V0H3V33.2A69.7,69.7,0,0,0,70.91,102.79Z"/><path class="cls-1" d="M70.91,89v3A58.82,58.82,0,0,1,13.83,33.2V0h3V33.2A55.83,55.83,0,0,0,70.91,89Z"/><path class="cls-1" d="M70.91,75.12v3A45,45,0,0,1,27.66,33.2V0h3V33.2A42,42,0,0,0,70.91,75.12Z"/><path class="cls-2" d="M70.91,15.15V63a24,24,0,0,1,0-47.84Z"/></g></svg>