<svg xmlns="http://www.w3.org/2000/svg" viewBox="0 0 158.59 30"><defs><style>.cls-1{fill:#484c50;}</style></defs><title>Asset 1</title><g id="Layer_2" data-name="Layer 2"><g id="Layer_1-2" data-name="Layer 1"><path class="cls-1" d="M55.5,23.6A6.08,6.08,0,0,1,55,26.12a6.23,6.23,0,0,1-1.39,2,6.57,6.57,0,0,1-2,1.36,6.18,6.18,0,0,1-2.46.5,6.4,6.4,0,0,1-2.52-.5,6.35,6.35,0,0,1-3.38-3.38,6.4,6.4,0,0,1-.5-2.52V15.27H44v4.48h3.46V21H44V23.6a4.91,4.91,0,0,0,.41,2,5.16,5.16,0,0,0,2.73,2.73,4.91,4.91,0,0,0,2,.41,5,5,0,0,0,2-.41,5.25,5.25,0,0,0,2.73-2.73,4.91,4.91,0,0,0,.41-2Z"/><path class="cls-1" d="M63.44,17.19a6.18,6.18,0,0,1,2.46.5,7,7,0,0,1,2,1.36,6.33,6.33,0,0,1,0,9.09,6.64,6.64,0,0,1-2,1.36,6.18,6.18,0,0,1-2.46.5,6.42,6.42,0,0,1-2.53-.5,6.25,6.25,0,0,1-2-1.36,6.47,6.47,0,0,1-1.36-2,6.49,6.49,0,0,1,1.36-7.07,6.59,6.59,0,0,1,2-1.36,6.42,6.42,0,0,1,2.53-.5m0,11.53a4.91,4.91,0,0,0,2-.41,5.26,5.26,0,0,0,1.63-1.1,5.15,5.15,0,0,0,1.1-1.63,4.91,4.91,0,0,0,.41-2,5,5,0,0,0-.41-2A5.38,5.38,0,0,0,67.05,20a5.44,5.44,0,0,0-1.63-1.1,5,5,0,0,0-4,0,5.16,5.16,0,0,0-2.73,2.73,5,5,0,0,0-.41,2,4.91,4.91,0,0,0,.41,2,5.32,5.32,0,0,0,1.1,1.63,5.38,5.38,0,0,0,1.63,1.1,5,5,0,0,0,2,.41"/><path class="cls-1" d="M77.78,30a6.37,6.37,0,0,1-2.52-.5,6.46,6.46,0,0,1-2-1.36,6.4,6.4,0,0,1-1.85-4.54V17.19h1.28V23.6a4.75,4.75,0,0,0,.41,2,5.26,5.26,0,0,0,1.1,1.63,5.15,5.15,0,0,0,1.63,1.1,4.91,4.91,0,0,0,2,.41,5,5,0,0,0,2-.41,5.19,5.19,0,0,0,2.72-2.73,4.75,4.75,0,0,0,.41-2V17.19h1.28V23.6a6.24,6.24,0,0,1-.51,2.52,6.39,6.39,0,0,1-1.39,2,6.75,6.75,0,0,1-2,1.36,6.18,6.18,0,0,1-2.46.5"/><path class="cls-1" d="M98.53,23.6A6.24,6.24,0,0,1,98,26.12a6.41,6.41,0,0,1-1.4,2,6.57,6.57,0,0,1-2,1.36,6.1,6.1,0,0,1-2.45.5,6.42,6.42,0,0,1-2.53-.5,6.15,6.15,0,0,1-2-1.36,6.31,6.31,0,0,1-1.36-2,6.4,6.4,0,0,1-.5-2.52V15.27H87v4.48h3.46V21H87V23.6a4.91,4.91,0,0,0,.41,2,5.15,5.15,0,0,0,1.1,1.63,5.26,5.26,0,0,0,1.63,1.1,5,5,0,0,0,4,0,5.26,5.26,0,0,0,1.63-1.1,5.32,5.32,0,0,0,1.1-1.63,4.91,4.91,0,0,0,.41-2Z"/><path class="cls-1" d="M106.47,28.72a4.76,4.76,0,0,0,1.71-.3,5.12,5.12,0,0,0,1.45-.8,5.26,5.26,0,0,0,1.13-1.22,5.38,5.38,0,0,0,.7-1.52h1.28a5.9,5.9,0,0,1-.82,2,6.89,6.89,0,0,1-1.4,1.63,6.44,6.44,0,0,1-6.57,1,6.19,6.19,0,0,1-2-1.36,6.47,6.47,0,0,1-1.36-2,6.49,6.49,0,0,1,1.36-7.07,6.52,6.52,0,0,1,2-1.36,6.33,6.33,0,0,1,2.52-.5,6.35,6.35,0,0,1,4,1.46,7.1,7.1,0,0,1,1.4,1.63,5.87,5.87,0,0,1,.82,2h-1.28a5.31,5.31,0,0,0-.7-1.53,5.47,5.47,0,0,0-1.13-1.22,5.12,5.12,0,0,0-1.45-.8,4.76,4.76,0,0,0-1.71-.3,5,5,0,0,0-2,.41,5.19,5.19,0,0,0-2.72,2.73,4.83,4.83,0,0,0-.41,2,4.75,4.75,0,0,0,.41,2,5.15,5.15,0,0,0,1.1,1.63,5.22,5.22,0,0,0,1.62,1.1,5,5,0,0,0,2,.41"/><rect class="cls-1" x="114.28" y="14.89" width="1.28" height="15.11"/><path class="cls-1" d="M123.5,17.19a6.18,6.18,0,0,1,2.46.5,6.93,6.93,0,0,1,2,1.36,6.36,6.36,0,0,1,0,9.09,6.57,6.57,0,0,1-2,1.36,6.18,6.18,0,0,1-2.46.5,6.4,6.4,0,0,1-2.52-.5,6.35,6.35,0,0,1-3.38-3.38,6.58,6.58,0,0,1,0-5,6.13,6.13,0,0,1,1.36-2,6.47,6.47,0,0,1,2-1.36,6.4,6.4,0,0,1,2.52-.5m0,11.53a5,5,0,0,0,2-.41,5.25,5.25,0,0,0,2.73-2.73,4.91,4.91,0,0,0,.41-2,5,5,0,0,0-.41-2,5.25,5.25,0,0,0-2.73-2.73,5,5,0,0,0-2-.41,4.91,4.91,0,0,0-2,.41,5.32,5.32,0,0,0-1.63,1.1,5.38,5.38,0,0,0-1.1,1.63,5,5,0,0,0-.41,2,4.91,4.91,0,0,0,.41,2,5.16,5.16,0,0,0,2.73,2.73,4.91,4.91,0,0,0,2,.41"/><path class="cls-1" d="M137.85,30a6.35,6.35,0,0,1-6.41-6.4V17.19h1.28V23.6a4.91,4.91,0,0,0,.41,2,5.29,5.29,0,0,0,1.11,1.63,5.22,5.22,0,0,0,1.62,1.1,5,5,0,0,0,4,0,5.16,5.16,0,0,0,2.73-2.73,4.91,4.91,0,0,0,.41-2V17.19h1.28V23.6a6.23,6.23,0,0,1-1.91,4.54,6.82,6.82,0,0,1-2,1.36,6.18,6.18,0,0,1-2.46.5"/><path class="cls-1" d="M158.59,23.6a6.27,6.27,0,0,1-1.9,4.54,6.57,6.57,0,0,1-2,1.36,6.18,6.18,0,0,1-2.46.5,6.37,6.37,0,0,1-2.52-.5,6.27,6.27,0,0,1-3.38-3.38,6.23,6.23,0,0,1-.5-2.52V15.27h1.28v4.48h3.46V21h-3.46V23.6a4.75,4.75,0,0,0,.41,2,5.16,5.16,0,0,0,2.73,2.73,4.91,4.91,0,0,0,2,.41,5,5,0,0,0,2-.41,5.22,5.22,0,0,0,1.62-1.1,5.15,5.15,0,0,0,1.1-1.63,4.75,4.75,0,0,0,.41-2Z"/><polygon class="cls-1" points="33.3 15.29 13.35 17.43 24.25 1.29 33.3 15.29"/><path class="cls-1" d="M16.9,18.43V22.9l-.87,1H6v-10L7,13h7.66l2.91-5.25a11.86,11.86,0,1,0,6.15,10.57Z"/><path class="cls-1" d="M32.3,17.77l-20,.34L22,.59a.41.41,0,0,0-.16-.54.39.39,0,0,0-.54.16L13.9,13.52H7.52v8.84h8.84V18.84l16-.27a.42.42,0,0,0,.4-.41.4.4,0,0,0-.41-.39"/></g></g></svg>