<svg xmlns="http://www.w3.org/2000/svg" viewBox="0 0 270.01 133.07"><defs><style>.cls-1{fill:#35383a;}</style></defs><title>Asset 5</title><g id="Layer_2" data-name="Layer 2"><g id="Layer_1-2" data-name="Layer 1"><path class="cls-1" d="M3.07,119.73c.12-1.65.29-3.37.52-5.36A85.47,85.47,0,0,1,20.15,67.1l.08-.11c.88-1.48,1.82-3,2.78-4.47a187.46,187.46,0,0,1,15.82-21c1.27-1.47,2.59-2.94,3.91-4.4a71.17,71.17,0,0,0,5.75-5.65c3.1-3.28,6.31-6.68,10.23-8.8,1-.64,2.09-1.26,3.15-1.88L65.06,19l3.15-1.76C88.93,7.05,105.86,2.49,121.53,2.88c2,0,4,.05,5.71.1l4.26.13,4.36.14c1.44,0,2.87.08,4.29.1h.1l.11,0c16.69-2.22,34,2.37,52.79,14.05l.11.06c2,1,3.73,1.84,5.38,2.57q2.91,1.3,5.41,2.19c1.21.53,2.44,1.05,3.67,1.55s2.41,1,3.63,1.42a42.91,42.91,0,0,1,4.09,2.71,71.79,71.79,0,0,1,17.11,18.56c1,1.41,2,2.91,3.19,4.73l3.11,4.75a177.74,177.74,0,0,0,13.41,18.83c.79,1.67,1.56,3.38,2.29,5.1s1.47,3.58,2.13,5.32a127.34,127.34,0,0,1,4.21,15.57c.33,1.58.65,3.28,1,5.36.28,1.59.56,3.18.82,4.8l.36,2.15c.14.92.3,1.85.46,2.79l.1.33a42.64,42.64,0,0,1,3.58,16.77c0,.05,0,.09,0,.13H270v-.17a44.85,44.85,0,0,0-3.75-17.69q-.21-1.32-.42-2.61l-.36-2.16c-.26-1.62-.54-3.23-.83-4.83-.37-2.1-.7-3.83-1-5.43a131.59,131.59,0,0,0-4.32-16c-.68-1.81-1.42-3.64-2.19-5.46s-1.58-3.62-2.41-5.37l-.08-.17-.12-.14c-4.92-5.73-9.19-12.31-13.32-18.67q-1.55-2.4-3.11-4.77c-1.22-1.84-2.24-3.36-3.21-4.75A74.41,74.41,0,0,0,217.1,25.64a46.74,46.74,0,0,0-4.46-2.95l-.21-.09c-1.23-.46-2.45-.94-3.66-1.43s-2.41-1-3.69-1.56c-1.69-.6-3.43-1.31-5.31-2.14-1.58-.71-3.29-1.53-5.2-2.49C175.23,3,157.41-1.73,140.09.56L135.94.47,131.6.33,127.32.2c-1.71-.05-3.74-.1-5.75-.1C105.46-.31,88.12,4.35,66.92,14.77l-3.22,1.8c-1.08.61-2.16,1.22-3.23,1.84s-2.14,1.26-3.14,1.87c-4.25,2.3-7.62,5.86-10.87,9.31a68.29,68.29,0,0,1-5.58,5.49l-.13.13c-1.37,1.49-2.72,3-4,4.52A192.18,192.18,0,0,0,20.66,61c-1,1.49-1.9,3-2.78,4.48A88.23,88.23,0,0,0,.81,114.14c-.22,1.93-.4,3.69-.52,5.39Q0,123.34,0,127.12c0,2,.07,4,.19,5.95H3a97.46,97.46,0,0,1,.1-13.34"/><path class="cls-1" d="M15.28,112.65c.34-1.8.74-3.61,1.17-5.37a167.31,167.31,0,0,1,9.2-26.77c.82-1.83,1.63-3.51,2.47-5.16a87.91,87.91,0,0,1,9.23-14.54c.82-1.15,1.69-2.34,2.56-3.5C48.4,46.86,57.65,36,69.25,28.13c1.43-1,2.88-1.89,4.3-2.71,13.87-6.55,30-10.93,50.78-13.78,1.8-.09,3.68-.16,5.73-.22s3.9-.07,5.86-.09H140c17.12-1.72,33.18,5.94,45.32,12.84,2.08,1,3.82,1.88,5.48,2.64,2,.9,3.78,1.66,5.52,2.32,1.54.85,3.06,1.71,4.58,2.57l4.68,2.65c1.27.62,2.54,1.3,3.77,2s2.34,1.4,3.53,2.2c13.39,10.4,21.61,25.39,29.55,39.91.68,1.58,1.35,3.16,2,4.76s1.29,3.17,1.89,4.76c.44,1.66.87,3.36,1.27,5s.81,3.5,1.19,5.33,1,3.46,1.42,5.21.92,3.59,1.32,5.28l0,.11c.62,1.93,1.21,3.87,1.83,5.92a46.63,46.63,0,0,1,2.51,10.05,44.51,44.51,0,0,1,.49,8.14h2.79a46.61,46.61,0,0,0-.53-8.56A48.06,48.06,0,0,0,256,114q-.87-2.94-1.78-5.83c-.4-1.69-.85-3.48-1.32-5.3s-.95-3.52-1.41-5.16-.77-3.55-1.18-5.31-.86-3.5-1.31-5.2l0-.14c-.62-1.63-1.28-3.26-1.94-4.89s-1.35-3.25-2.05-4.87l-.06-.12c-7.71-14.1-16.46-30.09-30.35-40.86l-.08-.06c-1.26-.83-2.51-1.61-3.72-2.31s-2.61-1.46-3.87-2.08l-4.61-2.61-4.68-2.63-.19-.08c-1.71-.65-3.5-1.4-5.44-2.28-1.63-.75-3.34-1.57-5.32-2.56-12.43-7.07-29-14.94-46.85-13.17l-3.87,0q-3,0-5.91.09c-2.1,0-4,.13-5.87.22l-.12,0c-21.1,2.89-37.53,7.35-51.69,14.05L72.2,23c-1.49.86-3,1.82-4.52,2.84-11.91,8.09-21.32,19.12-30,29.77-.92,1.22-1.81,2.44-2.6,3.55a89.81,89.81,0,0,0-9.48,14.94c-.86,1.69-1.69,3.42-2.53,5.3a169.3,169.3,0,0,0-9.36,27.22c-.45,1.82-.86,3.68-1.21,5.53a123.91,123.91,0,0,0-2.16,20.94h2.79a120,120,0,0,1,2.11-20.42"/><path class="cls-1" d="M23.53,131.1q.31-2.9.89-5.87a36,36,0,0,1,1.76-6.44,39.66,39.66,0,0,0,1.21-4q.8-2.58,1.55-5.16l0-.12c4.75-23.3,11.74-39,22.71-51.08a98,98,0,0,1,8.19-9,94.39,94.39,0,0,1,18-13.68c1.29-.75,2.61-1.48,3.92-2.16,15.17-6.17,27.58-9.76,39-11.3q2.32-.27,4.68-.48c3.21-.29,6.48-.53,9.64-.76l4.47-.33a55.84,55.84,0,0,1,5.64.38c10.47.73,20.11,4.91,30.75,9.9l4.14,1.86.87.39c2.47,1.11,4.93,2.21,7.34,3.26Q191,37.75,193.49,39c1.57,1,3.22,2.09,5.1,3.42,2.66,1.66,5,3.25,7.31,4.88,1.19.85,2.37,1.73,3.57,2.66A63.06,63.06,0,0,1,230.39,76c.63,1.36,1.26,2.8,1.92,4.42,1.06,2.59,2.12,5.39,3.44,9.09.54,1.46,1.05,3,1.5,4.53s.83,3.07,1.22,4.78,1,3.57,1.49,5.36.93,3.59,1.4,5.47c.49,1.65,1,3.32,1.43,5a39.12,39.12,0,0,1,1,10,45.56,45.56,0,0,1-.63,8.41H246a47.25,47.25,0,0,0,.6-8.42A41.38,41.38,0,0,0,245.48,114c-.48-1.71-1-3.4-1.43-5-.46-1.84-.92-3.65-1.4-5.46s-1-3.61-1.49-5.33-.78-3.27-1.24-4.87-1-3.2-1.55-4.7C237,84.87,236,82,234.89,79.4c-.68-1.65-1.33-3.14-2-4.51a65.82,65.82,0,0,0-21.8-27.2c-1.18-.91-2.39-1.82-3.61-2.69-2.31-1.66-4.75-3.28-7.39-4.93-1.88-1.33-3.59-2.48-5.23-3.5l-.13-.08c-1.73-.83-3.48-1.66-5.26-2.47-2.43-1.06-4.87-2.16-7.33-3.27l-.87-.39-4.13-1.84c-10.87-5.1-20.76-9.38-31.65-10.14A54.64,54.64,0,0,0,139.6,18h-.12l-4.52.33c-3.17.23-6.45.47-9.69.76-1.59.15-3.18.31-4.78.5-11.72,1.57-24.36,5.23-39.78,11.5l-.11.06c-1.38.71-2.75,1.47-4.1,2.25A97.4,97.4,0,0,0,57.93,47.47a98.71,98.71,0,0,0-8.36,9.16c-14.44,15.83-20,36.25-23.32,52.28-.5,1.71-1,3.41-1.54,5.12l0,.11a38.65,38.65,0,0,1-1.14,3.75,39.42,39.42,0,0,0-1.87,6.87c-.38,2-.69,4-.91,6-.08.75-.13,1.51-.19,2.27h2.79c.05-.66.1-1.31.17-2"/><path class="cls-1" d="M35.11,125.2q.73-2.3,1.5-4.59l.81-2.38c.91-2.7,1.86-5.5,2.7-8.28s1.54-5.69,2.25-8.48c3.22-12.58,6.55-25.58,16.51-35.37L59,66c2.43-3,4.73-5.6,7-8,7.91-8.16,16.47-14.09,25.44-17.63a48.3,48.3,0,0,1,4.74-1.64c3.26-.7,6.29-1.54,9.22-2.35,2.34-.64,4.76-1.31,7.22-1.89,1.94-.43,3.52-.76,4.95-1,1.78-.33,3.37-.59,4.88-.78,1.71-.22,3.28-.34,4.8-.39l.25,0a41.89,41.89,0,0,1,5-.75,46.61,46.61,0,0,1,11.07.37c1.75.26,3.58.62,5.45,1.07,8.34,1.89,16.49,5.6,24.38,9.18,3.84,1.74,7.81,3.54,11.73,5.11L190,49.31c1.35.89,2.71,1.86,4.15,3s2.87,2.23,4.51,3.58l.19.13c10.29,6,17.58,13.16,21.71,21.48.87,1.5,1.66,3,2.37,4.54a56.43,56.43,0,0,1,2.78,7.13q.75,2.87,1.45,5.75c.51,2.11.95,4,1.35,5.85l0,.15c1,3,1.87,5.68,2.6,8.21.41,1.38.79,2.76,1.14,4.13l0,.1c2.27,6.64,1.85,13.12.67,19.75h2.83c1.14-6.72,1.53-13.59-.84-20.6-.36-1.38-.75-2.77-1.15-4.16-.74-2.55-1.6-5.25-2.62-8.25-.39-1.82-.83-3.73-1.34-5.84-.48-1.93-1-3.86-1.48-5.85a58.36,58.36,0,0,0-2.94-7.55c-.74-1.58-1.57-3.18-2.44-4.68-4.32-8.71-11.94-16.28-22.67-22.51-1.63-1.35-3.1-2.52-4.5-3.58s-3-2.19-4.42-3.14l-.22-.12-5-2.1c-3.9-1.56-7.84-3.35-11.65-5.08-8-3.64-16.3-7.4-24.89-9.35-1.94-.47-3.85-.85-5.68-1.12a49.52,49.52,0,0,0-11.73-.39,45.46,45.46,0,0,0-5.23.78c-1.57,0-3.19.18-4.94.4-1.56.2-3.22.47-5,.82-1.46.27-3.06.61-5,1.05-2.53.59-5,1.26-7.34,1.92-2.89.79-5.89,1.62-9.16,2.33a49.84,49.84,0,0,0-5.09,1.75C81.07,41.48,72.19,47.63,64,56.08c-2.33,2.4-4.66,5.05-7.13,8.08C46.4,74.49,43,87.86,39.67,100.78c-.7,2.77-1.44,5.64-2.22,8.38s-1.77,5.49-2.67,8.18L34,119.73q-.8,2.37-1.55,4.74l-.05.23c-.39,2.82-.63,5.61-.75,8.37h2.8c.11-2.6.33-5.22.69-7.87"/><path class="cls-1" d="M47.39,121.33c.48-2.13,1-4.28,1.55-6.35.37-1.47.74-2.94,1.09-4.38.77-3.12,1.71-6.83,2.83-10.59l0-.1c1.87-8.49,6.22-17,12.94-25.31,1-1.24,2.06-2.48,3.17-3.7A81.38,81.38,0,0,1,93.68,52c1.56-.77,3.17-1.5,4.68-2.12,10.54-3.54,21.9-6.84,33.58-7.14,1.65,0,3.31,0,4.84.06,1.94.2,3.87.43,5.71.7s3.41.62,5.1,1a59.33,59.33,0,0,1,7.71,2,57.89,57.89,0,0,0,7.12,1.86c1.57.51,3.14,1,4.65,1.61a91.92,91.92,0,0,1,13.4,6.18c1.65.93,3.3,1.93,4.89,3s3.2,2.17,4.72,3.32l.25.15c1.07.5,2.14,1,3.16,1.61a46.43,46.43,0,0,1,13.23,11,47.36,47.36,0,0,1,5.62,8.52,88.45,88.45,0,0,1,4,11.62c.35,1.29.69,2.63,1,4,.81,3.14,1.66,6.49,2.45,9.88.39,1.65.76,3.31,1.12,5a71,71,0,0,1,2.29,18.89H226a73.33,73.33,0,0,0-2.35-19.51c-.36-1.68-.73-3.36-1.13-5-.8-3.41-1.65-6.77-2.45-9.9-.33-1.39-.67-2.76-1-4.08a90.29,90.29,0,0,0-4.2-12.08,49.94,49.94,0,0,0-6-9.11,49.35,49.35,0,0,0-14-11.64c-1-.58-2.12-1.13-3.21-1.64-1.54-1.15-3.13-2.27-4.75-3.33s-3.35-2.1-5-3.07A95.37,95.37,0,0,0,168,47.32c-1.58-.59-3.22-1.15-4.86-1.68l-.2,0a54.73,54.73,0,0,1-6.87-1.8,60.81,60.81,0,0,0-8-2c-1.66-.34-3.39-.66-5.16-1S139,40.25,137,40c-1.68-.08-3.4-.11-5.13-.06-12.05.3-23.65,3.67-34.48,7.31-1.66.68-3.32,1.43-5,2.23A84.33,84.33,0,0,0,66.92,69c-1.13,1.25-2.22,2.53-3.25,3.81-7,8.62-11.52,17.51-13.49,26.41-1.14,3.81-2.09,7.53-2.86,10.69-.35,1.43-.71,2.88-1.08,4.34-.54,2.1-1.08,4.26-1.57,6.43a68.16,68.16,0,0,0-1.76,12.35H45.7a65,65,0,0,1,1.69-11.74"/><path class="cls-1" d="M57.45,122.21c.14-1.93.36-3.84.66-5.67s.68-3.74,1.14-5.54a115.63,115.63,0,0,1,8.86-20.26C69,89.1,70,87.52,70.93,86.11A80.86,80.86,0,0,1,91.28,67.18c1.56-1,3.17-2,4.77-3a84.47,84.47,0,0,1,28.21-10.1c1.42-.22,2.84-.41,4.23-.55C146,52,162.73,59,175.33,65.32c1.63.86,3.23,1.76,4.73,2.68s3.1,2,4.62,3.07c1,.62,1.91,1.28,2.82,2a50.67,50.67,0,0,1,9.58,9.38,51.76,51.76,0,0,1,5.29,8.32,78.17,78.17,0,0,1,3.38,9.07c.5,1.64.87,3.1,1.15,4.47a107.72,107.72,0,0,0,2.56,18.08c.72,3.63,1.42,7.18,1.9,10.72h2.81c-.5-3.8-1.24-7.56-2-11.27a106.19,106.19,0,0,1-2.51-17.73l0-.23c-.3-1.49-.71-3.08-1.25-4.86a81.51,81.51,0,0,0-3.52-9.45,55.08,55.08,0,0,0-5.61-8.84,53.51,53.51,0,0,0-10.11-9.89c-1-.72-2-1.41-2.92-2-1.52-1.09-3.11-2.15-4.73-3.14s-3.21-1.89-4.91-2.79c-13-6.49-30.18-13.73-48.39-12-1.45.14-2.93.34-4.4.57A87,87,0,0,0,94.67,61.81c-1.67,1-3.32,2-4.93,3A83.59,83.59,0,0,0,68.65,84.51c-1,1.53-2,3.16-3,4.86a119.2,119.2,0,0,0-9.09,20.79l0,.1c-.49,1.89-.9,3.86-1.21,5.83s-.54,3.91-.69,5.92c-.14,1.85-.21,3.75-.21,5.68,0,1.76.08,3.56.19,5.38h2.8a77.15,77.15,0,0,1,0-10.86"/><path class="cls-1" d="M68.26,131.42a17,17,0,0,1-.25-5.59l0-.26c0-1.57.07-3.15.19-4.7s.31-3.18.55-4.68a64.33,64.33,0,0,1,5.77-16.74c.88-1.74,1.86-3.46,2.89-5.09A85.91,85.91,0,0,1,97.56,77c1.63-1,3.16-2,4.71-2.82a74.45,74.45,0,0,1,16.5-7.2c1.14-.34,2.31-.66,3.56-1,19.5-5.92,37.36,3.13,55.46,13.77,1.33,1.07,2.67,2.28,4.27,3.83a40.08,40.08,0,0,1,6.11,6.87q1.26,1.78,2.45,3.83,1.09,1.88,2.13,4c.32.74.69,1.5,1.06,2.27s.79,1.61,1.13,2.42a25.86,25.86,0,0,1,.46,6.84,26,26,0,0,0,.83,8.64l.11.52c1,4.79,2,9.49,2.58,14.12h2.82c-.62-4.83-1.64-9.71-2.67-14.69l-.13-.6,0-.16a23.08,23.08,0,0,1-.71-7.78,28.1,28.1,0,0,0-.58-7.69l-.06-.18c-.38-.92-.81-1.8-1.23-2.66s-.71-1.44-1-2.21c-.75-1.53-1.49-2.91-2.25-4.23s-1.7-2.78-2.59-4A42.89,42.89,0,0,0,184,81.53c-1.65-1.59-3.08-2.87-4.5-4l-.17-.12c-17.94-10.56-37.18-20.34-57.7-14.11-1.21.29-2.43.62-3.61,1a77.15,77.15,0,0,0-17.09,7.46c-1.57.88-3.15,1.82-4.83,2.89a89,89,0,0,0-20.83,18l-.1.14c-1.1,1.74-2.13,3.55-3.07,5.4a67.45,67.45,0,0,0-6,17.51c-.26,1.62-.46,3.28-.59,5s-.19,3.18-.2,4.78a12.64,12.64,0,0,0-.18,2.12,29.28,29.28,0,0,0,.43,4.29c.06.42.12.82.17,1.23h2.82c-.07-.55-.15-1.11-.23-1.65"/><path class="cls-1" d="M78.07,125.3a71.33,71.33,0,0,1,2.37-11.84A46.19,46.19,0,0,1,85.52,101a31.93,31.93,0,0,1,2.42-3.49c4-4.52,9.4-8.5,16.35-12.16,1.55-.81,3.16-1.6,4.74-2.32,1.25-.51,2.51-1,3.78-1.57l2-.83c1.62-.67,3.75-1.55,5.91-2.37l.14-.06c14.92-7.66,33-4.33,49.54,9.15a39.7,39.7,0,0,1,4.28,3.73,51.21,51.21,0,0,1,3.74,4.17c.77,1,1.52,2,2.27,3a25.9,25.9,0,0,1,1.87,2.85A25.35,25.35,0,0,1,184,104l.54,3.28a226.32,226.32,0,0,1,3.23,25.76h2.79a227.73,227.73,0,0,0-3.27-26.21l-.56-3.43-.09-.3A28.55,28.55,0,0,0,185,99.79,26.68,26.68,0,0,0,183,96.67c-.75-1.08-1.54-2.13-2.35-3.14a54.8,54.8,0,0,0-3.94-4.39,41.72,41.72,0,0,0-4.53-4C154.72,71,135.6,67.58,119.67,75.72c-2.18.82-4.3,1.69-5.92,2.36l-2,.84-3.82,1.58c-1.67.77-3.33,1.58-4.93,2.42A60,60,0,0,0,85.82,95.73a34.45,34.45,0,0,0-2.68,3.87,48.57,48.57,0,0,0-5.39,13.14A74.21,74.21,0,0,0,75.3,125a67,67,0,0,0-.42,7.42c0,.22,0,.44,0,.66h2.79a64.18,64.18,0,0,1,.39-7.77"/><path class="cls-1" d="M87.47,132.52a44.26,44.26,0,0,1,.88-10.81c1-4.8,3.14-11.52,7.4-16.27a18.49,18.49,0,0,1,3-2.68,83.23,83.23,0,0,0,10.68-5.23c2.51-1.38,5.11-2.81,7.85-4.07,1.7-.8,3.4-1.54,5-2.21l.14-.07c12.89-7,31.46-8.64,41.78,4.22l.12.14c.94.89,1.77,1.73,2.54,2.57s1.58,1.78,2.33,2.73a37.74,37.74,0,0,1,2.37,3.34q.65,2.13,1.32,4.32l.08.26,1.48,4.84c.4,1.56.83,3.12,1.26,4.69a123,123,0,0,1,3.37,14.78h2.83a124,124,0,0,0-3.52-15.52c-.42-1.55-.84-3.1-1.26-4.71s-1-3.28-1.5-4.9l-.08-.26c-.46-1.51-.92-3-1.36-4.48l-.15-.33a40.74,40.74,0,0,0-2.65-3.76c-.79-1-1.62-2-2.47-2.89s-1.65-1.73-2.6-2.63c-11.3-14-31.3-12.37-45.15-4.89-1.67.68-3.38,1.43-5.09,2.23-2.82,1.3-5.47,2.75-8,4.16a80.32,80.32,0,0,1-10.47,5.13l-.31.16a20.61,20.61,0,0,0-3.59,3.2c-4.67,5.21-7,12.42-8,17.56a46.16,46.16,0,0,0-1,9.56c0,.64,0,1.29,0,1.93,0,.15,0,.29,0,.44H87.5c0-.19,0-.37,0-.55"/><path class="cls-1" d="M98.08,127.69c1.1-10.42,9.63-17.33,17-22.2a41.9,41.9,0,0,1,3.59-2.19,44.85,44.85,0,0,1,5.77-2.64,44.36,44.36,0,0,1,6.12-1.81c6.83-1.76,16.59-2.47,24.24,4.1l.09.07c1,.75,2,1.54,2.95,2.37a37.77,37.77,0,0,1,5.07,5.49,43.24,43.24,0,0,1,5.6,9.69c.48,1.16.91,2.34,1.28,3.52l0,.1a24.8,24.8,0,0,1,1.4,8.88H174a27.3,27.3,0,0,0-1.59-9.86c-.39-1.25-.84-2.49-1.35-3.71a45.85,45.85,0,0,0-5.95-10.3,40.63,40.63,0,0,0-5.44-5.9c-1-.87-2-1.71-3.12-2.5-6.68-5.71-16.16-7.36-26.65-4.66a45.42,45.42,0,0,0-6.46,1.91,48.45,48.45,0,0,0-6.13,2.8c-1.31.72-2.59,1.5-3.8,2.33-7.21,4.79-16.94,12.51-18.17,24.29,0,.51,0,1,0,1.54a29.29,29.29,0,0,0,.29,4.06h2.8a27.09,27.09,0,0,1-.28-5.38"/><path class="cls-1" d="M110.88,123.38a19,19,0,0,1,10.29-12.31,30.27,30.27,0,0,1,9.61-3.32l.17,0c7.89-2.38,16.58.72,23.26,8.3a38.32,38.32,0,0,1,3.35,4.33l.12.16c3.43,3.84,4.75,8.07,4,12.57h2.84c.77-5.17-.79-10-4.66-14.36a42.31,42.31,0,0,0-3.52-4.55c-7.39-8.39-17.13-11.8-26.07-9.15a33.33,33.33,0,0,0-10.35,3.59,21.68,21.68,0,0,0-11.71,14.11l0,.14a49.14,49.14,0,0,0-.7,8c0,.73,0,1.47.07,2.21h2.79a44,44,0,0,1,.58-9.69"/><path class="cls-1" d="M119.82,128a13,13,0,0,1,5.31-9.34l.11-.08a18.45,18.45,0,0,1,3.25-2.22,8.7,8.7,0,0,1,6.75-.92,27.41,27.41,0,0,1,10.15,6.29,23.11,23.11,0,0,1,2.58,3.06l.14.18a8.35,8.35,0,0,1,2.52,6,8.44,8.44,0,0,1,0,.87,8.58,8.58,0,0,1-.2,1.2h2.85c0-.32.1-.63.13-.94a11.22,11.22,0,0,0-3.18-9,25.61,25.61,0,0,0-2.83-3.35,30.23,30.23,0,0,0-11.25-7,11.56,11.56,0,0,0-8.92,1.1,21.41,21.41,0,0,0-3.68,2.5,15.73,15.73,0,0,0-6.45,11.26,20.3,20.3,0,0,0-.18,2.7,21.81,21.81,0,0,0,.19,2.68h2.83a18.85,18.85,0,0,1-.08-5"/><path class="cls-1" d="M129.66,131.11V131a5.51,5.51,0,0,1,1.37-3.49,4.77,4.77,0,0,1,4.05-.46,5.58,5.58,0,0,1,3.27,2.8,4.94,4.94,0,0,1,.36,3,2.1,2.1,0,0,1-.06.24h2.83a7.58,7.58,0,0,0-.63-4.46,8.26,8.26,0,0,0-4.92-4.21,7.6,7.6,0,0,0-6.57.87l-.21.17a8.13,8.13,0,0,0-2.27,5.41q0,.35,0,.69a7.23,7.23,0,0,0,.16,1.53h2.88a4.61,4.61,0,0,1-.23-2"/></g></g></svg>