<svg xmlns="http://www.w3.org/2000/svg" viewBox="0 0 72.74 68.96"><defs><style>.cls-1{fill:none;stroke:#9d9fa1;stroke-miterlimit:10;stroke-width:1.92px;}.cls-2{fill:#484c50;}.cls-3{fill:#d9dad9;}.cls-4{fill:#c1c1c1;}</style></defs><title>Asset 3</title><g id="Layer_2" data-name="Layer 2"><g id="Layer_1-2" data-name="Layer 1"><path class="cls-1" d="M16.91,23.71A22.78,22.78,0,0,1,39.66,1H50.29V9.81H39.66a13.9,13.9,0,1,0,0,27.8H50.29v8.85H39.66A22.77,22.77,0,0,1,16.91,23.71Z"/><path class="cls-2" d="M72.74,42.37A22.77,22.77,0,0,1,50,65.12H39.37V56.27H50a13.9,13.9,0,0,0,0-27.8H39.37V19.62H50A22.77,22.77,0,0,1,72.74,42.37"/><path class="cls-3" d="M3.08,62.8A3.08,3.08,0,1,1,0,65.88,3.08,3.08,0,0,1,3.08,62.8"/><path class="cls-4" d="M15.5,62.8a3.08,3.08,0,1,1-3.08,3.08A3.08,3.08,0,0,1,15.5,62.8"/><path class="cls-3" d="M27.91,62.8a3.08,3.08,0,1,1-3.08,3.08,3.07,3.07,0,0,1,3.08-3.08"/><path class="cls-3" d="M3.08,50.87A3.09,3.09,0,1,1,0,54a3.08,3.08,0,0,1,3.08-3.08"/><path class="cls-4" d="M15.5,50.87A3.09,3.09,0,1,1,12.42,54a3.08,3.08,0,0,1,3.08-3.08"/><path class="cls-3" d="M27.91,50.87A3.09,3.09,0,1,1,24.83,54a3.07,3.07,0,0,1,3.08-3.08"/></g></g></svg>