<svg xmlns="http://www.w3.org/2000/svg" viewBox="0 0 103.4 74.16"><defs><style>.cls-1,.cls-2{fill:none;stroke-miterlimit:10;}.cls-1{stroke:#c1c1c1;stroke-width:1.44px;}.cls-2{stroke:#484c50;stroke-width:2.16px;}.cls-3{fill:#484c50;}.cls-4{fill:#c1c1c1;}.cls-5{fill:#9d9fa1;}.cls-6{fill:#737578;}</style></defs><title>Asset 5</title><g id="Layer_2" data-name="Layer 2"><g id="Layer_1-2" data-name="Layer 1"><circle class="cls-1" cx="57.97" cy="37.08" r="24.28" transform="translate(12.08 88.36) rotate(-80.78)"/><circle class="cls-2" cx="57.97" cy="37.08" r="36"/><path class="cls-3" d="M58,26.92A10.16,10.16,0,1,1,47.81,37.08,10.16,10.16,0,0,1,58,26.92"/><path class="cls-4" d="M34.81,31.74a5.34,5.34,0,1,1-5.34,5.34,5.34,5.34,0,0,1,5.34-5.34"/><path class="cls-5" d="M13.68,23.4A13.68,13.68,0,1,1,0,37.08,13.68,13.68,0,0,1,13.68,23.4"/><polygon class="cls-6" points="76.11 37.08 103.4 53.58 103.4 20.59 76.11 37.08"/></g></g></svg>