<svg xmlns="http://www.w3.org/2000/svg" viewBox="0 0 77 78"><defs><style>.cls-1{fill:#d9dad9}.cls-2{fill:none;stroke:#484c50;stroke-miterlimit:10;stroke-width:1.99px}.cls-3{fill:#888a8c}.cls-4{fill:#b2b4b5}</style></defs><title>Asset 2</title><g id="Layer_2" data-name="Layer 2"><g id="Layer_1-2" data-name="Layer 1"><path d="M76.71,38.83a.29.29,0,0,1-.28-.29c0-.14,0-.28,0-.43s0-.57,0-.84l-.21-1.19c-.07-.4-.14-.8-.2-1.2l-.06-.33c-.12-.69-.23-1.39-.36-2.09-.06-.36-.12-.73-.19-1.09s-.13-.72-.2-1.08-.16-.74-.25-1.12-.2-.74-.29-1.07c-.44-.89-.89-1.77-1.33-2.62L73.05,25l-.54-1c-.4-.78-.79-1.58-1.17-2.43-.13-.27-.25-.55-.37-.83l0,0c-.09-.37-.19-.72-.3-1.06s-.23-.7-.35-1v0a7.91,7.91,0,0,0-.42-1.15,11,11,0,0,0-.55-1.08,8,8,0,0,0-1.46-2c-.19-.2-.4-.39-.64-.6-.89-.8-1.75-1.64-2.58-2.46l-.11-.11c-.25-.24-.49-.49-.75-.73s-.49-.44-.79-.68c-.5-.37-1.08-.75-1.81-1.2l-1.13-.69-.75-.45,0,0A24.85,24.85,0,0,0,49.15,2.39h0l-.29-.1L48.13,2c-.6-.24-1.21-.46-1.83-.65l-.92-.26A17,17,0,0,0,39.51.66c-.29.07-.59.15-.89.21-.84.2-1.73.36-2.71.51l-1.07.17-.13,0c-.78.15-1.63.27-2.75.38L31,2h0a14.91,14.91,0,0,0-3.48.33c-.38.08-.75.17-1.14.28A50.4,50.4,0,0,0,17.5,7.09l-1,.59a26.65,26.65,0,0,0-7.76,7.24c-.23.32-.44.65-.65,1C7,18.84,5.69,22.18,3.32,24.82a6.24,6.24,0,0,0-.76,1.43c-.09.25-.19.51-.27.78s-.15.46-.25.78-.17.61-.25.93l-.21,1.31c-.34,2.16-.7,4.38-.9,6.61,0,.42-.06.8-.08,1.15l0,.73a.29.29,0,0,1-.28.29h0a.3.3,0,0,1-.28-.3c0-.25,0-.5,0-.75s.05-.74.09-1.17c.2-2.25.56-4.48.9-6.65l.21-1.32v0c.08-.33.17-.66.26-1s.17-.57.25-.8.19-.55.28-.8a7.12,7.12,0,0,1,.83-1.58l0,0c2.32-2.56,3.59-5.86,4.71-8.78l0-.05c.21-.33.44-.68.68-1a27.16,27.16,0,0,1,7.93-7.4l1-.59a50.71,50.71,0,0,1,9-4.5c.42-.12.81-.22,1.2-.3A16,16,0,0,1,31,1.45l.91-.08A23.58,23.58,0,0,0,34.61,1l.14,0L35.82.81c1-.14,1.85-.31,2.68-.5L39.38.1h0a17.3,17.3,0,0,1,6.1.49l.94.26a18.81,18.81,0,0,1,1.87.67l.69.23.27.1A25.36,25.36,0,0,1,59.62,7l.72.44,1.14.69c.74.46,1.33.85,1.87,1.24l.82.7.76.75.11.11c.83.81,1.68,1.65,2.57,2.44.24.21.46.42.66.62a8.71,8.71,0,0,1,1.55,2.09,12,12,0,0,1,.58,1.12,11.13,11.13,0,0,1,.44,1.22q.19.51.36,1c.11.34.21.7.3,1.06l.36.8c.38.85.76,1.64,1.16,2.41l.54,1,.23.45c.44.86.91,1.75,1.35,2.65v0c.1.35.2.71.3,1.13s.18.77.26,1.13l.21,1.1c.07.36.13.73.19,1.1l.36,2.08,0,.33c.07.4.14.8.2,1.2s.15.8.22,1.2v0c0,.29,0,.58,0,.88,0,.15,0,.3,0,.45a.3.3,0,0,1-.29.29Z" class="cls-1"/><path d="M2.67,38.83h0a.29.29,0,0,1-.24-.32c0-.19.05-.37.08-.55v0a18.49,18.49,0,0,0,.28-3.67,21.6,21.6,0,0,1,.18-3.09c0-.25,0-.5.07-.76a11.79,11.79,0,0,1,.63-2.82,8.17,8.17,0,0,1,.4-.9A6.94,6.94,0,0,1,5.08,25l0,0a14.8,14.8,0,0,0,3.81-6.7,3.79,3.79,0,0,1,.94-2.08,19.75,19.75,0,0,1,1.52-2,23,23,0,0,1,5.82-4.88l.94-.55.5-.28c.76-.43,1.54-.87,2.25-1.37l0,0L22,6.42A25.57,25.57,0,0,1,28,4h0l1.12-.17a32.05,32.05,0,0,1,3.35-.23l1.08-.18c.82-.15,1.65-.32,2.45-.51l.81-.2a18.4,18.4,0,0,1,10.38.37l1,.27a21.66,21.66,0,0,1,9.92,4.85l1.06.75.94.66c.71.5,1.36,1,2,1.43l0,0c.31.29.59.56.86.84s.52.51.77.77c.79.8,1.56,1.62,2.28,2.39l.74.75.72.77v0a11.33,11.33,0,0,1,.73,1,11.81,11.81,0,0,1,.61,1.1c.2.37.37.74.53,1.11s.31.76.44,1.16l.19.43c.11.24.22.47.32.71l0,.12c.32.71.64,1.45,1,2.15l.41,1c.21.51.42,1,.62,1.54s.39.95.58,1.43v0c.12.41.23.79.33,1.16l.29,1.17.21,1c.06.34.13.67.2,1l.14.76c.1.5.2,1,.29,1.5l.24,1.13.1.52c0,.2.07.4.11.6v0c0,.23,0,.48,0,.75v0c0,.16,0,.31,0,.47a.28.28,0,0,1-.31.26.28.28,0,0,1-.26-.31c0-.15,0-.3,0-.46s0-.47,0-.69l-.12-.58-.1-.51c-.08-.38-.15-.76-.23-1.13s-.2-1-.29-1.51l-.15-.76c-.06-.34-.13-.67-.2-1s-.13-.66-.2-1-.19-.78-.29-1.15l-.31-1.14c-.2-.47-.39-.94-.58-1.42l-.62-1.53c-.13-.33-.27-.66-.41-1-.34-.7-.66-1.44-1-2.16l0-.12-.32-.71-.21-.47c-.13-.38-.27-.76-.43-1.12s-.32-.72-.51-1.08a11,11,0,0,0-.59-1.06c-.22-.34-.44-.66-.69-1s-.44-.49-.7-.75l-.74-.75c-.72-.78-1.48-1.59-2.27-2.39l-.77-.77c-.26-.27-.53-.53-.83-.81l-2-1.41-.94-.66-1.08-.76h0A21,21,0,0,0,48,3.89h0l-1-.27h0a17.81,17.81,0,0,0-10.06-.36l-.8.2c-.82.19-1.66.37-2.49.51l-1.12.19h0a31.27,31.27,0,0,0-3.31.23l-1.08.16A25.48,25.48,0,0,0,22.3,6.92l-1.09.61a26.15,26.15,0,0,1-2.3,1.4l-.49.28c-.36.2-.66.38-.93.55a22.09,22.09,0,0,0-5.69,4.75,21.68,21.68,0,0,0-1.48,2l0,0a3.31,3.31,0,0,0-.82,1.81v0a15.4,15.4,0,0,1-4,7,7,7,0,0,0-1,1.58v0a7.11,7.11,0,0,0-.37.84,11.69,11.69,0,0,0-.6,2.69c0,.24-.05.5-.07.75a22.43,22.43,0,0,0-.17,3A20.41,20.41,0,0,1,3,38v0c0,.18,0,.37-.08.55a.29.29,0,0,1-.28.25" class="cls-1"/><path d="M4.86,38.83h0a.3.3,0,0,1-.27-.31c.1-1.55.11-3.12.11-4.64,0-.67,0-1.33,0-2q0-.57.09-1.08a12.19,12.19,0,0,1,.52-2.6,7.8,7.8,0,0,1,.31-.82l0-.05c.37-.53.76-1.06,1.14-1.57l.08-.11a21.92,21.92,0,0,0,3.7-6.35c.28-.63.56-1.28.86-1.91l0,0a12.57,12.57,0,0,1,1.29-1.64,22.43,22.43,0,0,1,4.69-3.65l1-.64,1-.64c1.16-.74,2.36-1.48,3.52-2.2l1.47-.9h0l1-.49A19.88,19.88,0,0,1,28.5,6c.39-.08.78-.16,1.2-.23.91-.16,1.83-.3,2.71-.43l.82-.12,1.27-.19h.13l.82-.12.35-.05.6-.09a21.05,21.05,0,0,1,11.38.71l1.13.32a18.29,18.29,0,0,1,6.94,3.35c.53.32,1.08.62,1.62.92l.17.09c.62.34,1.23.68,1.83,1,.32.23.62.47.92.73a23.75,23.75,0,0,1,3.19,3.6l.57.73c.23.25.46.49.68.7l0,0c.22.28.45.58.73,1s.45.65.68,1l.55.83c.34.54.68,1.12,1,1.71.15.26.28.5.4.72s.25.48.37.73L69.13,24a26.33,26.33,0,0,1,1.71,4.55q.15.47.3,1l.3,1v0c.07.31.14.62.2.93s.13.62.18.93c.15.74.29,1.51.41,2.29.07.38.12.77.18,1.15s.09.79.12,1.17,0,.89,0,1.33v.09a.66.66,0,0,1,0,.14.27.27,0,0,1-.3.26.28.28,0,0,1-.27-.3c0-.05,0-.1,0-.15V38.3c0-.41,0-.84,0-1.26s-.07-.75-.12-1.13-.11-.76-.17-1.14c-.13-.77-.26-1.53-.41-2.27l-.18-.93c-.06-.3-.13-.6-.2-.9l-.3-1-.3-1a26.68,26.68,0,0,0-1.68-4.46c-.17-.35-.34-.71-.53-1.06s-.24-.5-.36-.72-.24-.45-.39-.71c-.33-.58-.67-1.15-1-1.68-.17-.27-.35-.54-.53-.81s-.45-.66-.68-1-.48-.66-.7-.93-.45-.46-.69-.73l-.59-.75A23.62,23.62,0,0,0,60,12.39a10.67,10.67,0,0,0-.86-.68c-.57-.35-1.17-.68-1.79-1l-.16-.09c-.55-.3-1.12-.61-1.67-.94l0,0a17.9,17.9,0,0,0-6.75-3.26l-1.15-.32h0A20.46,20.46,0,0,0,36.5,5.37l-.62.09-.35,0-.82.11-.13,0-1.26.19L32.5,6c-.89.13-1.8.26-2.7.42l-1.17.23a19.6,19.6,0,0,0-3,1.12c-.31.14-.62.3-1,.47l-1.45.9c-1.17.71-2.37,1.45-3.52,2.19l-1,.64-1,.64a22.23,22.23,0,0,0-4.59,3.56,12.78,12.78,0,0,0-1.22,1.55c-.29.61-.57,1.25-.84,1.87A22.48,22.48,0,0,1,7.29,26l0,.07c-.37.5-.76,1-1.12,1.53-.1.24-.19.49-.28.75a12.37,12.37,0,0,0-.49,2.48c0,.33-.06.68-.08,1,0,.64,0,1.3,0,2,0,1.53,0,3.11-.1,4.68a.3.3,0,0,1-.29.27" class="cls-1"/><path d="M70,38.83h0a.29.29,0,0,1-.28-.3v-.67c0-.24,0-.47,0-.69s0-.61-.06-1V36l-.06-.74c0-.31-.06-.63-.09-.93s-.08-.63-.13-.92-.12-.53-.19-.8a8.82,8.82,0,0,1-.22-1c-.1-.44-.21-.88-.33-1.33s-.18-.63-.29-1-.21-.53-.32-.84l-.21-.58-.1-.27a17.05,17.05,0,0,0-1.76-3.82l-.41-.7c-.43-.75-.85-1.42-1.27-2.06l-.68-1,0,0c-.39-.61-.8-1.23-1.21-1.83l-.63-.9-.48-.62-.09-.11-.4-.54,0,0a10.94,10.94,0,0,0-3.15-3,12,12,0,0,0-1.14-.53l-.08,0-.7-.3A13.3,13.3,0,0,1,54,11.49c-.51-.23-1-.49-1.58-.8-.3-.14-.61-.32-.9-.48a8.58,8.58,0,0,0-1.58-.78h0c-.34-.15-.69-.29-1-.42s-.69-.25-1.05-.36l-1-.32h0a21.91,21.91,0,0,0-10.32-1l-.83.08c-1.14.13-2.25.3-3.29.5l-1,.2c-.37,0-.73.12-1.11.2s-.71.16-1.07.25a22,22,0,0,0-2.82,1.1l-.88.43-.61.44-1.2.87L22.07,12.6c-.65.52-1.34,1.05-2,1.55-.32.24-.62.45-.93.65l0,0a14.6,14.6,0,0,0-5,3.44q-.4.43-.78.9A29.3,29.3,0,0,0,11.85,22l-.45.92c-.17.35-.33.67-.49.95A18.28,18.28,0,0,1,9.49,26l-.65.91c-.19.28-.34.52-.48.75a10,10,0,0,0-1.12,6.49v0l0,.93c0,1,.05,2.07.05,3.41a.29.29,0,1,1-.58,0c0-1.33,0-2.41,0-3.39,0-.3,0-.6,0-.91A10.67,10.67,0,0,1,7.87,27.4c.14-.24.3-.5.5-.78S8.81,26,9,25.7a19,19,0,0,0,1.38-2.1c.15-.28.3-.59.48-.94s.3-.61.44-.91a30.93,30.93,0,0,1,1.53-2.9l0,0c.26-.32.54-.64.82-.94a15.14,15.14,0,0,1,5.13-3.57c.29-.19.58-.4.88-.62.68-.5,1.36-1,2-1.54.49-.39,1-.78,1.52-1.17l1.2-.88.63-.45,0,0c.29-.15.59-.3.93-.45a22.7,22.7,0,0,1,2.9-1.13l1.12-.27c.38-.08.76-.14,1.12-.2l1-.2c1.06-.2,2.18-.37,3.33-.5l.82-.08a22.78,22.78,0,0,1,10.59,1L48,8.1l1.07.37c.36.13.71.28,1.05.42a9.24,9.24,0,0,1,1.67.82c.29.16.59.33.88.47.58.31,1.07.56,1.56.79a10.24,10.24,0,0,0,1.57.61l0,0,.7.3.08,0a12.06,12.06,0,0,1,1.21.57h0a11.5,11.5,0,0,1,3.32,3.11l.4.54.09.12c.16.2.31.41.47.62s.43.59.65.92c.42.6.83,1.23,1.22,1.83l0,0c.22.31.46.66.69,1,.42.64.85,1.32,1.29,2.08.14.23.27.47.4.7a17.29,17.29,0,0,1,1.82,3.94l.09.24.21.58c.1.28.21.56.32.84v0c.12.37.21.7.3,1,.13.47.24.93.34,1.37v0a8.78,8.78,0,0,0,.21,1c.07.29.15.58.19.86s.1.62.14.94.07.63.09,1l.06.75,0,.21c0,.36,0,.66.06,1s0,.45,0,.7,0,.48,0,.7a.29.29,0,0,1-.28.29" class="cls-1"/><path d="M9.5,38.83h0a.31.31,0,0,1-.29-.3c0-.4,0-.8,0-1.2s0-.7-.07-1.08c-.89-3.48.08-7.2,2.74-10.46.21-.36.38-.69.53-1a7.89,7.89,0,0,0,.42-1.07l0,0c.1-.24.21-.47.32-.7.31-.67.66-1.38,1.05-2v0c.22-.33.46-.66.71-1a11.28,11.28,0,0,1,4.69-3.65c.35-.21.67-.4,1-.6a15.63,15.63,0,0,0,3.52-2.84l0,0c.31-.26.64-.5,1-.75s.72-.46,1.05-.65h0l.78-.3c.79-.31,1.64-.63,2.44-.88.35-.11.73-.22,1.11-.31a32.74,32.74,0,0,1,3.72-.61h.08c.57-.07,1.15-.14,1.72-.23.35-.1.72-.19,1.09-.26s.7-.1,1.1-.14c2.42-.39,4.74.34,7,1.05l.64.21,1.18.36.89.26a5.34,5.34,0,0,1,1.17.33c.35.14.68.3,1.07.5a9,9,0,0,1,.81.47,6.56,6.56,0,0,0,1.08.56l0,0,.95.45c.87.4,1.81.8,3,1.24l0,0a5.63,5.63,0,0,1,.89.61c.18.15.36.29.53.41l0,0c.28.23.57.49.85.76s.53.53.8.82a26.94,26.94,0,0,1,2.72,3.71l.68.94a41.92,41.92,0,0,1,2.9,5v0l.11.26c.06.17.13.34.19.5l.3.76c.09.26.19.51.28.77A17.75,17.75,0,0,1,67,30.88c.16.66.29,1.38.42,2.2s.2,1.46.29,2.18.18,1.44.29,2.15v0c0,.4,0,.76.06,1.1a.31.31,0,0,1-.29.3h0a.29.29,0,0,1-.29-.29c0-.32,0-.67-.05-1.06-.11-.71-.2-1.44-.29-2.15s-.18-1.45-.29-2.17-.26-1.5-.41-2.14a15.27,15.27,0,0,0-.66-2.1c-.09-.26-.18-.51-.28-.76s-.19-.51-.29-.76-.13-.33-.2-.5l-.1-.25a39.18,39.18,0,0,0-2.86-4.91l-.67-.94v0a25.77,25.77,0,0,0-2.67-3.63c-.25-.28-.51-.55-.77-.8s-.54-.5-.81-.72-.38-.28-.56-.43a6.25,6.25,0,0,0-.77-.55c-1.16-.44-2.1-.84-3-1.25l-1-.45a8.11,8.11,0,0,1-1.17-.61,8.19,8.19,0,0,0-.77-.45c-.31-.15-.67-.33-1-.48a4.76,4.76,0,0,0-1.05-.29h0l-.92-.27-1.18-.37-.64-.2c-2.19-.69-4.45-1.4-6.74-1h0c-.38,0-.73.08-1.06.14s-.71.15-1.05.24h0c-.58.09-1.18.17-1.76.24h-.07a30.34,30.34,0,0,0-3.66.6c-.38.09-.74.19-1.07.3-.8.24-1.63.56-2.42.86l-.75.29c-.31.18-.63.37-1,.61s-.63.47-.92.71a16.28,16.28,0,0,1-3.63,2.94l-1,.62,0,0a10.6,10.6,0,0,0-4.47,3.48c-.24.3-.47.61-.68.92-.38.66-.71,1.35-1,2-.1.23-.21.45-.31.68A10.2,10.2,0,0,1,13,25c-.16.33-.34.68-.56,1.06l0,0c-2.56,3.14-3.49,6.69-2.63,10v0c0,.39,0,.77.07,1.14s0,.82,0,1.22a.3.3,0,0,1-.29.29" class="cls-1"/><path d="M65.77,38.83a.29.29,0,0,1-.28-.25l0-.36c0-.23,0-.47-.09-.73s-.07-.46-.12-.71l0-.13a74.29,74.29,0,0,0-2.14-8.12c-.13-.36-.27-.75-.42-1.14a18,18,0,0,0-2.3-4.16c-.22-.3-.46-.61-.73-.95l-.27-.34a31.52,31.52,0,0,0-4.44-4.8c-.3-.25-.61-.48-.92-.69l0,0a21.53,21.53,0,0,0-5.26-2.72l-.7-.2-1.18-.4-.72-.25c-.9-.31-1.83-.63-2.75-.9-.42-.13-.8-.23-1.17-.32l-.06,0a2.89,2.89,0,0,0-1.24-.24,4.48,4.48,0,0,1-1.06-.14c-.39,0-.76,0-1.13,0a8.68,8.68,0,0,0-3.45.74l-.07,0-.79.13-.23,0-1,.17c-.37.06-.74.13-1.1.21a25.39,25.39,0,0,0-3.21.86l-1.1.44-1.05.47A36,36,0,0,1,22.8,17c-.33.21-.66.42-1,.64s-.67.45-1,.66A14.63,14.63,0,0,0,17,21.85c-.22.3-.4.57-.56.84s-.18.49-.29.75-.21.51-.32.76-.27.71-.45,1.11-.33.72-.53,1.11v0c-2.41,3.88-3.36,7.43-2.9,10.87v0c0,.29,0,.59,0,.88v.3a.29.29,0,1,1-.58,0,2.44,2.44,0,0,0,0-.27v0c0-.29,0-.58,0-.86-.47-3.57.5-7.24,3-11.23.19-.38.36-.73.51-1.07s.32-.74.45-1.09.22-.51.32-.76.2-.51.29-.76l0,0a8.59,8.59,0,0,1,.61-.92,15.23,15.23,0,0,1,4-3.66c.29-.21.61-.42,1-.66l1-.64a34,34,0,0,0,3.85-2.75l0,0,0,0,1.11-.5c.37-.16.75-.31,1.12-.45a27.65,27.65,0,0,1,3.29-.89L33,11.71l1-.17.24,0,.75-.12a9.23,9.23,0,0,1,3.64-.77c.39,0,.8,0,1.22,0h.06a4.19,4.19,0,0,0,1,.13,3.28,3.28,0,0,1,1.44.29c.37.09.75.19,1.16.32.93.27,1.87.6,2.77.91l.73.25,1.15.39.72.2a22.16,22.16,0,0,1,5.38,2.79l0,0c.34.23.66.47,1,.73a31.6,31.6,0,0,1,4.52,4.88l.27.34c.28.35.52.66.74,1a19,19,0,0,1,2.38,4.29q.23.6.42,1.17a75.4,75.4,0,0,1,2.16,8.18l0,.14c0,.26.09.5.13.74s.07.51.09.74l0,.35a.28.28,0,0,1-.25.32h0" class="cls-1"/><path d="M63.86,38.83a.29.29,0,0,1-.28-.29l0-.77v-.34c0-.26-.09-.52-.15-.77a48.36,48.36,0,0,1-1.76-4.92c-.41-1.27-.83-2.6-1.34-3.88-.13-.33-.26-.64-.39-.94a3.78,3.78,0,0,1-.37-.72,3.84,3.84,0,0,0-.36-.7,23.7,23.7,0,0,1-3.65-4.05c-.18-.26-.36-.51-.52-.76l0,0a4.52,4.52,0,0,0-.59-.81,6.14,6.14,0,0,1-.63-.86,8.46,8.46,0,0,0-.8-.79q-.43-.34-.93-.69a16.79,16.79,0,0,0-3.38-1.81c-.28-.11-.58-.21-.89-.31s-.75-.1-1.17-.18-.82-.15-1.19-.23h0l-.51-.17C42.3,14,39.65,13.11,37,13.52A10,10,0,0,0,35,14h0l-1.2.37h0l-1.09.27-1.08.3h0l-1.08.24-1.05.26-1,.39-1,.41c-3,1.64-6.08,3.34-8.22,6.09-.17.25-.32.5-.46.73s-.29.52-.41.78l-.56,1-.52.91c-.13.35-.28.72-.47,1.14s-.33.7-.55,1.13c-1.42,2.51-3,5.82-2.64,9.34v1.13a.3.3,0,0,1-.28.3h0a.29.29,0,0,1-.29-.29v-.3c0-.26,0-.53,0-.8-.36-3.68,1.26-7.09,2.72-9.65l.52-1.09c.19-.42.35-.79.47-1.13l0,0,.53-.93.55-1c.12-.25.27-.52.43-.8s.3-.5.48-.76v0c2.22-2.86,5.51-4.66,8.42-6.26h0l1-.42,1-.4h0l1.07-.27,1.09-.24,1.07-.29,1.09-.27,1.2-.37A9.71,9.71,0,0,1,36.93,13c2.77-.44,5.48.45,8.11,1.31l.5.16,1.15.23,1.17.18h0c.32.1.64.21,1,.33a17,17,0,0,1,3.5,1.87c.33.23.66.47,1,.72a8.07,8.07,0,0,1,.89.87l0,.06a5.68,5.68,0,0,0,.58.79,5.36,5.36,0,0,1,.65.89c.16.24.33.49.51.74a23.58,23.58,0,0,0,3.58,4l0,0a4,4,0,0,1,.45.84,3.59,3.59,0,0,0,.33.65l0,0c.14.32.27.64.41,1,.52,1.3.94,2.63,1.35,3.92a50.39,50.39,0,0,0,1.76,4.89l0,0c.06.27.11.56.16.84v.4c0,.25,0,.52,0,.78a.3.3,0,0,1-.28.3Z" class="cls-1"/><path d="M62,38.83h0a.28.28,0,0,1-.25-.31,8.29,8.29,0,0,0,0-1.08,8.24,8.24,0,0,0-.21-1,40.33,40.33,0,0,1-1.72-4.2,40.36,40.36,0,0,0-1.58-3.91c-.27-.53-.57-1.09-.91-1.68a9.23,9.23,0,0,0-.85-.8l0,0c-.25-.29-.5-.6-.77-.94-1-1.34-2-2.7-3-4.15L52,20a4.25,4.25,0,0,0-.65-.49c-.18-.12-.36-.24-.55-.39s-.63-.39-1-.58a16.65,16.65,0,0,0-2.35-1l-.79-.26c-.36-.06-.74-.1-1.17-.14A12.15,12.15,0,0,1,43.36,17a19.27,19.27,0,0,1-2.83-.5A14.3,14.3,0,0,0,37,16a7.54,7.54,0,0,0-2.06.21l-1,.29-1.13.29-1.1.31c-.35.07-.67.16-1,.25s-.64.2-.93.31c-.76.27-1.34.49-1.87.71-.34.13-.64.26-.92.39a13,13,0,0,0-5.38,4.31l-.55.74c-.32.46-.65.95-1,1.51-.28.39-.51.73-.7,1.05s-.34.7-.5,1.05c-.25.56-.5,1.14-.75,1.69l-.1.21c-.09.22-.19.43-.29.65a18.14,18.14,0,0,0-2,6.33c0,.41-.07.79-.07,1.16s0,.46,0,.69l0,.36a.29.29,0,0,1-.57,0l0-.36c0-.23,0-.46,0-.69v0h0c0-.4,0-.8.08-1.22a18.52,18.52,0,0,1,2.09-6.52c.09-.21.19-.43.29-.64l.09-.21c.25-.56.51-1.13.75-1.69.17-.37.34-.73.52-1.09v0c.21-.33.44-.68.72-1.07.35-.55.68-1.06,1-1.53l.55-.74a13.53,13.53,0,0,1,5.61-4.49l.93-.41c.54-.22,1.12-.44,1.89-.71.31-.12.64-.22,1-.32s.67-.18,1-.26l1.09-.31L33.73,16l1-.3a8.74,8.74,0,0,1,2.2-.23,15.07,15.07,0,0,1,3.69.52,18.79,18.79,0,0,0,2.76.49,12.51,12.51,0,0,0,2.15.09h0c.45,0,.86.08,1.25.14h0l.83.27A17.32,17.32,0,0,1,50.15,18c.36.19.7.4,1,.61h0a5.56,5.56,0,0,0,.52.37,4.28,4.28,0,0,1,.75.58l0,0,.56.8c1,1.44,2,2.8,3,4.12.26.33.51.63.74.91a7.52,7.52,0,0,1,.91.87l0,.05c.36.61.66,1.18.94,1.73a39.74,39.74,0,0,1,1.61,4A41.1,41.1,0,0,0,62,36.24l0,0a8,8,0,0,1,.23,1.06v0a10,10,0,0,1,0,1.18.3.3,0,0,1-.29.27" class="cls-1"/><path d="M59.72,38.83l-.08,0a.27.27,0,0,1-.19-.35l0-.19a6.7,6.7,0,0,0-.08-.87A42.24,42.24,0,0,0,56.94,30c-.28-.57-.6-1.16-1-1.81-.21-.28-.44-.58-.69-.88s-.48-.57-.75-.86v0l-.65-.81c-.43-.54-.89-1.09-1.33-1.62-.65-.78-1.32-1.58-2-2.4-.21-.18-.44-.37-.68-.55a11.07,11.07,0,0,0-3.25-1.6l-1-.27-.93-.05-1-.06a17.29,17.29,0,0,1-3.58-.53c-1.91-.41-3.71-.8-5.58-.17h0c-.29.07-.57.15-.86.24-.51.14-1.06.32-1.69.53h0l-1.2.28-1.19.3a10.61,10.61,0,0,0-1.47.57c-.3.14-.62.31-.93.49a10.82,10.82,0,0,0-4.43,4.47l0,0c-.2.25-.47.58-.73.93s-.44.59-.61.86l-.39.92,0,.07c-.32.81-.69,1.62-1.05,2.41a26.85,26.85,0,0,0-1.89,5c-.09.39-.17.77-.22,1.13a9.18,9.18,0,0,0-.1,1.87.3.3,0,0,1-.28.3.3.3,0,0,1-.3-.28,10.34,10.34,0,0,1,.11-2c.06-.37.13-.77.23-1.17a27.5,27.5,0,0,1,1.93-5.14c.36-.78.72-1.59,1-2.39l0-.08c.13-.31.26-.63.4-.94l0-.05c.19-.29.4-.58.65-.91s.53-.67.74-.92A11.35,11.35,0,0,1,27,20.29c.31-.18.64-.35,1-.5a11.27,11.27,0,0,1,1.55-.6l1.21-.31,1.2-.28c.63-.21,1.19-.39,1.7-.54l.86-.23c2-.69,4-.26,5.88.15a17.21,17.21,0,0,0,3.49.52l1,.06.94.05h.05c.35.08.7.17,1,.28a11.33,11.33,0,0,1,3.41,1.69,7.58,7.58,0,0,1,.75.6l0,0c.64.82,1.32,1.63,2,2.42l1.34,1.62.64.81c.28.3.52.59.76.87s.5.62.72.92l0,0c.38.66.71,1.27,1,1.86A43.06,43.06,0,0,1,60,37.27v0a5.83,5.83,0,0,1,.09,1v0l-.07.27a.3.3,0,0,1-.28.21" class="cls-1"/><path d="M57.17,38.83a.3.3,0,0,1-.29-.28,6.33,6.33,0,0,0-.06-.73c0-.24-.08-.49-.13-.73s-.07-.37-.1-.55a7.4,7.4,0,0,1-.14-1.4,10.72,10.72,0,0,0-1-3.54c-.13-.3-.26-.58-.4-.86s-.36-.67-.56-1A10.67,10.67,0,0,0,53.1,28l0,0-.42-.56-.18-.24a8.74,8.74,0,0,0-1.29-1.43l0,0c-.18-.18-.36-.37-.55-.55l-.69-.65,0,0a11.37,11.37,0,0,0-2.68-2.21,8,8,0,0,0-.75-.41,18.53,18.53,0,0,0-5.27-1.39l-1.11-.11h0a13.51,13.51,0,0,0-5.28.35l-1,.23-2,.51-.83.21a18.73,18.73,0,0,0-2.4.83,10,10,0,0,0-1.75,1.16,9.55,9.55,0,0,0-2.26,2.72c-.12.22-.23.44-.34.66l0,0c-.23.3-.45.62-.68,1s-.42.67-.61,1a19,19,0,0,0-1.28,2.76l-.33,1a11.78,11.78,0,0,1-.38,1.47,12.65,12.65,0,0,0-.41,1.58c-.07.35-.13.69-.2,1.06s-.1.78-.14,1.17c0,.15,0,.32,0,.48a.3.3,0,0,1-.29.29h0a.3.3,0,0,1-.29-.29c0-.18,0-.35,0-.52q.06-.62.15-1.23c.06-.38.13-.72.2-1.06a13.29,13.29,0,0,1,.42-1.65,12.45,12.45,0,0,0,.37-1.42v0c.11-.34.22-.67.35-1a18.62,18.62,0,0,1,1.31-2.84c.2-.35.41-.7.63-1a11.21,11.21,0,0,1,.69-1c.1-.22.21-.45.33-.66a10.15,10.15,0,0,1,2.4-2.89A10.37,10.37,0,0,1,28.27,22a18.21,18.21,0,0,1,2.49-.86l.84-.22c.61-.15,1.33-.34,2-.5l1-.24a14.07,14.07,0,0,1,5.47-.36l1.13.11a19.4,19.4,0,0,1,5.44,1.44c.27.13.53.27.81.43a12.23,12.23,0,0,1,2.8,2.32l.69.65.55.55a10,10,0,0,1,1.36,1.51l.19.25c.13.18.27.36.41.53A13,13,0,0,1,55,29.45c.21.33.4.68.59,1s.28.59.4.89a11.24,11.24,0,0,1,1,3.73v0a7.61,7.61,0,0,0,.13,1.31c0,.18.07.36.1.54s.1.5.14.76a7.7,7.7,0,0,1,.07.79.3.3,0,0,1-.28.3h0" class="cls-1"/><path d="M54.83,38.83a.3.3,0,0,1-.29-.28c0-.28,0-.53,0-.79v0A10.76,10.76,0,0,0,54,35a14.71,14.71,0,0,1-.34-1.46,9.41,9.41,0,0,0-.33-.9,8.87,8.87,0,0,0-1.47-2.46v0l-.57-.73a24.12,24.12,0,0,0-1.88-2.06l-.84-.78,0,0c-.28-.29-.56-.57-.83-.82A12,12,0,0,0,44,23.33a10,10,0,0,0-1-.36c-2.18-.74-4.25-.32-6.44.12a22,22,0,0,1-3.73.52c-.29.06-.59.14-.92.24a17.76,17.76,0,0,0-1.87.69,10.59,10.59,0,0,0-1.71,1.1,10.29,10.29,0,0,0-1.93,2c-.15.2-.29.39-.41.58s-.43.63-.63.95-.38.64-.55,1a19.82,19.82,0,0,0-2.47,8.42.29.29,0,0,1-.29.29h0a.31.31,0,0,1-.29-.3,20.54,20.54,0,0,1,2.54-8.68c.18-.35.37-.69.57-1s.42-.66.65-1,.26-.4.41-.6a11.22,11.22,0,0,1,2-2.09A10.83,10.83,0,0,1,29.73,24a15.9,15.9,0,0,1,1.94-.73c.36-.11.69-.19,1-.26h0a21.4,21.4,0,0,0,3.65-.52c2.18-.43,4.42-.88,6.73-.1.36.1.73.23,1.1.37a12.63,12.63,0,0,1,3.94,2.55c.28.25.57.54.85.84l.85.79a23.87,23.87,0,0,1,1.93,2.11l.57.74a9.47,9.47,0,0,1,1.56,2.61c.13.3.24.62.35,1v0c.08.47.2.94.33,1.44a11.41,11.41,0,0,1,.49,2.86c0,.25,0,.53,0,.8a.3.3,0,0,1-.28.3Z" class="cls-1"/><path d="M52.59,38.83a.29.29,0,0,1-.29-.29c0-.42,0-.85-.06-1.27s-.05-.52-.08-.76a12.28,12.28,0,0,0-.51-2.18c-.1-.3-.21-.6-.35-.93a24.08,24.08,0,0,0-1.93-2.88c-.24-.3-.49-.6-.74-.89s-.41-.48-.59-.69-.43-.47-.63-.67h0a8.4,8.4,0,0,0-2.79-2.19,8.69,8.69,0,0,0-1-.42c-2.55-.95-5.1-.42-7.79.14l-.1,0A5.39,5.39,0,0,1,33.9,26a5,5,0,0,0-1.41.1l-.49.23-.48.22c-.29.14-.56.29-.82.44s-.54.33-.78.5a8.25,8.25,0,0,0-1.42,1.26c-.31.32-.57.61-.79.88-1.65,2.8-3.25,5.8-3.22,8.93a.3.3,0,0,1-.29.29h0a.3.3,0,0,1-.29-.29c0-3.28,1.62-6.36,3.32-9.24l0,0a10.77,10.77,0,0,1,.83-.93A8.84,8.84,0,0,1,29.58,27c.26-.18.53-.35.83-.53l.87-.46.47-.22c.17-.09.35-.17.54-.25h0a5.72,5.72,0,0,1,1.59-.12,4.67,4.67,0,0,0,1.6-.15h0l.11,0c2.78-.58,5.4-1.13,8.1-.12a7.47,7.47,0,0,1,1.1.45,8.85,8.85,0,0,1,3,2.32c.2.2.41.42.63.67s.39.45.61.71.51.6.75.91a24.64,24.64,0,0,1,2,3l0,0c.14.34.26.66.36,1a13.69,13.69,0,0,1,.54,2.28c0,.25.06.51.08.79s.06.88.06,1.32a.29.29,0,0,1-.28.29Z" class="cls-1"/><path d="M26.29,38.83a.29.29,0,0,1-.28-.27,11.12,11.12,0,0,1,2.82-7.78,8.78,8.78,0,0,1,.81-.94c.29-.28.59-.55.91-.81s.43-.33.65-.48a4.16,4.16,0,0,1,.64-.42,4,4,0,0,1,.69-.33l.06,0,.71-.12c3.29-.54,6.69-1.1,10.1-.29a7.74,7.74,0,0,1,1.16.45,7.41,7.41,0,0,1,2.07,1.5c.28.24.55.49.8.74a5.55,5.55,0,0,1,1.43,1.79c.15.25.3.51.48.77v0c.15.28.29.57.42.86a8.8,8.8,0,0,1,.34.88q.18.65.3,1.29c.07.43.13.86.16,1.29s.07.88.08,1.33a2.44,2.44,0,0,0,0,.26.29.29,0,0,1-.58,0,2.09,2.09,0,0,0,0-.25c0-.42,0-.85-.07-1.27s-.09-.83-.16-1.24-.17-.82-.28-1.22a8.44,8.44,0,0,0-.31-.82c-.12-.27-.26-.54-.4-.8s-.33-.53-.49-.79a5.07,5.07,0,0,0-1.29-1.63l0,0c-.25-.25-.52-.5-.79-.73l0,0a6.91,6.91,0,0,0-1.92-1.4,8,8,0,0,0-1.06-.41c-3.28-.77-6.62-.22-9.86.31l-.68.11a5.89,5.89,0,0,0-1.18.67c-.21.15-.41.3-.62.47a10.49,10.49,0,0,0-.86.77,9,9,0,0,0-.77.88,10.6,10.6,0,0,0-2.7,7.38.28.28,0,0,1-.26.31h0" class="cls-1"/><path d="M28.85,38.83a.28.28,0,0,1-.28-.23,6.44,6.44,0,0,1,2-6.62c.19-.21.37-.38.54-.54s.39-.35.6-.51a7.83,7.83,0,0,1,.77-.54l0,0,0,0,1-.29,1-.31,1-.26a13.42,13.42,0,0,1,6.06-.7,8.47,8.47,0,0,1,.93.2,6.22,6.22,0,0,1,2.56,1.37c.18.16.35.33.52.51a6.57,6.57,0,0,1,.48.57,10.9,10.9,0,0,1,.76.95,6.64,6.64,0,0,1,.83,1.4,8.61,8.61,0,0,1,.52,1.58A9.81,9.81,0,0,1,48.38,37a10.42,10.42,0,0,1,.07,1.14c0,.12,0,.25,0,.38a.31.31,0,0,1-.29.3h0a.3.3,0,0,1-.29-.29c0-.12,0-.25,0-.37,0-.39,0-.75-.07-1.11a9.75,9.75,0,0,0-.21-1.57A8.06,8.06,0,0,0,47.12,34a6,6,0,0,0-.77-1.3,10.77,10.77,0,0,0-.73-.91l0,0a5.85,5.85,0,0,0-.45-.54c-.16-.16-.32-.33-.49-.48a5.64,5.64,0,0,0-2.32-1.23,7.16,7.16,0,0,0-.88-.19,13.13,13.13,0,0,0-5.81.68l-1,.26-1,.31-.95.28c-.22.14-.44.3-.69.49l-.56.48c-.17.16-.34.33-.53.53l0,0a5.91,5.91,0,0,0-1.8,6.07.29.29,0,0,1-.22.34h-.06" class="cls-1"/><path d="M31.19,38.83a.29.29,0,0,1-.28-.25A5.6,5.6,0,0,1,32.05,34c.16-.22.34-.44.51-.64a8.62,8.62,0,0,1,1.22-1.12A9.76,9.76,0,0,1,35.9,31c.25-.1.51-.19.76-.27a7.12,7.12,0,0,1,2.74-.33h.66a4.37,4.37,0,0,1,.77.2,8,8,0,0,1,1.34.65,7.63,7.63,0,0,1,.71.52,7.42,7.42,0,0,1,1.69,2.07,5.72,5.72,0,0,1,.61.85,9.51,9.51,0,0,1,1.13,2.78v0a7.42,7.42,0,0,1,.09,1,.3.3,0,0,1-.29.29.3.3,0,0,1-.29-.29,6,6,0,0,0-.07-.93,9.31,9.31,0,0,0-1-2.61,6.82,6.82,0,0,0-.58-.8l0-.05a6.86,6.86,0,0,0-1.57-1.93,7,7,0,0,0-.64-.47,7.84,7.84,0,0,0-1.23-.6A4.16,4.16,0,0,0,40,31h-.6a6.42,6.42,0,0,0-2.52.28h0c-.25.08-.49.16-.73.26a9.31,9.31,0,0,0-2,1.16,8,8,0,0,0-1.13,1,7.61,7.61,0,0,0-.48.61l0,0a5.16,5.16,0,0,0-1,4.14.27.27,0,0,1-.24.32h0" class="cls-1"/><path d="M44,38.83a.3.3,0,0,1-.29-.25l0-.18-.24-.51-.16-.33c-.16-.34-.28-.6-.41-.83-.75-1.58-2.36-3.43-4.12-3.78a3,3,0,0,0-2.66.81l0,0a9.11,9.11,0,0,0-.89.69,4.89,4.89,0,0,0-1.86,4,.28.28,0,0,1-.26.31.29.29,0,0,1-.31-.25,5.47,5.47,0,0,1,2-4.53,9.29,9.29,0,0,1,.94-.73,3.52,3.52,0,0,1,3.15-.92c2,.39,3.68,2.33,4.51,4.08.13.23.26.49.42.84l.16.34c.08.18.17.35.25.53l0,.06a2,2,0,0,1,0,.26.29.29,0,0,1-.24.32h0" class="cls-1"/><path d="M34.74,38.83h0a.28.28,0,0,1-.24-.33,1.74,1.74,0,0,1,.07-.29,5.72,5.72,0,0,1,2.12-2.9,2.34,2.34,0,0,1,1.85-.66,3.81,3.81,0,0,1,2.6,1.64,6.79,6.79,0,0,1,.54.85A4.66,4.66,0,0,1,42,38a2,2,0,0,1,.12.49.27.27,0,0,1-.24.32.28.28,0,0,1-.33-.24,2.88,2.88,0,0,0-.09-.4,4.75,4.75,0,0,0-.33-.79,7.11,7.11,0,0,0-.49-.77,3.29,3.29,0,0,0-2.19-1.4,1.74,1.74,0,0,0-1.42.51l0,0a4.43,4.43,0,0,0-.63.53,5.65,5.65,0,0,0-1.3,2.09,1.18,1.18,0,0,0,0,.2.31.31,0,0,1-.29.25" class="cls-1"/><path d="M37.13,38.83h0a.28.28,0,0,1-.24-.33,1.14,1.14,0,0,1,.06-.25,1.7,1.7,0,0,1,.87-1,1.61,1.61,0,0,1,1-.12,1.56,1.56,0,0,1,.88.43l0,0a1.57,1.57,0,0,1,.33,1,.29.29,0,1,1-.57,0,1.06,1.06,0,0,0-.2-.61,1.13,1.13,0,0,0-.55-.26,1,1,0,0,0-.62.08,1.12,1.12,0,0,0-.57.67,1,1,0,0,0,0,.17.31.31,0,0,1-.29.25" class="cls-1"/><path d="M63.8,38.83a.29.29,0,0,1-.29-.29l0-.77v-.34c0-.26-.09-.52-.15-.77a50.9,50.9,0,0,1-1.76-4.92c-.41-1.27-.83-2.6-1.34-3.88-.13-.33-.26-.64-.39-.94a5.45,5.45,0,0,1-.37-.72,3.3,3.3,0,0,0-.36-.7,23.65,23.65,0,0,1-3.64-4.05c-.19-.26-.37-.51-.53-.76v0a4.58,4.58,0,0,0-.6-.81A5.38,5.38,0,0,1,53.7,19a8.52,8.52,0,0,0-.81-.79c-.29-.23-.6-.46-.92-.69a16.79,16.79,0,0,0-3.38-1.81l-.89-.31c-.38,0-.76-.1-1.17-.18s-.83-.15-1.2-.23h0l-.52-.17c-2.56-.84-5.2-1.7-7.84-1.29a10.12,10.12,0,0,0-2.07.52h0l-1.2.37h0l-1.09.27c-.36.1-.72.19-1.07.3h0l-1.08.24-1,.26-1,.39-1,.41c-3,1.64-6.09,3.34-8.23,6.09-.16.25-.32.5-.45.73s-.29.52-.42.78l-.56,1-.51.91c-.13.35-.29.72-.48,1.14s-.33.7-.54,1.13c-1.43,2.51-3,5.82-2.65,9.34v.84c0,.1,0,.2,0,.29a.31.31,0,0,1-.29.3h0a.29.29,0,0,1-.29-.29v-1.1c-.37-3.68,1.25-7.09,2.71-9.65.21-.41.38-.77.53-1.09s.34-.79.47-1.13v0c.18-.31.36-.62.53-.93l.55-1c.13-.25.27-.52.43-.8l.48-.76v0c2.22-2.86,5.52-4.66,8.42-6.26h0l1-.42,1-.4h0l1.07-.27,1.08-.24,1.08-.29,1.09-.27,1.19-.37A9.8,9.8,0,0,1,36.87,13c2.76-.44,5.48.45,8.1,1.31l.5.16,1.15.23,1.18.18h0c.33.1.65.21.95.33a16.77,16.77,0,0,1,3.51,1.87c.33.23.65.47,1,.72a9.12,9.12,0,0,1,.9.87l0,.06a5.68,5.68,0,0,0,.58.79,5.41,5.41,0,0,1,.66.89c.15.24.32.49.5.74a23.58,23.58,0,0,0,3.58,4l0,0A4,4,0,0,1,60,26a3.59,3.59,0,0,0,.33.65l0,0c.13.32.27.64.41,1,.51,1.3.94,2.63,1.35,3.92a50.29,50.29,0,0,0,1.75,4.89l0,0c.06.27.12.56.16.84v0l0,.36,0,.78a.31.31,0,0,1-.29.3Z" class="cls-1"/><path d="M61.82,38.83h0a.28.28,0,0,1-.26-.31,8.5,8.5,0,0,0,0-1.08,8.24,8.24,0,0,0-.21-1,40.33,40.33,0,0,1-1.72-4.2,38,38,0,0,0-1.59-3.91c-.26-.53-.57-1.09-.9-1.68a9.23,9.23,0,0,0-.85-.8l0,0c-.25-.29-.5-.6-.77-.94-1.05-1.34-2-2.7-3-4.15L51.9,20a4.14,4.14,0,0,0-.64-.49c-.18-.12-.36-.24-.55-.39s-.63-.39-1-.58a16,16,0,0,0-2.34-1l-.79-.26c-.37-.06-.75-.1-1.17-.14A12.15,12.15,0,0,1,43.23,17a19.4,19.4,0,0,1-2.84-.5,14.23,14.23,0,0,0-3.56-.5,7.54,7.54,0,0,0-2.06.21l-1,.29-1.13.29-1.11.31c-.34.07-.66.16-1,.25s-.64.2-.94.31c-.76.27-1.33.49-1.87.71-.33.13-.63.26-.91.39a13,13,0,0,0-5.38,4.31l-.55.74c-.33.46-.66.95-1,1.51-.28.39-.51.73-.71,1.05s-.33.7-.49,1.05l-.76,1.69-.09.21-.29.65a17.93,17.93,0,0,0-2,6.33c-.05.41-.07.79-.08,1.16s0,.46.05.69l0,.36a.28.28,0,0,1-.27.3.27.27,0,0,1-.3-.26l0-.36c0-.23,0-.46-.05-.69v0h0a10.26,10.26,0,0,1,.08-1.22A18.52,18.52,0,0,1,17,29.74l.28-.64.1-.21c.25-.56.51-1.13.75-1.69l.51-1.09,0,0c.2-.33.44-.68.72-1.07q.51-.82,1-1.53c.18-.25.36-.5.55-.74a13.57,13.57,0,0,1,5.6-4.49c.29-.13.59-.27.94-.41.54-.22,1.12-.44,1.89-.71.31-.12.63-.22,1-.32s.66-.18,1-.26l1.1-.31L33.59,16l1-.3a8.64,8.64,0,0,1,2.2-.23,15.07,15.07,0,0,1,3.69.52,18.56,18.56,0,0,0,2.76.49,12.47,12.47,0,0,0,2.15.09h0c.45,0,.86.08,1.24.14h0l.84.27A17.32,17.32,0,0,1,50,18c.35.19.7.4,1,.61h0a5.56,5.56,0,0,0,.52.37,4.28,4.28,0,0,1,.75.58l0,0,.56.8c1,1.44,2,2.8,3,4.12.26.33.5.63.74.91a8.34,8.34,0,0,1,.91.87l0,.05c.35.61.66,1.18.94,1.73a39.74,39.74,0,0,1,1.61,4,38.83,38.83,0,0,0,1.7,4.17l0,0a6.74,6.74,0,0,1,.24,1.06v0a7,7,0,0,1,0,1.18.28.28,0,0,1-.28.27" class="cls-1"/><path d="M59.6,38.83l-.08,0a.27.27,0,0,1-.19-.35l.05-.19a5.31,5.31,0,0,0-.08-.87A42.24,42.24,0,0,0,56.82,30c-.28-.57-.59-1.16-1-1.81-.21-.28-.44-.58-.69-.88s-.48-.57-.75-.86v0l-.64-.81L52.42,24c-.65-.78-1.32-1.58-2-2.4-.21-.18-.44-.37-.68-.55a11,11,0,0,0-3.24-1.6l-1-.27-.92-.05-1-.06a17.39,17.39,0,0,1-3.59-.53c-1.91-.41-3.71-.8-5.58-.17h0c-.28.07-.57.15-.85.24-.52.14-1.07.32-1.69.53h0l-1.21.28-1.19.3a12.14,12.14,0,0,0-2.4,1.06,10.88,10.88,0,0,0-4.43,4.47l0,0c-.21.25-.48.58-.74.93s-.43.59-.61.86l-.39.92,0,.07c-.33.81-.7,1.62-1,2.41a26.89,26.89,0,0,0-1.9,5c-.09.39-.17.77-.22,1.13a9.18,9.18,0,0,0-.1,1.87.29.29,0,1,1-.58,0,11.22,11.22,0,0,1,.11-2c.06-.37.14-.77.23-1.17a27.5,27.5,0,0,1,1.93-5.14c.36-.78.73-1.59,1.05-2.39l0-.08.4-.94,0-.05c.19-.29.4-.58.65-.91s.53-.67.74-.92a11.35,11.35,0,0,1,4.64-4.68c.31-.18.64-.35,1-.5a11.39,11.39,0,0,1,1.56-.6l1.2-.31,1.21-.28c.62-.21,1.18-.39,1.7-.54l.85-.23c2-.69,4-.26,5.88.15a17.21,17.21,0,0,0,3.49.52l1,.06.94.05h0c.35.08.7.17,1.05.28a11.5,11.5,0,0,1,3.42,1.69,8.79,8.79,0,0,1,.74.6l0,0c.64.82,1.31,1.63,2,2.42.45.53.9,1.08,1.34,1.62l.65.81q.4.45.75.87c.26.32.5.62.72.92l0,0c.38.66.71,1.27,1,1.86a43.06,43.06,0,0,1,2.52,7.52v0a8.8,8.8,0,0,1,.09,1v0l-.08.27a.3.3,0,0,1-.28.21" class="cls-1"/><path d="M38.73,60.05A21.23,21.23,0,0,1,17.5,38.82H60A21.23,21.23,0,0,1,38.73,60.05Z" class="cls-2"/><rect width="52.88" height="13.22" x="12.06" y="64.78" class="cls-3"/><path d="M48.31,38a9.81,9.81,0,1,1-9.81-9.81A9.81,9.81,0,0,1,48.31,38" class="cls-4"/></g></g></svg>