<svg xmlns="http://www.w3.org/2000/svg" viewBox="0 0 110.22 63.49"><defs><style>.cls-1{fill:none;stroke:#545655;stroke-miterlimit:10;stroke-width:2.36px;}.cls-2{fill:#9d9fa1;}.cls-3{fill:#c1c1c1;}.cls-4{fill:#545655;}</style></defs><title>Asset 1</title><g id="Layer_2" data-name="Layer 2"><g id="Layer_1-2" data-name="Layer 1"><polygon class="cls-1" points="15.6 37.27 8.72 19.38 1.84 1.49 20.77 4.47 39.71 7.46 27.65 22.37 15.6 37.27"/><path class="cls-2" d="M84.38,10.78A9.4,9.4,0,1,1,93,20.94a9.41,9.41,0,0,1-8.59-10.16"/><path class="cls-3" d="M51.57,50.65a13.22,13.22,0,1,1,13.6,12.83,13.22,13.22,0,0,1-13.6-12.83"/><path class="cls-2" d="M110.2,32.89c-.08-.37-.35-.61-.6-.55-2.38.53-3.71.85-4.78,1.1-1.48.35-2.54.6-5.32,1.18-1.32.32-2.3.63-3.26.93-1.14.35-2.23.69-3.84,1.05-2.5.55-3.73.78-4.82,1s-2.17.41-4.38.92c-1.5.31-2.59.53-3.64.73-1.38.27-2.68.53-4.71,1-1.77.38-3,.59-4.08.78-1.33.23-2.47.42-4.24.86l-4.31.91L57,43.87a28.44,28.44,0,0,0-3.81,1,25.37,25.37,0,0,1-3.27.94c-3,.63-4,.84-5.23,1.07-1,.19-2,.4-4.22.85s-3.06.74-4.09,1-1.86.55-3.7,1-3.34.58-4.68.75c-1.18.15-2.4.31-4,.62-2.23.54-3.44.86-4.42,1.11s-1.83.48-3.33.81c-.25.06-.39.4-.31.76h0c.08.36.35.61.6.55,1.51-.34,2.28-.54,3.36-.82s2.18-.57,4.38-1.1c1.58-.31,2.74-.46,4-.61S31,51.5,33,51.09s2.82-.71,3.75-1,2-.59,4-1S44,48.42,45,48.23c1.23-.23,2.29-.44,5.25-1.07a29.74,29.74,0,0,0,3.35-1,28,28,0,0,1,3.73-1l5.21-1.1c1.36-.28,2.36-.49,4.32-.92,1.76-.43,2.89-.62,4.21-.85,1.09-.18,2.32-.39,4.11-.78,2-.45,3.32-.71,4.7-1,1-.2,2.14-.42,3.65-.74,2.2-.5,3.2-.69,4.36-.91s2.33-.44,4.84-1c1.64-.36,2.79-.72,3.9-1.06.94-.29,1.92-.6,3.2-.91,2.78-.58,3.85-.83,5.32-1.18,1.07-.26,2.4-.57,4.78-1.11.25,0,.39-.39.31-.75Zm-3.4-12.46c-2.17.47-3.3.7-4.39.92s-2.24.45-4.41.92c-3,.68-4.73,1-6.7,1.39l-1.6.3-3.79.82c-1.66.36-2.58.56-6.07,1.37a31,31,0,0,0-3.2.92,35.71,35.71,0,0,1-4.7,1.27l-.77.17L65.1,29.89l-1.92.43c-2.06.47-3.28.65-4.57.85-1,.15-2,.3-3.55.6-1.93.44-2.77.69-3.58.93s-1.75.52-4,1-3.23.6-4.27.75c-1.27.19-2.47.37-5.58,1-2.45.58-3.46.77-4.63,1-1,.18-2.08.39-4.22.86a24.31,24.31,0,0,0-3.27,1,35.35,35.35,0,0,1-4.87,1.42L19.56,40c-2,.47-2.79.64-7.23,1.6-.25.05-.4.39-.32.75s.35.61.6.56c4.45-1,5.21-1.14,7.24-1.61l1-.24a37.34,37.34,0,0,0,5-1.44A22.38,22.38,0,0,1,29,38.66c2.13-.47,3.23-.68,4.19-.86,1.18-.22,2.2-.41,4.67-1,3.08-.66,4.27-.84,5.53-1,1-.15,2.11-.31,4.31-.75s3.16-.76,4.08-1,1.63-.48,3.52-.91c1.49-.3,2.52-.45,3.52-.6,1.3-.19,2.53-.38,4.62-.86l1.92-.43,6.06-1.37.77-.17A37.24,37.24,0,0,0,77,28.36a27.86,27.86,0,0,1,3.13-.91c3.49-.81,4.4-1,6.07-1.36L90,25.27l1.59-.3c2-.38,3.68-.71,6.72-1.39,2.16-.47,3.25-.69,4.4-.92s2.23-.45,4.39-.92c.26-.06.4-.39.32-.76h0c-.08-.36-.35-.61-.6-.55"/><path class="cls-4" d="M108,26.4a28,28,0,0,0-5,1.37,20.79,20.79,0,0,1-3.45,1l-3.76.78c-1.57.32-2.7.56-4.49.95a43.68,43.68,0,0,1-5,.91c-1.26.16-2.56.33-5.09.87-1,.26-1.85.49-2.66.71-1.3.36-2.65.73-4.92,1.26-2.65.58-3.93.93-5,1.22s-1.74.48-3.29.78a37.15,37.15,0,0,1-4.64.77,30.27,30.27,0,0,0-3.55.56,49.46,49.46,0,0,0-5.88,1.58,32,32,0,0,1-3.16.9,27,27,0,0,1-4.2.71,22.4,22.4,0,0,0-3.69.63c-3.09.7-4.15,1-5.09,1.27s-1.55.44-3.47.86c-2.77.62-4,.79-5.07.95a30.69,30.69,0,0,0-3.76.72c-4.57,1-5.38,1.16-9.6,2.1a.61.61,0,0,0-.32.76h0c.08.36.36.61.61.55,4.22-.94,5-1.12,9.6-2.1a32.41,32.41,0,0,1,3.71-.72c1.09-.15,2.33-.33,5.12-1,1.94-.43,2.7-.65,3.51-.88s2-.56,5.06-1.25a22.34,22.34,0,0,1,3.59-.62,27.12,27.12,0,0,0,4.3-.72c1.48-.35,2.32-.63,3.21-.92a47.79,47.79,0,0,1,5.82-1.56,26.67,26.67,0,0,1,3.48-.55,38.13,38.13,0,0,0,4.7-.78C67.18,37.24,68,37,69,36.76s2.28-.63,4.92-1.21c2.28-.53,3.64-.91,5-1.27.83-.23,1.62-.45,2.63-.7a50,50,0,0,1,5-.86,43.34,43.34,0,0,0,5.11-.92c1.77-.39,2.9-.63,4.47-.95l3.76-.78a21.09,21.09,0,0,0,3.55-1,27.65,27.65,0,0,1,4.87-1.34c.25-.05.4-.39.32-.75h0c-.08-.35-.35-.6-.6-.55"/></g></g></svg>