<?xml version="1.0" encoding="utf-8"?>
<!-- Generator: Adobe Illustrator 24.0.2, SVG Export Plug-In . SVG Version: 6.00 Build 0)  -->
<svg version="1.1" id="Layer_1" xmlns="http://www.w3.org/2000/svg" xmlns:xlink="http://www.w3.org/1999/xlink" x="0px" y="0px"
	 viewBox="0 0 158.6 30" style="enable-background:new 0 0 158.6 30;" xml:space="preserve">
<style type="text/css">
	.st0{fill:#DDDDDD;}
</style>
<title>Asset 1</title>
<g id="Layer_2_1_">
	<g id="Layer_1-2">
		<path class="st0" d="M55.5,23.6c0,0.9-0.2,1.7-0.5,2.5c-0.3,0.8-0.8,1.4-1.4,2c-0.6,0.6-1.3,1-2,1.4C50.8,29.8,50,30,49.2,30
			c-0.9,0-1.7-0.2-2.5-0.5c-1.5-0.6-2.7-1.9-3.4-3.4c-0.3-0.8-0.5-1.7-0.5-2.5v-8.3H44v4.5h3.5V21H44v2.6c0,0.7,0.1,1.4,0.4,2
			c0.5,1.2,1.5,2.2,2.7,2.7c0.6,0.3,1.3,0.4,2,0.4c0.7,0,1.4-0.1,2-0.4c1.2-0.5,2.2-1.5,2.7-2.7c0.3-0.6,0.4-1.3,0.4-2H55.5z"/>
		<path class="st0" d="M63.4,17.2c0.8,0,1.7,0.2,2.5,0.5c0.7,0.3,1.4,0.8,2,1.4c2.5,2.4,2.6,6.4,0.1,9c0,0-0.1,0.1-0.1,0.1
			c-0.6,0.6-1.3,1-2,1.4c-0.8,0.3-1.6,0.5-2.5,0.5c-0.9,0-1.7-0.2-2.5-0.5c-0.7-0.3-1.4-0.8-2-1.4c-0.6-0.6-1-1.3-1.4-2
			c-1-2.4-0.5-5.2,1.4-7.1c0.6-0.6,1.3-1,2-1.4C61.7,17.4,62.6,17.2,63.4,17.2 M63.4,28.7c0.7,0,1.4-0.1,2-0.4
			c0.6-0.3,1.2-0.6,1.6-1.1c0.5-0.5,0.8-1,1.1-1.6c0.3-0.6,0.4-1.3,0.4-2c0-0.7-0.1-1.4-0.4-2c-0.3-0.6-0.7-1.1-1.1-1.6
			c-0.5-0.5-1-0.8-1.6-1.1c-1.3-0.6-2.7-0.6-4,0c-1.2,0.5-2.2,1.5-2.7,2.7c-0.3,0.6-0.4,1.3-0.4,2c0,0.7,0.1,1.4,0.4,2
			c0.3,0.6,0.6,1.2,1.1,1.6c0.5,0.5,1,0.8,1.6,1.1C62.1,28.6,62.7,28.8,63.4,28.7"/>
		<path class="st0" d="M77.8,30c-0.9,0-1.7-0.2-2.5-0.5c-0.7-0.3-1.4-0.8-2-1.4c-1.2-1.2-1.9-2.8-1.8-4.5v-6.4h1.3v6.4
			c0,0.7,0.1,1.4,0.4,2c0.3,0.6,0.6,1.2,1.1,1.6c0.5,0.5,1,0.8,1.6,1.1c0.6,0.3,1.3,0.4,2,0.4c0.7,0,1.4-0.1,2-0.4
			c1.2-0.5,2.2-1.5,2.7-2.7c0.3-0.6,0.4-1.3,0.4-2v-6.4h1.3v6.4c0,0.9-0.2,1.7-0.5,2.5c-0.3,0.7-0.8,1.4-1.4,2c-0.6,0.6-1.3,1-2,1.4
			c-0.8,0.3-1.6,0.5-2.5,0.5"/>
		<path class="st0" d="M98.5,23.6c0,0.9-0.2,1.7-0.5,2.5c-0.3,0.8-0.8,1.4-1.4,2c-0.6,0.6-1.3,1-2,1.4C93.8,29.8,93,30,92.2,30
			c-0.9,0-1.7-0.2-2.5-0.5c-0.8-0.3-1.4-0.8-2-1.4c-0.6-0.6-1-1.3-1.4-2c-0.3-0.8-0.5-1.7-0.5-2.5v-8.3H87v4.5h3.5V21H87v2.6
			c0,0.7,0.1,1.4,0.4,2c0.3,0.6,0.6,1.2,1.1,1.6c0.5,0.5,1,0.8,1.6,1.1c1.3,0.6,2.7,0.6,4,0c0.6-0.3,1.2-0.6,1.6-1.1
			c0.5-0.5,0.8-1,1.1-1.6c0.3-0.6,0.4-1.3,0.4-2H98.5z"/>
		<path class="st0" d="M106.5,28.7c0.6,0,1.2-0.1,1.7-0.3c0.5-0.2,1-0.5,1.4-0.8c0.4-0.3,0.8-0.8,1.1-1.2c0.3-0.5,0.5-1,0.7-1.5h1.3
			c-0.1,0.7-0.4,1.4-0.8,2c-0.4,0.6-0.9,1.2-1.4,1.6c-1.8,1.5-4.4,1.9-6.6,1c-0.7-0.3-1.4-0.8-2-1.4c-0.6-0.6-1-1.3-1.4-2
			c-1-2.4-0.5-5.2,1.4-7.1c0.6-0.6,1.3-1,2-1.4c0.8-0.3,1.7-0.5,2.5-0.5c1.5,0,2.9,0.5,4,1.5c0.5,0.5,1,1,1.4,1.6
			c0.4,0.6,0.7,1.3,0.8,2h-1.3c-0.2-0.5-0.4-1.1-0.7-1.5c-0.3-0.5-0.7-0.9-1.1-1.2c-0.4-0.3-0.9-0.6-1.4-0.8
			c-0.5-0.2-1.1-0.3-1.7-0.3c-0.7,0-1.4,0.1-2,0.4c-1.2,0.5-2.2,1.5-2.7,2.7c-0.3,0.6-0.4,1.3-0.4,2c0,0.7,0.1,1.4,0.4,2
			c0.3,0.6,0.6,1.2,1.1,1.6c0.5,0.5,1,0.8,1.6,1.1C105.1,28.6,105.7,28.7,106.5,28.7"/>
		<rect x="114.3" y="14.9" class="st0" width="1.3" height="15.1"/>
		<path class="st0" d="M123.5,17.2c0.8,0,1.7,0.2,2.5,0.5c0.7,0.3,1.4,0.8,2,1.4c2.5,2.5,2.6,6.5,0.1,9c0,0-0.1,0.1-0.1,0.1
			c-0.6,0.6-1.3,1-2,1.4c-0.8,0.3-1.6,0.5-2.5,0.5c-0.9,0-1.7-0.2-2.5-0.5c-1.5-0.6-2.7-1.9-3.4-3.4c-0.7-1.6-0.7-3.4,0-5
			c0.3-0.8,0.8-1.4,1.4-2c0.6-0.6,1.3-1,2-1.4C121.8,17.4,122.6,17.3,123.5,17.2 M123.5,28.8c0.7,0,1.4-0.1,2-0.4
			c1.2-0.5,2.2-1.5,2.7-2.7c0.3-0.6,0.4-1.3,0.4-2c0-0.7-0.1-1.4-0.4-2c-0.5-1.2-1.5-2.2-2.7-2.7c-0.6-0.3-1.3-0.4-2-0.4
			c-0.7,0-1.4,0.1-2,0.4c-0.6,0.3-1.2,0.6-1.6,1.1c-0.5,0.5-0.8,1-1.1,1.6c-0.3,0.6-0.4,1.3-0.4,2c0,0.7,0.1,1.4,0.4,2
			c0.5,1.2,1.5,2.2,2.7,2.7C122.1,28.7,122.8,28.8,123.5,28.8"/>
		<path class="st0" d="M137.9,30c-3.5,0-6.4-2.8-6.4-6.3c0,0,0-0.1,0-0.1v-6.4h1.3v6.4c0,0.7,0.1,1.4,0.4,2c0.3,0.6,0.6,1.2,1.1,1.6
			c0.5,0.5,1,0.8,1.6,1.1c1.3,0.6,2.7,0.6,4,0c1.2-0.5,2.2-1.5,2.7-2.7c0.3-0.6,0.4-1.3,0.4-2v-6.4h1.3v6.4c0,1.7-0.7,3.4-1.9,4.5
			c-0.6,0.6-1.3,1-2,1.4C139.6,29.8,138.8,30,137.9,30"/>
		<path class="st0" d="M158.6,23.6c0,1.7-0.7,3.3-1.9,4.5c-0.6,0.6-1.3,1-2,1.4c-0.8,0.3-1.6,0.5-2.5,0.5c-0.9,0-1.7-0.2-2.5-0.5
			c-1.5-0.6-2.7-1.9-3.4-3.4c-0.3-0.8-0.5-1.7-0.5-2.5v-8.3h1.3v4.5h3.5V21h-3.5v2.6c0,0.7,0.1,1.4,0.4,2c0.5,1.2,1.5,2.2,2.7,2.7
			c0.6,0.3,1.3,0.4,2,0.4c0.7,0,1.4-0.1,2-0.4c0.6-0.3,1.2-0.6,1.6-1.1c0.5-0.5,0.8-1,1.1-1.6c0.3-0.6,0.4-1.3,0.4-2H158.6z"/>
		<polygon class="st0" points="33.3,15.3 13.4,17.4 24.2,1.3 		"/>
		<path class="st0" d="M16.9,18.4v4.5l-0.9,1H6v-10L7,13h7.7l2.9-5.2c-5.7-3.2-13-1.1-16.1,4.7s-1.1,13,4.7,16.1s13,1.1,16.1-4.7
			c0.9-1.7,1.4-3.6,1.5-5.5L16.9,18.4z"/>
		<path class="st0" d="M32.3,17.8l-20,0.3L22,0.6c0.1-0.2,0-0.4-0.2-0.5c-0.2-0.1-0.4,0-0.5,0.1c0,0,0,0,0,0l-7.4,13.3H7.5v8.8h8.8
			v-3.5l16-0.3c0.2,0,0.4-0.2,0.4-0.4C32.8,17.9,32.6,17.8,32.3,17.8C32.4,17.8,32.4,17.8,32.3,17.8"/>
	</g>
</g>
</svg>
