<?xml version="1.0" encoding="utf-8"?>
<!-- Generator: Adobe Illustrator 24.0.2, SVG Export Plug-In . SVG Version: 6.00 Build 0)  -->
<svg version="1.1" id="Layer_1" xmlns="http://www.w3.org/2000/svg" xmlns:xlink="http://www.w3.org/1999/xlink" x="0px" y="0px"
	 viewBox="0 0 160.1 31.6" style="enable-background:new 0 0 160.1 31.6;" xml:space="preserve">
<style type="text/css">
	.st0{fill:#DDDDDD;}
</style>
<title>Asset 1</title>
<g id="Layer_2_1_">
	<g id="Layer_1-2">
		<path class="st0" d="M56.4,24.2c0,0.9-0.2,1.7-0.5,2.5s-0.8,1.4-1.4,2c-0.6,0.6-1.3,1-2,1.4c-0.8,0.3-1.6,0.5-2.4,0.5
			c-0.9,0-1.7-0.2-2.5-0.5c-1.5-0.6-2.7-1.9-3.4-3.4c-0.3-0.8-0.5-1.7-0.5-2.5v-8.3h1.2v4.5h3.5v1.2h-3.5v2.6c0,0.7,0.1,1.4,0.4,2
			c0.5,1.2,1.5,2.2,2.7,2.7c0.6,0.3,1.3,0.4,2,0.4s1.4-0.1,2-0.4c1.2-0.5,2.2-1.5,2.7-2.7c0.3-0.6,0.4-1.3,0.4-2H56.4z"/>
		<path class="st0" d="M64.3,17.8c0.8,0,1.7,0.2,2.5,0.5c0.7,0.3,1.4,0.8,2,1.4c2.5,2.4,2.6,6.4,0.1,9l-0.1,0.1
			c-0.6,0.6-1.3,1-2,1.4c-0.8,0.3-1.6,0.5-2.5,0.5s-1.7-0.2-2.5-0.5c-0.7-0.3-1.4-0.8-2-1.4s-1-1.3-1.4-2c-1-2.4-0.5-5.2,1.4-7.1
			c0.6-0.6,1.3-1,2-1.4C62.6,18,63.5,17.8,64.3,17.8 M64.3,29.3c0.7,0,1.4-0.1,2-0.4s1.2-0.6,1.6-1.1c0.5-0.5,0.8-1,1.1-1.6
			c0.3-0.6,0.4-1.3,0.4-2s-0.1-1.4-0.4-2s-0.7-1.1-1.1-1.6c-0.5-0.5-1-0.8-1.6-1.1c-1.3-0.6-2.7-0.6-4,0c-1.2,0.5-2.2,1.5-2.7,2.7
			c-0.3,0.6-0.4,1.3-0.4,2s0.1,1.4,0.4,2c0.3,0.6,0.6,1.2,1.1,1.6c0.5,0.5,1,0.8,1.6,1.1C63,29.2,63.6,29.4,64.3,29.3"/>
		<path class="st0" d="M78.7,30.6c-0.9,0-1.7-0.2-2.5-0.5c-0.7-0.3-1.4-0.8-2-1.4c-1.2-1.2-1.9-2.8-1.8-4.5v-6.4h1.3v6.4
			c0,0.7,0.1,1.4,0.4,2s0.6,1.2,1.1,1.6c0.5,0.5,1,0.8,1.6,1.1c0.6,0.3,1.3,0.4,2,0.4s1.4-0.1,2-0.4c1.2-0.5,2.2-1.5,2.7-2.7
			c0.3-0.6,0.4-1.3,0.4-2v-6.4h1.3v6.4c0,0.9-0.2,1.7-0.5,2.5c-0.3,0.7-0.8,1.4-1.4,2s-1.3,1-2,1.4C80.5,30.4,79.7,30.6,78.7,30.6"
			/>
		<path class="st0" d="M99.4,24.2c0,0.9-0.2,1.7-0.5,2.5s-0.8,1.4-1.4,2s-1.3,1-2,1.4c-0.8,0.3-1.6,0.5-2.4,0.5
			c-0.9,0-1.7-0.2-2.5-0.5s-1.4-0.8-2-1.4s-1-1.3-1.4-2c-0.3-0.8-0.5-1.7-0.5-2.5v-8.3h1.2v4.5h3.5v1.2h-3.5v2.6
			c0,0.7,0.1,1.4,0.4,2s0.6,1.2,1.1,1.6c0.5,0.5,1,0.8,1.6,1.1c1.3,0.6,2.7,0.6,4,0c0.6-0.3,1.2-0.6,1.6-1.1c0.5-0.5,0.8-1,1.1-1.6
			c0.3-0.6,0.4-1.3,0.4-2H99.4z"/>
		<path class="st0" d="M107.4,29.3c0.6,0,1.2-0.1,1.7-0.3c0.5-0.2,1-0.5,1.4-0.8s0.8-0.8,1.1-1.2c0.3-0.5,0.5-1,0.7-1.5h1.3
			c-0.1,0.7-0.4,1.4-0.8,2s-0.9,1.2-1.4,1.6c-1.8,1.5-4.4,1.9-6.6,1c-0.7-0.3-1.4-0.8-2-1.4s-1-1.3-1.4-2c-1-2.4-0.5-5.2,1.4-7.1
			c0.6-0.6,1.3-1,2-1.4c0.8-0.3,1.7-0.5,2.5-0.5c1.5,0,2.9,0.5,4,1.5c0.5,0.5,1,1,1.4,1.6s0.7,1.3,0.8,2h-1.3
			c-0.2-0.5-0.4-1.1-0.7-1.5c-0.3-0.5-0.7-0.9-1.1-1.2c-0.4-0.3-0.9-0.6-1.4-0.8c-0.5-0.2-1.1-0.3-1.7-0.3c-0.7,0-1.4,0.1-2,0.4
			c-1.2,0.5-2.2,1.5-2.7,2.7c-0.3,0.6-0.4,1.3-0.4,2s0.1,1.4,0.4,2s0.6,1.2,1.1,1.6c0.5,0.5,1,0.8,1.6,1.1
			C106,29.2,106.6,29.3,107.4,29.3"/>
		<rect x="115.2" y="15.5" class="st0" width="1.3" height="15.1"/>
		<path class="st0" d="M124.4,17.8c0.8,0,1.7,0.2,2.5,0.5c0.7,0.3,1.4,0.8,2,1.4c2.5,2.5,2.6,6.5,0.1,9l-0.1,0.1
			c-0.6,0.6-1.3,1-2,1.4c-0.8,0.3-1.6,0.5-2.5,0.5s-1.7-0.2-2.5-0.5c-1.5-0.6-2.7-1.9-3.4-3.4c-0.7-1.6-0.7-3.4,0-5
			c0.3-0.8,0.8-1.4,1.4-2s1.3-1,2-1.4C122.7,18,123.5,17.9,124.4,17.8 M124.4,29.4c0.7,0,1.4-0.1,2-0.4c1.2-0.5,2.2-1.5,2.7-2.7
			c0.3-0.6,0.4-1.3,0.4-2s-0.1-1.4-0.4-2c-0.5-1.2-1.5-2.2-2.7-2.7c-0.6-0.3-1.3-0.4-2-0.4s-1.4,0.1-2,0.4s-1.2,0.6-1.6,1.1
			c-0.5,0.5-0.8,1-1.1,1.6c-0.3,0.6-0.4,1.3-0.4,2s0.1,1.4,0.4,2c0.5,1.2,1.5,2.2,2.7,2.7C123,29.3,123.7,29.4,124.4,29.4"/>
		<path class="st0" d="M138.8,30.6c-3.5,0-6.4-2.8-6.4-6.3v-0.1v-6.4h1.3v6.4c0,0.7,0.1,1.4,0.4,2c0.3,0.6,0.6,1.2,1.1,1.6
			c0.5,0.5,1,0.8,1.6,1.1c1.3,0.6,2.7,0.6,4,0c1.2-0.5,2.2-1.5,2.7-2.7c0.3-0.6,0.4-1.3,0.4-2v-6.4h1.3v6.4c0,1.7-0.7,3.4-1.9,4.5
			c-0.6,0.6-1.3,1-2,1.4C140.5,30.4,139.7,30.6,138.8,30.6"/>
		<path class="st0" d="M159.5,24.2c0,1.7-0.7,3.3-1.9,4.5c-0.6,0.6-1.3,1-2,1.4c-0.8,0.3-1.6,0.5-2.5,0.5s-1.7-0.2-2.5-0.5
			c-1.5-0.6-2.7-1.9-3.4-3.4c-0.3-0.8-0.5-1.7-0.5-2.5v-8.3h1.3v4.5h3.5v1.2H148v2.6c0,0.7,0.1,1.4,0.4,2c0.5,1.2,1.5,2.2,2.7,2.7
			c0.6,0.3,1.3,0.4,2,0.4s1.4-0.1,2-0.4s1.2-0.6,1.6-1.1c0.5-0.5,0.8-1,1.1-1.6s0.4-1.3,0.4-2H159.5z"/>
		<polygon class="st0" points="34.2,15.9 14.3,18 25.1,1.9 		"/>
		<path class="st0" d="M17.8,19v4.5l-0.9,1h-10v-10l1-0.9h7.7l2.9-5.2c-5.7-3.2-13-1.1-16.1,4.7s-1.1,13,4.7,16.1s13,1.1,16.1-4.7
			c0.9-1.7,1.4-3.6,1.5-5.5L17.8,19z"/>
		<path class="st0" d="M33.2,18.4l-20,0.3l9.7-17.5c0.1-0.2,0-0.4-0.2-0.5s-0.4,0-0.5,0.1l0,0l-7.4,13.3H8.4v8.8h8.8v-3.5l16-0.3
			c0.2,0,0.4-0.2,0.4-0.4C33.7,18.5,33.5,18.4,33.2,18.4C33.3,18.4,33.3,18.4,33.2,18.4"/>
	</g>
</g>
</svg>
