<svg xmlns="http://www.w3.org/2000/svg" viewBox="0 0 98.16 78"><defs><style>.cls-1{fill:#9d9fa1;}.cls-2{fill:#d7d8d8;}.cls-3{fill:#484c50;}.cls-4{fill:none;stroke:#d7d8d8;stroke-miterlimit:10;stroke-width:2.34px;}</style></defs><title>Asset 1</title><g id="Layer_2" data-name="Layer 2"><g id="Layer_1-2" data-name="Layer 1"><path class="cls-1" d="M2.4,57.57c1.56.06,2.33.11,3,.15.92.05,1.64.09,3.9.13,3,.11,4.29.12,5.92.13l4.47.07c1.38,0,2.44.13,3.55.22,1.33.11,2.84.24,5.2.31,2,.06,3,0,3.95,0s2,0,4.33,0c1.48,0,2.56.09,3.71.17,1.35.09,2.75.19,5,.21l4.56.14,4.43.14c3.16.09,3.29.09,6.56.15l1.37,0c2.07,0,3.3.06,4.39.06s2.19,0,4,.07l3.24.08c1.83,0,3.28.08,6.18.13,2.17,0,3.1.13,4.09.2s2,.15,4.3.21c2.59.06,3.76,0,4.78,0s1.66,0,3.17,0a.46.46,0,0,0,.48-.45h0a.48.48,0,0,0-.46-.49c-1.53,0-2.3,0-3.2,0s-2.17,0-4.74,0c-2.28-.06-3.28-.14-4.25-.21s-1.95-.15-4.15-.2c-2.9,0-4.35-.09-6.18-.13l-3.23-.08c-1.79,0-2.85-.06-4-.07s-2.32,0-4.38-.06l-1.37,0c-3.27-.06-3.4-.06-6.56-.16L50,58.24,45.4,58.1c-2.18,0-3.57-.12-4.91-.21-1.16-.08-2.25-.15-3.75-.17-2.29-.09-3.3-.07-4.37,0s-1.93,0-3.9,0c-2.34-.07-3.83-.2-5.15-.31-1.13-.09-2.2-.18-3.61-.22-2.09,0-3.36-.06-4.48-.07-1.62,0-2.9,0-5.91-.14-2.24,0-3-.07-3.86-.12-.68-.05-1.46-.09-3-.15a.48.48,0,0,0-.49.46h0a.47.47,0,0,0,.46.48M.46,70.91c2.21.06,3.36.11,4.48.15l4.5.16c3.1.07,4.83.15,6.84.25l1.62.07,3.87.11c1.7.06,2.64.09,6.22.16,1.36,0,2.31,0,3.32-.06,1.27-.06,2.58-.12,4.87,0H37l6.22.15,2,0c2.12,0,3.34.14,4.64.24,1,.07,2.06.15,3.6.22,2,0,2.84,0,3.69,0s1.82,0,4.15,0,3.29.17,4.33.25c1.28.09,2.49.19,5.66.28,2.52,0,3.55.09,4.74.15,1,0,2.11.1,4.3.16a33.09,33.09,0,0,0,3.4-.07,49.65,49.65,0,0,1,5.07-.1l1.08,0c2.08,0,2.85.05,7.39.19a.47.47,0,0,0,.49-.45.49.49,0,0,0-.46-.49c-4.54-.14-5.32-.15-7.4-.19l-1.08,0a48.32,48.32,0,0,0-5.15.1,31.82,31.82,0,0,1-3.32.07C78.1,72.25,77,72.2,76,72.15c-1.2-.06-2.24-.11-4.77-.15-3.14-.09-4.34-.19-5.61-.28-1-.08-2.13-.16-4.37-.25s-3.25,0-4.2,0-1.7,0-3.64,0c-1.52-.07-2.55-.14-3.56-.22-1.31-.1-2.55-.19-4.68-.24l-2,0L37,70.79h-.79a47.77,47.77,0,0,0-4.94,0c-1,0-1.93.09-3.26,0-3.58-.06-4.51-.09-6.21-.15l-3.86-.11-1.62-.07c-2-.1-3.74-.18-6.86-.25L5,70.12C3.86,70.08,2.7,70,.49,70a.47.47,0,0,0-.49.45H0a.48.48,0,0,0,.46.48m0,4.1a.48.48,0,0,0,.46.48c2.29.05,3.48,0,4.63,0s2.27-.09,4.43,0,3.14.15,4.1.24,2,.18,4.36.26C21.05,76,22,76,23.08,76s2.06,0,4.72.08c2.48.1,3.6.07,4.68,0,.86,0,1.67,0,3.13,0,3,.07,4.07.11,5.36.16l4.41.14c2.43,0,3.18.07,4,.11.68,0,1.45.08,3.16.12,2.68.07,4.17.06,5.74,0,1.25,0,2.54,0,4.51,0,.93,0,1.5.1,2.17.18a57.19,57.19,0,0,0,6.3.38c2.85.1,3.19.11,4.82.14l3.43.06c1.81,0,2.86,0,3.89,0s2.31-.07,4.55,0,3.33.16,4.57.28c1,.1,2.08.21,3.76.27a.46.46,0,0,0,.48-.45h0a.46.46,0,0,0-.45-.48c-1.64-.06-2.69-.16-3.7-.27-1.2-.12-2.44-.24-4.64-.28s-3.45,0-4.6,0-2.06.07-3.84,0l-3.43-.06c-1.62,0-2,0-4.81-.15A53.79,53.79,0,0,1,65.12,76c-.69-.08-1.28-.15-2.26-.18-2,0-3.28,0-4.53,0-1.57,0-3,0-5.71,0-1.71,0-2.47-.08-3.15-.12-.87,0-1.63-.08-4.07-.11L41,75.35c-1.29,0-2.31-.09-5.36-.16-1.49,0-2.31,0-3.18,0-1.07,0-2.17.06-4.62-.05-2.68-.07-3.74-.07-4.75-.08s-2,0-4.63-.08c-2.36-.08-3.35-.17-4.3-.26s-1.9-.17-4.16-.24-3.37,0-4.5,0-2.31.09-4.57,0A.47.47,0,0,0,.45,75h0"/><path class="cls-2" d="M.06,61.82a.47.47,0,0,0,.46.48c2.44.06,3.81.08,4.91.1,1.51,0,2.61,0,5.44.14,1.35,0,2.38,0,3.38,0,1.2,0,2.33-.07,4,0,2.56.07,3.81.13,4.91.18s2.21.11,4.48.15c1.53.05,2.64.1,3.71.15,1.4.06,2.72.11,4.8.17,1.81,0,3,.13,4.15.19,1.34.08,2.5.15,4.32.17l4.4.15,5.33.17a38.6,38.6,0,0,0,3.94,0c.71,0,1.45-.08,3.41,0,3,.09,4.08.14,5.33.19,1,.05,2.08.1,4.3.18s3.15,0,4.21,0,1.94,0,3.83,0,3.38.2,4.72.32c1.18.11,2.4.22,4.05.29,2.28,0,3.54,0,4.55,0s1.89,0,3.42,0a.47.47,0,0,0,.48-.46h0a.46.46,0,0,0-.46-.48c-1.54,0-2.34,0-3.44,0s-2.26,0-4.53,0c-1.6-.07-2.76-.17-4-.29s-2.74-.25-4.78-.32-2.91,0-3.87,0-2,.05-4.16,0S68,63,67.05,63c-1.25-.05-2.33-.1-5.35-.2-2,0-2.76,0-3.48.06a37.11,37.11,0,0,1-3.86,0L49,62.67l-4.42-.14c-1.8,0-3-.09-4.29-.17-1.1-.06-2.34-.14-4.17-.2-2.08,0-3.4-.1-4.79-.16-1.08,0-2.18-.1-3.73-.15-2.26-.05-3.28-.09-4.45-.15s-2.37-.12-4.94-.18c-1.68-.05-2.87,0-4,0-1,0-2,.06-3.33.05-2.83-.1-3.93-.12-5.45-.14-1.1,0-2.46,0-4.89-.1a.49.49,0,0,0-.49.46Z"/><path class="cls-2" d="M.73,66.64a41.9,41.9,0,0,0,5.14,0,29.13,29.13,0,0,1,3.59-.06l3.84.13,4.58.15c2.56,0,3.8.16,5.11.28s2.57.23,5.15.31h2.75c1.35,0,2.75,0,5.08,0,2.71.07,4,.06,5.1,0s1.8,0,3.38.05c2,0,3.38.17,4.69.3,1.13.11,2.19.22,3.58.25,3.38.09,4.82,0,6.09,0,.92,0,1.78-.08,3.27,0a39.41,39.41,0,0,1,4.26.26,31.41,31.41,0,0,0,3.73.22c3.16.08,4.26.06,5.24.05s1.61,0,3.58,0c2.83.08,4.06.18,5.14.26s1.9.16,3.82.18c4.68.14,5.5.16,9.83.27a.47.47,0,0,0,.48-.46h0a.47.47,0,0,0-.46-.48c-4.32-.11-5.15-.13-9.82-.27-1.9,0-2.77-.09-3.77-.17s-2.34-.19-5.2-.27c-2,0-2.78,0-3.62,0s-2.05,0-5.21,0a29.73,29.73,0,0,1-3.63-.22A43.08,43.08,0,0,0,62.1,67c-1.52,0-2.4,0-3.34.06-1.25.06-2.67.12-6,0-1.36,0-2.41-.13-3.52-.25-1.32-.13-2.69-.26-4.75-.3-1.59-.07-2.4-.06-3.42,0s-2.37,0-5.07-.06c-2.34,0-3.75,0-5.11,0H28.16c-2.54-.08-3.84-.2-5.09-.31s-2.58-.23-5.17-.28l-4.57-.15-3.84-.13a26.92,26.92,0,0,0-3.69.06,40.22,40.22,0,0,1-5,0,.47.47,0,0,0-.49.45h0a.49.49,0,0,0,.46.49"/><polygon class="cls-3" points="26.86 71.06 34.86 35.53 42.86 0 69.63 24.69 96.4 49.38 61.63 60.22 26.86 71.06"/><path class="cls-4" d="M70.35,40.28h0A15.73,15.73,0,1,1,85.43,23.93,15.73,15.73,0,0,1,70.35,40.28Z"/><path class="cls-1" d="M21.54,45.91a3.91,3.91,0,1,1,1.23-5.39,3.91,3.91,0,0,1-1.23,5.39"/></g></g></svg>