<svg id="Layer_1" data-name="Layer 1" xmlns="http://www.w3.org/2000/svg" viewBox="0 0 66.6 60.17"><defs><style>.cls-1{fill:#d7d8d8;}.cls-2{fill:#545655;}.cls-3{fill:#484c50;}.cls-4{fill:#737578;}.cls-5{fill:#9d9fa1;}.cls-6{fill:none;stroke:#9d9fa1;stroke-linecap:round;stroke-linejoin:round;stroke-width:1px;}</style></defs><title>email_section_icon2</title><path class="cls-1" d="M53.93,23.76a21.33,21.33,0,1,1-30.17,0,21.34,21.34,0,0,1,30.17,0"/><path class="cls-2" d="M18.66,29.11a7.39,7.39,0,1,1,10.45,0,7.4,7.4,0,0,1-10.45,0"/><path class="cls-3" d="M38.84,38.84a22.37,22.37,0,0,1-31.61,0L0,31.61.65,31l7.23,7.23A21.43,21.43,0,0,0,38.19,7.88L31,.65,31.61,0l7.23,7.23a22.37,22.37,0,0,1,0,31.61"/><path class="cls-4" d="M35.83,35.83a18.11,18.11,0,0,1-25.59,0L3,28.6,3.66,28l7.23,7.23A17.18,17.18,0,0,0,35.18,10.89L28,3.66,28.6,3l7.23,7.23a18.11,18.11,0,0,1,0,25.59"/><path class="cls-5" d="M32.82,32.82a13.86,13.86,0,0,1-19.57,0L6,25.59l.65-.65,7.23,7.23A12.92,12.92,0,0,0,32.17,13.9L24.94,6.67,25.59,6l7.23,7.23a13.86,13.86,0,0,1,0,19.57"/><line class="cls-6" x1="46.07" y1="45.45" x2="39.36" y2="45.31"/><line class="cls-6" x1="42.65" y1="48.73" x2="42.79" y2="42.02"/><line class="cls-6" x1="56.08" y1="45.45" x2="49.38" y2="45.31"/><line class="cls-6" x1="52.66" y1="48.73" x2="52.8" y2="42.02"/><line class="cls-6" x1="66.1" y1="45.45" x2="59.39" y2="45.31"/><line class="cls-6" x1="62.67" y1="48.73" x2="62.81" y2="42.02"/></svg>