<svg id="Layer_1" data-name="Layer 1" xmlns="http://www.w3.org/2000/svg" viewBox="0 0 65.52 61.72"><defs><style>.cls-1{fill:#d7d8d8;}.cls-2{fill:#9d9fa1;}.cls-3{fill:#545655;}</style></defs><title>email_section_icon4</title><path class="cls-1" d="M38,59.25V2.46A2.47,2.47,0,0,0,35.49,0h-9A2.46,2.46,0,0,0,24,2.46V59.25a2.47,2.47,0,0,0,2.46,2.47h9A2.48,2.48,0,0,0,38,59.25"/><path class="cls-2" d="M65.52,32.7a3.77,3.77,0,0,0-3,1.07l-2.63,2.64a2,2,0,0,1-2.8,0l-2.63-2.64a3.8,3.8,0,0,0-5.37,0l-2.64,2.64a2,2,0,0,1-2.8,0L41,33.77a3.8,3.8,0,0,0-5.37,0L33,36.41a2,2,0,0,1-2.8,0l-2.64-2.64a3.82,3.82,0,0,0-3.57-1V34.7a1.92,1.92,0,0,1,.89-.22,2,2,0,0,1,1.4.58l2.63,2.63a3.8,3.8,0,0,0,5.37,0l2.63-2.63a2,2,0,0,1,1.4-.58,2,2,0,0,1,1.4.58l2.64,2.63a3.78,3.78,0,0,0,5.37,0l2.63-2.63a2,2,0,0,1,2.8,0l2.64,2.63a3.79,3.79,0,0,0,5.36,0l2.64-2.63a2,2,0,0,1,1.72-.55Z"/><path class="cls-2" d="M65.52,22.94a3.81,3.81,0,0,0-3,1.08l-2.63,2.64a2,2,0,0,1-2.8,0L54.45,24a3.8,3.8,0,0,0-5.37,0l-2.64,2.64a2,2,0,0,1-2.8,0L41,24a3.8,3.8,0,0,0-5.37,0L33,26.66a2,2,0,0,1-2.8,0L27.57,24A3.8,3.8,0,0,0,24,23V25a1.92,1.92,0,0,1,.89-.22,2,2,0,0,1,1.4.58l2.63,2.63a3.8,3.8,0,0,0,5.37,0l2.63-2.63a2,2,0,0,1,1.4-.58,1.93,1.93,0,0,1,1.4.58l2.64,2.63a3.8,3.8,0,0,0,5.37,0l2.63-2.63a2,2,0,0,1,2.8,0l2.64,2.63a3.79,3.79,0,0,0,5.36,0l2.64-2.63a2,2,0,0,1,1.72-.55Z"/><path class="cls-3" d="M0,32.33A20.57,20.57,0,0,0,20.57,52.9V11.76A20.57,20.57,0,0,0,0,32.33"/></svg>