<svg id="Layer_1" data-name="Layer 1" xmlns="http://www.w3.org/2000/svg" viewBox="0 0 67.86 60.17"><defs><style>.cls-1{fill:#9d9fa1;}.cls-2{fill:none;stroke:#545655;stroke-miterlimit:10;stroke-width:1.81px;}</style></defs><title>email_section_icon3</title><path class="cls-1" d="M30.24,31.4,56.84,4.8a37.62,37.62,0,0,1,0,53.2Z"/><path class="cls-1" d="M27.64,59.38h.61l.84,0,.92.06v.23l.17.18c-.08.07-.08.07-1.11,0l-.73,0-.32.31v-.32h-.73c-.9,0-.9,0-1-.07l.17-.16h0v-.24h1.15m2.2.17Z"/><path class="cls-1" d="M22.63,57v.33l1.66,0v.23h0v-.23h0l1.84-.09h.13l1,0,.84,0,0,.23h0v-.23h0l1,0h.59c.31,0,.48,0,.48.25a.23.23,0,0,1-.23.24h0l-1.84,0h-.28l-.58,0-.84,0V58l-.32-.31-1,0-.81,0h-2l-1.1-.06-.67,0-.09.08-.09-.08-1.79.14h0a.23.23,0,0,1-.23-.24c0-.22.12-.23.51-.26l.65,0,1-.07h0l.79,0,1,.06Zm7.14.46Z"/><path class="cls-1" d="M21.91,54.72l.33.31c.38,0,1.73-.12,1.83-.14l0,.23h.25a.24.24,0,0,0-.2-.23l1.84.19.09-.08.09.08L27.88,55h.17l1.92,0h0a.24.24,0,0,1,.24.24c0,.23-.17.24-.48.24H27.92l-1.08.08c-.44,0-.65,0-.76,0h0l-1-.1-.68-.07-.28,0-.29,0-.67,0-1,.06h-2c-.07,0-1.85,0-1.94,0v0h-.39l-1,0h-.56a2,2,0,0,1-.29,0l-.68,0-1,.07a.24.24,0,0,1,0-.47L16.22,55l0,.23h.24a.23.23,0,0,0-.21-.23l1.55,0h2.08l.28,0h1.72Z"/><path class="cls-1" d="M18.73,52.7H19v0l.62,0,.95.07h.08l.23,0,.58,0,1-.06,0,.23h.25a.24.24,0,0,0-.2-.23l1.85.17h0l.26,0,.62,0,1,0h.24l.56,0,1,0h.05V53h0v-.23l1.54,0c.43,0,.43,0,.5.05L30,53v.24h-.33l-1,0h-.63l-1.6,0v.34l-.33-.33-1.55.06v0h-.23l-1-.09-.64-.06-.28,0-.31,0-.71,0-.82.05,0-.24,0,.24-1-.08-.58,0-.23,0h0l-1.85.17h0c-.14,0-.45,0-1.33-.06l-.6,0H12.74l-1.5.07A.24.24,0,0,1,11,53.1c0-.23.19-.24.38-.25l1.36-.06.36,0V53h0v-.24H15l.63,0,1.26.07h0l.27,0,.63-.05,1-.09"/><path class="cls-1" d="M30,50.49a.23.23,0,0,1,.23.24c0,.22-.17.23-.41.25l-.47,0-1.25.09,0-.23,0,.24-.28,0-1,0-.44,0h-.18l-.25,0-.61,0-1,.06,0-.23h0v.23h0l-1.91,0H20.37a5.92,5.92,0,0,1-.73,0l-1.11,0-.33.32v-.33H16.52v0L14.68,51l-.33.33V51l-1.15,0c-.3,0-.46,0-.55,0h0l-1.24,0c-.39,0-.58,0-.69,0h0l-1.28,0c-.73,0-.73,0-.81,0L9,50.8,8.8,51v-.24l.63,0c.8,0,1.15,0,1.3,0h0l.68,0c.77,0,1.1,0,1.25,0h0l.54,0,.9,0h.5l1,0,.64,0,.28,0h2.16l1,0,.71,0h0c.14,0,.43,0,1.07,0h.85l.28,0,.64,0,1,0h0l.29,0,.72,0,.86-.05,0,.24h.25a.25.25,0,0,0-.21-.24l1.62.07.26,0h.12l1.15-.09.65,0h0"/><path class="cls-1" d="M9,48.07v.34H9l1.5,0h.17l1.71-.14v0h.24l1,.09.65.06.28,0H16.5l.28,0,.68,0,.93-.06,0,.23h0l0-.23.46,0,.95.07.36,0h.14l.26,0,.63,0,1,0h.08l.92,0,.91,0,0,.23h0l0-.23,1.21.1.5,0,.19,0h0l1.69,0h.24l1,0,.66,0c.39,0,.52,0,.52.25A.23.23,0,0,1,30,49l-1.92-.09h0l-.27,0h-.62l-1,0h-.24v0l-.49,0-.83-.07-.29,0h-.37l-.64,0-.78,0v.34l-.33-.33c-.37,0-1.68.09-1.8.11l0-.23h-.24a.24.24,0,0,0,.19.23l-1.43-.11-.34,0-.13,0a1.7,1.7,0,0,1-.27,0l-.66,0-1,.06,0-.24h-.25a.25.25,0,0,0,.22.24c-.13,0-1.81,0-1.89,0l0-.24,0,.24-1.91-.18h0l-.27,0-.67.05-1,.08h-.24L9,48.88H8.76l-1,0-.65,0c-.38,0-.52,0-.52-.25a.23.23,0,0,1,.23-.24h0l1.8.08Zm16.91.63v0m3.86,0Z"/><path class="cls-1" d="M20.24,46l.31.29,1-.11c.53-.06.75-.08.86-.08h0l1.79.14.09-.09.09.09,1.79-.08,0,.23h0v-.24h1.9l1,.1.64.06c.38,0,.5.05.5.26a.23.23,0,0,1-.23.24h0l-1.79-.18-.32.3v-.31H26.19l-.27,0-.64,0-1,.05h-.24v0l-.73-.06-.66-.05-.26,0h0l-.8.09c-.69.08-1,.11-1.12.11s-.5,0-1.3,0h-.52l-.33.32v-.33H16.92l-.26,0H15V47l-.32-.31H14.5l-1.42.09h-.23l-1-.07-.65,0-.29,0c-.19,0-.6,0-1.57,0H9.27V47l-.33-.32-1,.06c-.46,0-.69.05-.81,0a4.51,4.51,0,0,1-.64,0l-1-.06-.28,0v-.23l-.16-.18c.07-.07.07-.07.46,0L7,46.29l.1-.08.09.08.7,0L9,46.19h.38l1.56,0v.23h0l0-.23,1.79.12.32-.31v.31l1.39-.09h2.18v.23h0l0-.23.85,0h1.66l1,0Zm9.53.56Z"/><path class="cls-1" d="M28.38,43.76v.31L30,44a.23.23,0,0,1,.25.24c0,.22-.15.23-.49.24l-.6,0-1,0h-.06c-.1,0-.27,0-.53,0l-1.19-.06-.1.09-.09-.09-1.74,0,0-.24h-.25a.24.24,0,0,0,.21.23l-1.73,0h-.11l-.95-.05-.63,0-.28,0h0l-1.85.06,0-.23,0,.23-1,0-.6,0H17l-.2,0-.51,0-.92.07v.34L15,44.51l-1.75.07,0-.23,0,.23-.66-.08-.8-.1-.29,0-.09,0-.25,0-.64.08-1,.12H9.25v0l-1.5-.11-.15,0h0l-1.45.06-.42,0H4.13c-.3,0-.48,0-.48-.23a.24.24,0,0,1,.26-.24H5.75l.38,0c1,0,1.35-.06,1.51,0h.14l1,.07.49,0h.17c.16,0,1.75-.21,1.84-.23l0,.24h0l.05-.23,1.18.14.47.06.18,0,.27,0,.64,0,.94,0h.09l.27,0,.77-.06.71-.05,0,.23h0l0-.23.85,0,.68,0,.32,0,.27,0,.62,0,1,0h.23l1.63.07h0l1,0h.58l.25,0,.28,0h.63l.95,0h.24v0l1.07,0,.47,0Zm-7.7.38Z"/><path class="cls-1" d="M28.43,41.62v.3h.31c1.35,0,1.35,0,1.43,0l-.16.17h0l0,.24-1.24,0h-.56l-.94-.09-.62-.07-.26,0-.25,0-.62,0-.94.09h-.23v0l-1.58-.1h-.09l-1.07.08-.42,0h-.23l-1,0-.61,0-.29,0c-.18,0-.57,0-1.46,0H17.3l-1,0-.59,0-.25,0h-.73c-.62,0-.91,0-1.06,0l-.28,0-.62.05-.93.06H11l-.62,0H10l-1.79,0V42H8a.24.24,0,0,0,.22.24l-1.14,0-.64,0h-.1l-1.72,0V42.1l0,.23-1.48,0H2.87c-.08,0-.31,0-.31-.24a.25.25,0,0,1,.25-.24h.31l.94,0h.4l.16,0h.21l1.59,0v.23h0v-.23l.63,0,1.13,0h.08l1,0h.81l1.71,0,.09-.09.1.09,1.7-.12,0,.24h0l0-.24c.06,0,.63,0,1.05,0s.67,0,.78,0h0l1.77.09h.34c.41,0,1.38,0,1.47,0v.24h.24a.24.24,0,0,0-.21-.23l1.79.08h0l.17,0,.44,0,1-.07v0h.23l.95.06.61,0,.24,0h0l1.8-.17,0,.24h0l0-.24,1.69.18Z"/><path class="cls-1" d="M5.43,39.38l.33.32.61,0,1.13,0h.32l.64,0,.95,0h0c.12,0,.36,0,.88,0l.9.06.33-.31v.31l1.61-.07,0,.23h.24a.23.23,0,0,0-.2-.23l1,.06.6,0,.24,0,.18,0,.49-.06,1-.12v0h.23l1,.12.63.08.26,0H19l.6,0,1,0h.14l.36,0,.91-.06.46,0v.23h0l0-.23,1.07.1.54,0,.22,0,.26,0,.64-.08,1-.11h.24l1.43.06.24,0h0l1,.07.59,0c.33,0,.48,0,.48.25a.23.23,0,0,1-.23.24h0l-.83-.06-.7,0-.32,0h0L26.39,40h-.11l-1.85.22,0-.23,0,.23-.76-.06-.74-.07-.34,0H22.4l-.33,0-1.39.08,0-.23h-.24a.23.23,0,0,0,.22.23l-1.82.08,0-.23h-.24a.23.23,0,0,0,.18.23L16.9,40l-.12,0-1.71.21L15,40l0,.23-.85-.05-.69,0-.31,0H12.9l-.61,0-1,0h-.23v0l-.81,0-.75,0-.09.09-.09-.09-1.55,0v.33l-.32-.32-1.06,0c-.43,0-.63,0-.74,0s-.39,0-.93,0l-.92,0v-.23h0l0,.23L1.92,40l-.09,0a.24.24,0,0,1-.15-.22.23.23,0,0,1,.24-.23l1,.06.63,0,.3,0c.14,0,.4,0,.92,0h.69Zm24.34.56Z"/><path class="cls-1" d="M10.59,37.05l.34.33,1.79-.08,0,.24h0l0-.24,1.89.18h0l.3,0,.68,0,.91,0H18.5l1,0,.65,0,.27,0h.16l.39,0,1,0,.39,0h0a4.82,4.82,0,0,1,.59,0l1,0,.37,0,.27,0,.65-.07.75-.07v0h.24l1,0,.65,0,.29,0H30c.26,0,.28.19.28.24a.25.25,0,0,1-.26.24c-.17,0-1.78,0-1.88,0v-.23l0,.23-1.81-.08-.09.08-.08-.08-1.8.19h0a3.35,3.35,0,0,1-.42,0l-1.53-.06H22l-1.5,0,0-.23h-.25a.24.24,0,0,0,.22.24l-1.81-.1-.32.32v-.33H16.59l-.28,0-.64,0-.77,0v0h-.24l-1-.1L13,37.8l-.27,0-.27,0-.64,0-1,0h-.3l-.66,0-.73,0H8.91l-1-.08-.65,0-.28,0-.22,0-.55,0-1.1.09h0a1.52,1.52,0,0,1-.33,0H4.14l-1,0H2.62c-1.47,0-1.47,0-1.54,0l.16-.17h0l0-.24c.08,0,.87,0,1.35,0h.55l1.91,0h.09l.26,0,.76-.06L7,37.31l0,.23h.24A.24.24,0,0,0,7,37.31c.1,0,1.41.12,1.79.15l.08-.08.09.08,1.59-.06Zm19.18.57Z"/><path class="cls-1" d="M18.86,35l.33.31c.35,0,1.59-.14,1.69-.16h1.87l.41,0,1.38.07h0v.24h0v-.24h1.82l.27,0,.63,0,.88,0h0l.52,0L30,35.3v.23l.17.18c-.08.07-.08.07-1.52,0l-.47,0h0l-.26,0-.62,0-.91,0,0-.23h-.24a.23.23,0,0,0,.21.23H24.52c-.18,0-.55,0-1.39-.06l-.31,0-.32.31v-.32H20.94l-.27,0-.6.06-1,.08h-.69l-1.11,0,0-.24h0l0,.24-1.78-.07h0v-.24h0l0,.24-1.63-.16-.17,0h0l-1.07,0-.72,0-.22,0-.52,0L10,35.76l0-.24,0,.24-.9,0-.62,0-.26,0h0l-1.11.09a6.09,6.09,0,0,1-.74,0h0l-.57,0L5,35.7l-.3,0-.12,0H3.78l-1,0H2.31l-.9,0H1c-.16,0-.37,0-.37-.24a.24.24,0,0,1,.24-.24h0l1.39.05h.41c.1,0,1.67,0,1.79,0v.24h0l0-.23,1.23.1.41,0h.13L7,35.28c.75-.06,1-.09,1.17-.08h0l.88.05.64,0,.26,0h.09l.26,0,.73,0,.73,0,0,.23h0v-.23l.71,0c.72,0,1,0,1.13,0h0l1.61.16.16,0h0l1,0,.59,0h1.83Zm11,.36Z"/><path class="cls-1" d="M15.45,32.69V33l1.61,0H19l1,0h.76L21.87,33l.5,0v0h.24l1,.11.63.08.24,0L26.28,33h0c.13,0,.43,0,1.18,0h.69l.27,0L29,33l1,0h.24v.24a.23.23,0,0,1-.24.23l-1.82.07h-.73l-1.14,0h0l-.26,0-.63.07-1,.09h-.24v0l-1.53-.19-.08.08-.09-.08-.61.05c-.72.06-1,.09-1.16.08h0c-.09,0-1.71,0-1.82,0v-.24h0v.24H17.05l-1,0h-.86l-.39,0-1.47-.08H11.75v.3l-.32-.29-1.73.2,0-.23v.23H7.81l-1-.11-.63-.08-.26,0H5.28l-1.13,0h0c-.14,0-.43,0-1.17,0H2.27l-.26,0-.61,0-1,0H.19v-.24A.24.24,0,0,1,.43,33l1.83-.07H4.49l.78,0h.67l0,.23H6.2A.23.23,0,0,0,6,32.9l1.71.21.32-.3v.31H9.66l.26,0,.64-.08.95-.1h1.84l.56,0,.95.05h.26Zm14.32.48Z"/><path class="cls-1" d="M.24,30.7h0l1.84,0h0c.17,0,.55,0,1.46,0H4l.26,0,.62,0,1-.05h.23l1.44,0h.19l1,.06.63,0,.29,0h0l1.83,0v.23h.25a.24.24,0,0,0-.22-.23l1,0H14l1,0h.06l1.18-.09a7.06,7.06,0,0,1,.72,0h0l1.27.11.41,0h2L22,30.82a3.85,3.85,0,0,1,.53,0h0l1.85,0V31h0l0-.24h1.83V31h.24a.24.24,0,0,0-.22-.24c.08,0,1.15,0,1.84,0h0l.76,0,1.1.07v.23h0l.16.17c-.08.08-.08.08-1.3,0l-.72,0h-.93c-.53,0-.79,0-.92,0H22.57l-.5,0-.88.06-.5,0H18.85v-.23l0,.23-.57,0-.85-.07-.31,0H17l-.65.05-.8.06-.44,0h0l-1.81,0,0-.23h0l0,.23H11.37l-1,0-.57,0a1.19,1.19,0,0,1-.28,0h0L7.68,31.2H5.82L4,31.27H3.54l-1.3,0H1.16l-.64,0c-.37,0-.52,0-.52-.24a.24.24,0,0,1,.24-.24M5.82,31Zm24,.14Z"/><path class="cls-1" d="M28.38,28.23v.35l.59,0,1,.06c.1,0,.31,0,.31.24a.23.23,0,0,1-.26.23l-1-.06-.56,0h-.24l-1,0-.62,0-.27,0h0l-1.83.09,0-.23h-.24a.24.24,0,0,0,.22.24c-.1,0-1.15,0-1.61,0h-.24l-1,0H21l-.3,0H18.86l-.62,0L17,29h-.2l-1.43,0v.34L15,29l-.76.05-1,.05h0l-.65,0-.81,0h-.4l-.26,0-.63,0-.93.07,0-.24,0,.24-1.29-.1-.4,0H7.66l-.74,0-.75,0H5.72l-.28,0-.8,0-.65,0,0-.24H3.72a.24.24,0,0,0,.23.24H4l-.89,0a9.54,9.54,0,0,1-1,0h0L.23,29.05.14,29A.24.24,0,0,1,0,28.82a.21.21,0,0,1,.07-.17.21.21,0,0,1,.17-.07l1,.08.63.06.28,0h0L3,28.7l.9,0,.22,0,.47,0,1.16-.06,0,.24h.25a.25.25,0,0,0-.22-.24l1.09,0h.53l.24,0h0l.56,0,1.17.09h.12l.27,0,.65-.05.91-.06,0,.24h0l0-.24,1.19,0h.65l1-.05.85-.05.22,0h.46l1,0H17l1.3.06.58,0h1.86l1.85,0h.24l.55,0,1.07,0h0l.26,0,.63,0,1,0h.24l1.53,0Zm1.39.69Z"/><path class="cls-1" d="M24.08,26.31h.38l1,.08.62.06.26,0h.12l1.69-.12,0,.23h0v-.24l.6,0,1.13,0c.12,0,.34,0,.34.24a.23.23,0,0,1-.25.23l-1.23,0h-.6l-.19,0-.49,0-1,.07h-.13l0-.24,0,.23-1.72-.15-.33.31v-.32H22.61l-.12,0-.37,0L20.8,27l0-.24,0,.24L20,27l-1-.09H18.9l-.26,0-.63,0-1,0H16.6l-1.38,0v-.24h0l0,.24-1.73-.09-.33.32v-.32h-1.6a1.7,1.7,0,0,1-.27,0l-.61,0-1,0H9.43l-1.6,0v-.23H7.58a.24.24,0,0,0,.21.23c-.11,0-1.73,0-1.81,0v-.24H5.73a.22.22,0,0,0,.21.23H4.35v.32L4,26.87,2.3,27H.62c-.25,0-.44,0-.44-.24a.23.23,0,0,1,.26-.23c.14,0,1.7,0,1.81,0h0a2,2,0,0,1,.28,0l.63-.05,1-.06H7.85l1,0h.56l.25,0h0l1.82-.09h1.87l1,0,.63,0a1.87,1.87,0,0,1,.3,0c.18,0,.55,0,1.37,0H17l.09-.09.09.09,1.73-.1,0,.23h.25a.24.24,0,0,0-.21-.23l1.1.09.52,0,.19,0,.11,0,1.2-.14.51-.07h1.51m5.69.34Z"/><path class="cls-1" d="M6,24l.33.32,1-.09c.41,0,.61-.05.71-.05h0l.71,0,1,0H9.9l1,.05.6,0,.26,0h2l.49,0,1-.05h.23l.25,0,1.46-.09,0,.24h0l0-.24s.22,0,1.77.07h.06l1,0,.57,0h.27c.07,0,1.7,0,1.8,0v.24h0l0-.24,1.06.06.52,0,.21,0,.27,0,.62-.06,1-.1h0l1.8,0v.24h0v-.24c.06,0,.84,0,1.3,0,.61,0,.61,0,.68.06l-.16.17h0v.24h-.51c-.77,0-1.12,0-1.29,0H26.36l-1.79.19,0-.23h0l0,.23-.75,0-1-.05H20l-.68,0H19l-1,0-.55,0h-.37l-1.32.08-.35,0h-.14l-1.68.09,0-.23v.23l-1.8,0,0-.23h-.24a.23.23,0,0,0,.21.23L10,24.72,9.66,25V24.7l-.89,0-.5,0-.2,0h0l-.65.05c-.69.06-1,.09-1.15.09H2.58l-.94-.08L1,24.64c-.38,0-.5-.05-.5-.26a.23.23,0,0,1,.23-.24h0l1.72.15L2.82,24v.3H4.39v.23h.25a.23.23,0,0,0-.22-.23H6Z"/><path class="cls-1" d="M8.68,21.73l.32.32,1.4-.1a2.94,2.94,0,0,1,.46,0h0l1.81.17L13,21.8v.3h1.69l.24,0,.58,0L16.56,22h0c.12,0,.38,0,1,0h.94v.24h0V22h0l1.9,0h0L21,22l1.24.08.33-.33v.33l1.45,0h.24l1,.05.64,0,.27,0,.19,0,.5,0L28.05,22l0,.24h0V22L29,22c1.15,0,1.15,0,1.22,0l-.17.17h0v.24h0l-1,0c-.46,0-.7,0-.83,0l-.13,0-1.1.1-.7.06,0-.23,0,.23-1.88-.11H24l-.62,0-1,0h-.24v0L21,22.48l-.56,0h0l-.27,0h-2.6l-.94,0h-.1l-1,.06-.83.06,0-.24v.24H12.75l-1-.09-.66-.06-.27,0h0l-.41,0-1,.07-.53,0h-.1l-.92,0-.9,0,0-.23,0,.23-1.38,0H3.17v-.23l0,.23-1-.06-.65,0c-.38,0-.52,0-.52-.26A.23.23,0,0,1,1.24,22h0l.92.06.67,0a2.16,2.16,0,0,1,.3,0l.3,0H5.06v.24h0v-.24h.5l.92,0H7l.26,0,.63,0,.78,0Z"/><path class="cls-1" d="M7.34,19.61l.32.3,1.56-.15h3.94l0,.23h0l0-.23,1.76.05.09-.09.1.09h.43l1.11,0h.24l1,.08.62.05a1.56,1.56,0,0,1,.26,0l.15,0,.43,0,1-.08h.3l1,.05.63,0,.25,0h1.88l.28,0,.64,0,1-.06h1.87l1.84,0a.23.23,0,0,1,.26.23c0,.23-.15.24-.52.25h-.63l-.95,0H26.27l-1.85.12,0-.24,0,.24-1.84,0V20.1l0,.23-1.83-.11h0l-.27,0-1.56.12,0-.23h-.25a.23.23,0,0,0,.2.23L17,20.22l-.32.32v-.32l-1.1,0h-.54l-1,0-.64,0-.27,0H11.32v0H9.68v.31l-.32-.29h-.1l-1,.1-.44,0v0H7.56l-1,0-.61,0-.28,0h0l-.91,0-.65,0H3.6L2,20.27A.23.23,0,0,1,1.73,20c0-.24.19-.24.42-.24l1.68,0V20h0l0-.23.93,0,.63,0h.3l1.62.07Z"/><path class="cls-1" d="M19.36,17.38v.31l1,0H21l1,0,.58,0h2l1.79-.16,0,.23h0v-.23l.9,0h.62l.29,0a5.83,5.83,0,0,1,.73,0l1,.06H30l0,.24h0l.17.17c-.08.07-.13.06-.27.06l-1.62-.1-.32.33v-.33l-.68,0h-.62l-.27,0a1.7,1.7,0,0,1-.27,0l-.61.06-.94.09H22.73c-.09,0-1.67-.08-1.78-.07v-.24h0v.24h-.59l-1,0h-.24l-.94-.09L17.56,18l-.25,0-.26,0-.61.05-.94.07h-.24v0L13.77,18l-.09.09L13.59,18l-.89,0c-.5,0-.73,0-.85,0h0l-.77,0-.94,0H8.25L8,18l-.61.06-.72.08v0H6.19l-.71-.05-.61,0a1.7,1.7,0,0,1-.27,0l-.27,0H3.71l-.91,0v-.23L3,17.72l-.16.17v-.24l1.8,0v.23h.25a.23.23,0,0,0-.2-.23l1.68.11.09-.08.09.08,1.68-.18,0,.23h.24a.24.24,0,0,0-.21-.24l1.77,0v.23h0l0-.23,1,0,.54,0h.23l.81,0c.6,0,.87,0,1,0h0l.93.05.62,0,.26,0h0c.07,0,1.68-.13,1.78-.15l0,.24h0l0-.24,1.7.18Zm10.48.37Z"/><path class="cls-1" d="M18.58,15.19l.32.31H19c1-.06,1.43-.08,1.62-.08h.53l1.35.05v.23h.24a.23.23,0,0,0-.2-.23l1.74.08.33-.32v.33H27.9v-.32l.33.31.72-.07c1.13-.1,1.13-.1,1.21,0l-.32.35.17-.17v.23l-1,.09-.82.07H24.41l-1,0-.63,0-.3,0-1.34,0-.4,0-.33.33v-.32L19.06,16l-.25,0h-.48l-.91,0H17v-.24l0,.24-1.84-.11H13.22l-.7,0-.93,0h-.25l-1,0-.6,0-.27,0H5.76v-.24l0,.24-.83-.07-.7-.06c-.43,0-.54-.05-.54-.27a.23.23,0,0,1,.24-.23h0l1,.09.58.05.25,0H7.6v.23h.24a.22.22,0,0,0-.21-.23l1.84,0v.24h0l0-.24,1.61.07v-.32l.33.33,1.06-.06c.42,0,.62,0,.73,0h1.85l1,.05.63,0,.28,0h.46l1.17,0Z"/><path class="cls-1" d="M16.42,12.92l.33.31.47,0,.88-.05.45,0h1.91v.23h0l0-.23,1.87.08h0l1,.08.65.05.27,0h.1l1.13-.11.65-.07,0,.24h0l0-.24.76.08.77.08.26,0h.09l.25,0,.64-.07,1-.11h.24v.24a.23.23,0,0,1-.14.21.15.15,0,0,1-.09,0l-1.88.21,0-.23-.05.23-1.11-.12-.54-.05-.21,0-.17,0-.46,0-1.24.12,0-.23,0,.23-1.88-.15-1,0-.64,0-.28,0H18.8v.34l-.33-.33-1.23.07-.56,0h-.13l-1.77,0,0-.23h-.24a.23.23,0,0,0,.19.23l-1.08-.1-.56-.05-.22,0h0L11,13.74l0-.23v.24h-.34l-1,0-.41,0H9l-.27,0-.65,0-1,0H6.89l-1.67-.11h0l-.09,0A.24.24,0,0,1,5,13.4a.23.23,0,0,1,.24-.23l1,.06.64,0,.27,0h0L9,13.21l0,.24H9l0-.24,1.54,0h.34l.27,0,.63-.05,1-.08h.24v0l.59,0,.75.07.26,0h.8l.94,0Z"/><path class="cls-1" d="M20.59,10.74v.33l1.46,0v-.31l.32.3L23.46,11a5.12,5.12,0,0,1,.79-.07h0l1.81.19.09-.08.09.09L28.05,11l0,.24h0l0-.24,1.91.08v.24h0v.23l-1,0-.66,0-.28,0-.27,0-.64,0-.79.06h-.47v0l-.79-.08-.64-.07-.26,0-.71.08-1.15.11-.07,0h0l-1,0-.61,0-.26,0h0l-1,0-.66,0-.3,0h-2l-.33,0-.89,0-.35,0v.35l-.33-.33-.84,0c-.6,0-.87,0-1,0s-.46,0-1.22-.12l-.62-.06-.08.07-.09-.08c-.38,0-1.71.18-1.8.2l0-.23H8.53a.24.24,0,0,0,.18.23l-1.88-.24a.15.15,0,0,1-.09,0,.22.22,0,0,1-.14-.21A.21.21,0,0,1,6.67,11a.24.24,0,0,1,.17-.07l1,.12.65.08.27,0,.26,0,.66-.07,1-.11h.23v0l.52,0,1.09.12.09-.09.09.09.89,0,.92,0h.18l.41,0L16.46,11l0,.23h0V11l1.9,0,0,.23h0l0-.23,1.81.11Zm9.25.39Z"/><path class="cls-1" d="M26.39,8.5v.34l.72,0,.89,0h.08l.28,0,.66,0,1-.06V9l-.17.17L30,9v.24l-1.91.12,0-.23,0,.24-1,0-.65,0h-.29l-.52,0-.93,0-.48,0h-1.9l-1.9.24-.05-.23h-.24a.25.25,0,0,0,.19.23l-1.9-.21h-1.9v0l-.78,0c-.64,0-1,0-1.11,0h-2l-.26,0-1.54.13,0-.23h0l0,.24-.75,0L8.89,9.32c-.12,0-.33,0-.33-.25a.24.24,0,0,1,.26-.23L10,8.91l.53,0,.19,0,.16,0,.41,0,1-.09.36,0,0,.23h0l0-.23c.13,0,1.76,0,1.88,0v.24h.25a.24.24,0,0,0-.23-.24l1.13,0,.77,0h2l1,.11.66.08.27,0,.28,0,.66-.08,1-.12h.24l1.68,0h0a3.58,3.58,0,0,1,.51,0l1.33.06Z"/><path class="cls-1" d="M20.69,6.51h1.84v.23h.23a.24.24,0,0,0-.19-.23c.09,0,1,.08,1.43.1l.3,0h3.81v.23h0l0-.23,1,.07.61,0c.35,0,.49,0,.49.26a.23.23,0,0,1-.23.24h0l-.86-.06-.68,0a2.16,2.16,0,0,1-.3,0h-3.7l0-.23h0l0,.23-.4,0L23.05,7l-.38,0-.14,0H20.69l-.16,0-.4,0c-.45,0-1.21.12-1.28.14l0-.23h-.24a.24.24,0,0,0,.22.23l-.9,0c-.59,0-.85,0-1,0h0l-1.86-.15h0l-.21,0-.53,0-1.08,0,0-.23H13a.25.25,0,0,0,.22.24c-.09,0-1.72,0-1.84,0A.24.24,0,0,1,11.1,7c0-.23.16-.23.49-.24h.58l1,0h.11l.26,0,.74,0,.55,0v0h.23l1,.08.64.05.28,0h0l.93,0c.5,0,.75,0,.89,0l.14,0,.31,0,.86-.09.56-.06,0,.23h0ZM29.77,7Z"/><path class="cls-1" d="M18.26,4.32l1.94,0h0v.23h0V4.36h2l1,.09.65.07.28,0h.54l1,0h.41v.23h0V4.46H30a.24.24,0,0,1,.25.24c0,.23-.23.23-.32.23l-.94,0h-.92v0H25.67L24.16,5l0-.23h-.24a.25.25,0,0,0,.19.23l-1.82-.18-.33.31V4.81l-1.46,0h-.26l-1,0H18.11l-1.28,0h-.3v.32l-.33-.31c-.38,0-1.71.11-1.83.13h0a.24.24,0,0,1-.24-.24c0-.22.13-.23.52-.26l.67,0,1-.07h.52l1.42,0,0,.24h0Z"/><path class="cls-1" d="M20.53,2.19h1.86c.14,0,.42,0,1,0h.87v.23h0V2.21h1.89v.24h0l0-.23,1.52.11.28,0h.09L30,2.25a.23.23,0,0,1,.26.23c0,.22-.14.23-.5.25l-.63,0-1,0h0l-.39,0-1.36-.1-.15,0H24.26c-.14,0-.38,0-.87,0h-1l0-.23v.23H20.7V3l-.32-.3-.62,0c-1.29.1-1.29.1-1.37,0l.33-.34-.17.17V2.33l1.17-.09.71,0h.1"/><path class="cls-1" d="M28.53,0l.09.09L30,0a.24.24,0,0,1,.25.24c0,.22-.17.23-.45.24l-.49,0-.54,0h-.23l-.77,0-.5,0c-.28,0-.45,0-.45-.24A.24.24,0,0,1,27.07,0l1.36,0Z"/><path class="cls-2" d="M45.75,18.15a18.05,18.05,0,1,0,0,25.53A18.05,18.05,0,0,0,45.75,18.15Z"/></svg>