<svg id="Layer_1" data-name="Layer 1" xmlns="http://www.w3.org/2000/svg" viewBox="0 0 266.98 50.65"><defs><style>.cls-1{fill:none;stroke:#b3b3b3;stroke-miterlimit:10;stroke-width:3.55px;}.cls-2{fill:#b3b3b3;}</style></defs><title>email_head_imae</title><path class="cls-1" d="M265.2,25.32A23.55,23.55,0,1,1,241.65,1.78,23.55,23.55,0,0,1,265.2,25.32Z"/><path class="cls-2" d="M28.83,4.21A3.4,3.4,0,0,0,27,6.14,40.26,40.26,0,0,1,4.35,24.21l0,0H4.23C4.16,24.27-2.45,27,1,36c.92,2.28,3.53,6,7.46,6a7,7,0,0,0,1.18-.12l.22.58a4.35,4.35,0,0,0,4.83,2.69l6.62-1.23a4.3,4.3,0,0,0,3.51-4.66,50,50,0,0,1,15,1.71,3.8,3.8,0,0,0,.61.18l.34.11a.91.91,0,0,0,.43,0l.12,0a3,3,0,0,0,1-.17c4.15-1.51,2.95-11.6-.39-20.78S33,2.71,28.83,4.21m-26,31.12c-1.74-4.54-.49-7,.72-8.26,0,2.67.78,7.56,4.94,13-3.67,0-5.58-4.55-5.66-4.75M22.59,40.9a2.37,2.37,0,0,1-1.65,1.15l-6.62,1.23a2.39,2.39,0,0,1-2.68-1.49l-.15-.38a52.75,52.75,0,0,1,11.35-2,2.33,2.33,0,0,1-.25,1.51m-12-1.23c-5.19-6.35-5.26-12-5.12-13.79A41.82,41.82,0,0,0,26.2,10.8a46.34,46.34,0,0,0,3,14.2,47.37,47.37,0,0,0,6.24,12.1c.32.42.62.75.94,1.11a54.86,54.86,0,0,0-25.83,1.46m31-.29a1,1,0,0,1-.4,0l-.87-.27A10.83,10.83,0,0,1,37,35.94a35.9,35.9,0,0,1-3.28-5.38,6.06,6.06,0,0,0-3-11.36,6.31,6.31,0,0,0-1.29.15c-1.55-5.88-1.63-10.27-.86-12.24l0-.05a.64.64,0,0,0,0-.07,1.69,1.69,0,0,1,.84-1A1,1,0,0,1,29.84,6c2.1,0,6.69,5.35,10.24,15.09,3.75,10.33,3.42,17.64,1.53,18.33"/><path class="cls-2" d="M44.17,17.16a.94.94,0,0,0,.7-.29l6-6.22a1,1,0,0,0,0-1.36,1,1,0,0,0-1.36,0l-6,6.22a1,1,0,0,0,.69,1.62"/><path class="cls-2" d="M56.06,24.21l-8.61-.54a1,1,0,0,0-1,.9,1,1,0,0,0,.9,1l8.61.53H56a1,1,0,0,0,.05-1.92"/><path class="cls-2" d="M47,21.05l6.77-2.6a1,1,0,0,0,.55-1.23A1,1,0,0,0,53,16.66l-6.77,2.6a1,1,0,0,0,.35,1.85,1,1,0,0,0,.34-.06"/><path class="cls-2" d="M139.58,20.34h-4.09A2.53,2.53,0,0,0,133,22.86v7.39h0a.69.69,0,1,0,1.38,0h0V23.42a.19.19,0,1,1,.37,0V38.55a1,1,0,0,0,1,1h.39a1,1,0,0,0,1-1V29.67a.46.46,0,0,1,.38-.47.44.44,0,0,1,.51.44v8.93a1,1,0,0,0,1,1h.42a1,1,0,0,0,1-1v-11h0v-4.2a.18.18,0,0,1,.17-.12.2.2,0,0,1,.19.19v6.84h0a.7.7,0,0,0,.76.69.75.75,0,0,0,.64-.75V22.86a2.53,2.53,0,0,0-2.52-2.52"/><path class="cls-2" d="M137.54,14.47A2.51,2.51,0,1,1,135,17a2.5,2.5,0,0,1,2.51-2.5"/><rect class="cls-2" x="122.3" y="8.04" width="3.12" height="10.74" transform="translate(26.79 91.51) rotate(-45)"/><rect class="cls-2" x="149.56" y="35.5" width="3.12" height="10.74" transform="translate(15.36 118.83) rotate(-45)"/><rect class="cls-2" x="118.39" y="39.21" width="10.74" height="3.12" transform="translate(7.42 99.45) rotate(-45)"/><rect class="cls-2" x="145.85" y="11.96" width="10.74" height="3.12" transform="translate(34.73 110.89) rotate(-45)"/><polygon class="cls-2" points="130.79 9.6 130.79 6.48 116.93 6.48 116.93 20.34 120.05 20.34 120.05 9.6 130.79 9.6"/><polygon class="cls-2" points="155.02 20.34 158.14 20.34 158.14 6.48 144.28 6.48 144.28 9.6 155.02 9.6 155.02 20.34"/><polygon class="cls-2" points="120.05 33.83 116.93 33.83 116.93 47.69 130.79 47.69 130.79 44.57 120.05 44.57 120.05 33.83"/><polygon class="cls-2" points="144.28 44.57 144.28 47.69 158.14 47.69 158.14 33.83 155.02 33.83 155.02 44.57 144.28 44.57"/></svg>