<svg xmlns="http://www.w3.org/2000/svg" viewBox="0 0 84.94 80"><defs><style>.cls-1{fill:#d7d8d8;}.cls-2{fill:#9d9fa1;}.cls-3{fill:#545655;}</style></defs><title>digital</title><g id="Services"><rect class="cls-1" x="0.16" y="30.96" width="80" height="18.09" rx="3.19" transform="translate(80.16 -0.16) rotate(90)"/><path class="cls-2" d="M84.94,42.38A4.9,4.9,0,0,0,81,43.78l-3.41,3.41a2.55,2.55,0,0,1-3.63,0l-3.41-3.41a4.92,4.92,0,0,0-7,0L60.2,47.19a2.57,2.57,0,0,1-3.63,0l-3.41-3.41a4.93,4.93,0,0,0-7,0l-3.42,3.41a2.55,2.55,0,0,1-3.63,0l-3.41-3.41a4.94,4.94,0,0,0-4.63-1.3V45a2.51,2.51,0,0,1,1.15-.29,2.55,2.55,0,0,1,1.82.76l3.41,3.41a4.92,4.92,0,0,0,7,0l3.41-3.41a2.55,2.55,0,0,1,3.63,0l3.42,3.41a4.93,4.93,0,0,0,7,0l3.41-3.41a2.55,2.55,0,0,1,3.63,0l3.41,3.41a4.92,4.92,0,0,0,7,0l3.42-3.41a2.54,2.54,0,0,1,2.24-.71Z"/><path class="cls-2" d="M84.94,29.74A4.9,4.9,0,0,0,81,31.14l-3.41,3.41a2.57,2.57,0,0,1-3.63,0l-3.41-3.41a4.92,4.92,0,0,0-7,0L60.2,34.55a2.57,2.57,0,0,1-3.63,0l-3.41-3.41a4.93,4.93,0,0,0-7,0l-3.42,3.41a2.57,2.57,0,0,1-3.63,0l-3.41-3.41a4.91,4.91,0,0,0-4.63-1.3v2.5a2.51,2.51,0,0,1,1.15-.29,2.58,2.58,0,0,1,1.82.75l3.41,3.42a4.92,4.92,0,0,0,7,0l3.41-3.42a2.57,2.57,0,0,1,3.63,0l3.42,3.42a4.93,4.93,0,0,0,7,0l3.41-3.42a2.57,2.57,0,0,1,3.63,0l3.41,3.42a4.92,4.92,0,0,0,7,0L82.7,32.8a2.59,2.59,0,0,1,2.24-.71Z"/><path class="cls-3" d="M0,41.91A26.67,26.67,0,0,0,26.67,68.57V15.24A26.67,26.67,0,0,0,0,41.91Z"/></g></svg>