<svg xmlns="http://www.w3.org/2000/svg" viewBox="0 0 102.64 70"><defs><style>.cls-1{fill:#545655;}.cls-2{fill:#9d9fa1;}.cls-3{fill:#fff;}.cls-4{fill:#c8c8c9;}</style></defs><title>digital</title><g id="Services"><circle class="cls-1" cx="54.58" cy="35" r="35"/><path class="cls-2" d="M54.77,35a35,35,0,0,1-35,35H0V68.22H19.77a33.22,33.22,0,0,0,0-66.44H0V0H19.77A35,35,0,0,1,54.77,35Z"/><path class="cls-2" d="M46.54,35A26.8,26.8,0,0,1,19.77,61.77H0V60H19.77a25,25,0,1,0,0-50H0V8.23H19.77A26.8,26.8,0,0,1,46.54,35Z"/><path class="cls-3" d="M69.56,18.27a4.16,4.16,0,1,1-4.15-4.16A4.15,4.15,0,0,1,69.56,18.27Z"/><path class="cls-4" d="M69.56,35a4.16,4.16,0,1,1-4.15-4.15A4.15,4.15,0,0,1,69.56,35Z"/><path class="cls-4" d="M69.56,51.73a4.16,4.16,0,1,1-4.15-4.15A4.15,4.15,0,0,1,69.56,51.73Z"/><path class="cls-4" d="M85.63,18.27a4.15,4.15,0,1,1-4.15-4.16A4.15,4.15,0,0,1,85.63,18.27Z"/><path class="cls-2" d="M85.63,35a4.15,4.15,0,1,1-4.15-4.15A4.15,4.15,0,0,1,85.63,35Z"/><path class="cls-3" d="M85.63,51.73a4.15,4.15,0,1,1-4.15-4.15A4.15,4.15,0,0,1,85.63,51.73Z"/><path class="cls-4" d="M102.64,18.27a4.16,4.16,0,1,1-4.16-4.16A4.15,4.15,0,0,1,102.64,18.27Z"/><path class="cls-2" d="M102.64,35a4.16,4.16,0,1,1-4.16-4.15A4.15,4.15,0,0,1,102.64,35Z"/><path class="cls-2" d="M102.64,51.73a4.16,4.16,0,1,1-4.16-4.15A4.16,4.16,0,0,1,102.64,51.73Z"/></g></svg>