<svg xmlns="http://www.w3.org/2000/svg" viewBox="0 0 118.05 74.16"><defs><style>.cls-1,.cls-2{fill:none;stroke-miterlimit:10;}.cls-1{stroke:#c1c1c1;stroke-width:1.44px;}.cls-2{stroke:#484c50;stroke-width:2.16px;}.cls-3{fill:#484c50;}.cls-4{fill:#9d9fa1;}.cls-5{fill:#b3b3b3;}</style></defs><title>digital</title><g id="Services"><circle class="cls-1" cx="59.02" cy="37.08" r="24.28" transform="translate(11.45 88.02) rotate(-79.1)"/><circle class="cls-2" cx="59.02" cy="37.08" r="36" transform="translate(11.45 88.02) rotate(-79.1)"/><circle class="cls-3" cx="59.02" cy="37.08" r="8.64" transform="translate(11.45 88.02) rotate(-79.1)"/><circle class="cls-4" cx="14.4" cy="37.61" r="14.4" transform="translate(-25.03 45.8) rotate(-80.78)"/><path class="cls-5" d="M90.32,9.35h0A12.18,12.18,0,0,1,102.5,21.53V64.81a0,0,0,0,1,0,0H78.14a0,0,0,0,1,0,0V21.53A12.18,12.18,0,0,1,90.32,9.35Z" transform="translate(53.24 127.4) rotate(-90)"/></g></svg>