<svg xmlns="http://www.w3.org/2000/svg" viewBox="0 0 87.96 78"><defs><style>.cls-1{fill:#9d9fa1;}.cls-2{fill:none;stroke:#545655;stroke-miterlimit:10;stroke-width:2.34px;}</style></defs><title>digital</title><g id="Services"><path class="cls-1" d="M98.06,16.32h0a0,0,0,0,1,0,0V65.08a0,0,0,0,1,0,0H49.3a0,0,0,0,1,0,0v0A48.76,48.76,0,0,1,98.06,16.32Z" transform="translate(154.56 17.38) rotate(135)"/><path class="cls-1" d="M35.82,77a7.05,7.05,0,0,1,.8,0c.16,0,.46,0,1.09.05l1.19.07v.3l.21.23c-.09.09-.1.09-1.43,0l-.94-.06L36.3,78v-.42h-.94c-1.16,0-1.16,0-1.25-.09l.21-.21h0l0-.31h1.48Zm2.86.23Z"/><path class="cls-1" d="M29.33,73.83v.43c.62,0,2.05,0,2.15,0v.31h0v-.31h0l2.39-.11h.17l1.25-.06,1.08,0,0,.31h0v-.31h0l1.34,0,.75,0c.41,0,.63,0,.63.32a.3.3,0,0,1-.31.3h0l-2.39-.07h-.05l-.3,0-.77,0-1.07.06v.42l-.43-.4-1.24.06-1.05,0h-.1l-1.34,0h-.76a3.25,3.25,0,0,1-.37,0c-.2,0-.6,0-1.43-.07l-.88,0-.11.11-.12-.11-2.32.18h0a.31.31,0,0,1-.31-.31c0-.28.16-.29.67-.33l.84-.07,1.27-.09h0c.15,0,.43,0,1,0l1.32.08Zm9.26.6Z"/><path class="cls-1" d="M28.41,70.93l.41.4,2.39-.18,0,.3h.31a.31.31,0,0,0-.26-.3l2.4.24.11-.1.11.11,2.22-.17.22,0h0c.12,0,2.27,0,2.49,0h0a.31.31,0,0,1,.31.3c0,.31-.22.31-.63.32H36.35l-.16,0-1.4.11-1,.06h0l-1.3-.12-.88-.09-.36,0-.38,0-.87.07-1.3.09H26.15l-2.52,0v-.3l0,.3h-.5l-1.3,0h-.52l-.2,0-.38,0-.88.06L18.55,72a.31.31,0,1,1-.05-.61c.91-.06,2.4-.16,2.52-.18l0,.3h.32a.31.31,0,0,0-.28-.3l2,.05H25.8l.37,0h2.24Z"/><path class="cls-1" d="M24.28,68.31h.31v0l.8,0,1.23.09h.11l.3,0,.75,0,1.33-.08,0,.3h.32a.3.3,0,0,0-.25-.3c.13,0,2.29.22,2.4.22h0l.33,0,.8,0L34,68.46h.31l.72,0,1.34,0h.06v.31h0V68.4l2-.05c.55,0,.55,0,.65.07l-.22.22v.3l-.42,0-1.27,0-.73,0H36.4l-2.07,0v.44l-.43-.42-2,.08h-.3l-1.26-.11L29.5,69l-.36,0-.4,0-.93,0-1,.07,0-.3,0,.3L25.35,69l-.76,0-.3,0h0l-2.39.22h0c-.17,0-.59,0-1.72-.08l-.77,0H16.86l-.34,0-1.95.09a.31.31,0,0,1-.34-.31c0-.29.25-.3.5-.31l1.76-.09.46,0,0,.31h0l0-.31c.12,0,2.32,0,2.41,0h0l.81,0,1.64.1h0l.34,0,.82-.08Z"/><path class="cls-1" d="M38.89,65.45a.31.31,0,0,1,.31.3c0,.29-.22.31-.53.33l-.61,0-1.62.12,0-.3,0,.31-.37,0-1.32,0-.57,0a.86.86,0,0,1-.23,0,2.68,2.68,0,0,1-.33,0l-.78,0-1.34.07,0-.3h0v.31h0l-2.46.06h0c-.15,0-.46,0-1.14,0H26.41l-1,0L24,66.19l-.43.42v-.42H21.41v0L19,66.12l-.43.43v-.42l-1.49.05c-.38,0-.59,0-.71,0h0l-1.61.06c-.5,0-.75,0-.89,0h0l-1.66,0c-1,0-1,0-1.05-.06l.43-.43-.22.21v-.3l.82,0c1,0,1.48,0,1.68,0v0l.87,0c1,0,1.43-.06,1.63-.05h0l.69,0,1.18,0h.64l1.29,0,.84,0,.37,0H24.2l1.28.07.93,0h0c.18,0,.56,0,1.38,0h1.1l.37,0,.83,0,1.3,0h.05a3.06,3.06,0,0,1,.37,0l.93,0,1.12-.06,0,.3h.31a.3.3,0,0,0-.26-.3l2.1.09.33,0,.16,0L38,65.51l.84-.06Z"/><path class="cls-1" d="M11.67,62.31v.44h0l1.94.06h.21l2.22-.19v0h.31l1.31.11.84.08.36,0h2.5l.37,0,.88,0,1.21-.08,0,.3h0l0-.3.61,0,1.22.09.48,0,.17,0a2.68,2.68,0,0,1,.34,0l.82,0,1.33-.07H29l1.2-.05,1.18-.06,0,.31h0l0-.3,1.58.12.63.05.26,0h0l2.19,0h.3l1.28.06.85.05c.51,0,.68,0,.68.32a.31.31,0,0,1-.32.31l-2.5-.13H36l-.81,0-1.33,0h-.3v0L33,63.33l-1.07-.08-.38,0-.14,0-.34,0-.82,0-1,0v.45l-.43-.43c-.47,0-2.17.12-2.33.14l0-.3h-.31a.3.3,0,0,0,.25.3l-1.86-.14-.44,0h-.16l-.36,0-.85,0-1.24.08,0-.31h-.31a.31.31,0,0,0,.28.31c-.16,0-2.34,0-2.46,0l0-.31,0,.31-2.46-.23h0l-.37,0-.85.08-1.28.1h-.31l-1.89-.06h-.31l-1.28-.05-.85,0c-.49,0-.68,0-.68-.33a.31.31,0,0,1,.31-.31h0l2.34.09Zm21.92.81v0Zm5,0Z"/><path class="cls-1" d="M26.23,59.62l.41.38,1.29-.14a8.71,8.71,0,0,1,1.11-.1v0l2.33.18.12-.11.11.12,2.32-.11,0,.3h0v-.31h.4c.91,0,1.44,0,1.76,0h.31l1.29.12.83.09c.5,0,.65.06.65.34a.3.3,0,0,1-.31.3h0l-2.32-.23-.41.39v-.4H34l-.36,0-.82,0-1.29,0h-.3v0l-1-.07-.85-.07-.34,0h0l-1,.12c-.9.1-1.28.14-1.46.14s-.64,0-1.68,0l-.67,0-.43.42v-.43l-1,0h-.78l-.35,0H19.43v.41l-.42-.4-.21,0L17,60.65h-.31l-1.28-.08-.83-.06-.39,0c-.24,0-.77,0-2,0H12v.42l-.42-.42-1.28.08-1.05.06-.83,0-1.31-.09-.37,0,0-.3-.21-.23c.09-.09.09-.09.6-.06l2,.13.12-.12.12.12.91-.06c.78-.05,1.17-.08,1.37-.08h.49c.57,0,1.91,0,2,0l0,.31h0l0-.31,2.32.16.42-.4V60l1.8-.11.41,0h2.41v.3h0l0-.3,1.11,0h1.38l.77,0,1.35,0Zm12.36.74Z"/><path class="cls-1" d="M36.78,56.72v.41l2.1-.06a.31.31,0,0,1,.32.31c0,.3-.2.3-.64.31l-.77,0-1.3,0h-.08l-.69,0-1.54-.08-.12.12-.12-.12-2.26.06,0-.3h-.32a.3.3,0,0,0,.27.3c-.14,0-1.78-.06-2.25-.06h-.13L28,57.57l-.82,0-.37,0h0l-2.4.07v-.3l0,.3-1.27,0-.78,0-.32,0-.27,0-.66,0-1.19.09v.44l-.43-.41-2.26.09,0-.3-.05.3-.85-.11-1-.12-.37-.05-.12,0-.32,0-.83.1-1.26.15H12v0l-2-.14-.18,0h0L8,57.7l-.54,0H5.35c-.39,0-.62,0-.62-.3a.32.32,0,0,1,.33-.31H7.45l.49,0C9.22,57,9.69,57,9.9,57h.19l1.33.09.63,0,.23,0,2.38-.29.05.3h0l.07-.3,1.52.19.61.07.24,0a2.86,2.86,0,0,1,.35,0l.83,0,1.22-.05h.11L20,57,21,57l.92-.06,0,.3h0l0-.3,1.1,0L24,57l.41,0,.35,0,.81,0,1.25,0h.31l2.11.09h0l1.31,0,.76,0a2.5,2.5,0,0,1,.32,0,3.25,3.25,0,0,1,.36,0l.83,0,1.23,0h.3v0l1.39.07.61,0Zm-10,.49Z"/><path class="cls-1" d="M36.85,54v.39h.4c1.75-.06,1.76-.06,1.86,0l-.22.22h0l0,.3-1.6,0h-.73l-1.22-.12-.8-.08-.34,0a2.11,2.11,0,0,1-.33,0l-.8.07-1.21.11h-.3v0l-2.05-.14h-.12l-1.39.1-.53,0v0h-.31l-1.22,0-.79,0-.38,0c-.24,0-.74,0-1.9,0h-.42l-1.26,0-.76-.05-.34,0h0l-.94,0c-.8,0-1.18,0-1.37,0l-.36,0-.8,0-1.22.08h-.3l-.89,0-.8,0H13c-.11,0-2.18-.06-2.31,0v-.31h-.32a.32.32,0,0,0,.29.31c-.1,0-.93,0-1.48,0l-.83,0H8.22L6,54.87v-.3l-.05.3L4,54.8H3.73c-.12,0-.41,0-.41-.31a.31.31,0,0,1,.33-.31l.39,0,1.23,0,.51,0,.21,0h.27l2.06,0v.31h0v-.31s.44,0,.82,0l1.46,0h.1l1.27,0,.73,0H13l2.22,0,.12-.11.12.11,2.21-.15,0,.31h0l0-.31,1.37,0c.6,0,.87,0,1,0h0c.14,0,2.15.12,2.29.12h.44c.54,0,1.8,0,1.91,0v.31h.31a.3.3,0,0,0-.26-.3l2.31.11h0l.22,0,.58,0,1.24-.09v0h.31l1.23.08.79,0,.31,0h0l2.34-.21,0,.3h0l.06-.3,2.18.23Z"/><path class="cls-1" d="M7,51l.42.42.8,0,1.47-.05.41,0,.83,0,1.23,0h0l1.13.06,1.18.08.42-.4v.4L17,51.37l0,.3h.31a.3.3,0,0,0-.26-.3l1.28.08.77,0,.32,0,.24,0,.63-.08,1.26-.15v0h.31l1.28.16.82.11.34.05.31,0,.78,0,1.3,0h.19l.46,0,1.18-.07.59,0,0,.3h0l.06-.3c.09,0,.83.08,1.38.12l.7.07a1.84,1.84,0,0,1,.28,0l.34,0,.84-.1L34,51.2h.31l1.86.08a2.33,2.33,0,0,1,.3,0h0l1.31.09.76.05c.43,0,.62,0,.62.33a.3.3,0,0,1-.31.3h0L37.78,52,36.87,52a3.32,3.32,0,0,1-.42,0h0l-2.24-.1h-.14l-2.4.29-.06-.3-.05.3-1-.09-.95-.08a3.39,3.39,0,0,1-.44,0l-.15,0-.43,0L26.81,52l0-.3h-.31a.3.3,0,0,0,.29.3c-.15,0-2.22.09-2.37.11l0-.3H24a.31.31,0,0,0,.24.3l-2.37-.32-.15,0-2.21.27-.06-.3,0,.3-1.1-.06L17.45,52a3.14,3.14,0,0,1-.4,0,2.68,2.68,0,0,1-.33,0l-.78,0-1.3,0h-.3v0l-1-.07-1-.06L12.2,52l-.12-.12-2,0v.44L9.65,52,8.28,52c-.55,0-.81,0-.95,0s-.51,0-1.21,0l-1.2,0V51.7h0l0,.31-2.39-.16a.27.27,0,0,1-.12,0,.3.3,0,0,1-.19-.28.3.3,0,0,1,.31-.3l1.25.08.83,0,.38,0c.18,0,.52,0,1.19,0l.9,0Zm31.55.74Z"/><path class="cls-1" d="M13.73,48l.43.43c.48,0,2.18-.09,2.32-.11l0,.3h0l0-.3,2.46.24h0l.38,0,.89,0,1.18-.06H24l1.29.06.84,0a3.06,3.06,0,0,1,.35,0l.2,0,.51,0,1.26,0,.51,0h0c.12,0,.33,0,.76,0l1.27.06.48,0h0l.34,0,.85-.09,1-.1v0h.3l1.28.05.84,0a3.25,3.25,0,0,1,.37,0l.26,0h2.16c.34,0,.37.24.37.31a.31.31,0,0,1-.34.3c-.22,0-2.31,0-2.44,0v-.31l0,.31L34,49l-.11.11-.11-.1-2.33.25h0c-.09,0-.24,0-.55,0l-2-.09h-.51l-1.94.06,0-.3h-.32a.3.3,0,0,0,.28.3l-2.34-.13-.42.42v-.42H21.51l-.37,0-.82,0-1,0v0H19l-1.3-.12L16.87,49l-.35,0-.35,0-.82,0-1.3,0H14l-.32,0-.85,0-1,0v0h-.31l-1.28-.1L9.42,49l-.36,0-.28,0-.72,0-1.43.12h0l-.42,0-.85,0-1.26,0H3.39c-1.89,0-1.89,0-2-.06L1.61,49h0l0-.31c.11,0,1.14,0,1.75,0h.71l2.48,0h.12l.34,0,1-.08,1-.08,0,.3h.31a.3.3,0,0,0-.25-.3l2.32.2.11-.11.12.11,2.06-.09Zm24.86.74Z"/><path class="cls-1" d="M24.45,45.37l.42.41,2.19-.21h2.42l.54,0,1.79.1h0V46h0l0-.31h2.35l.35,0,.82,0,1.15-.06h0l.67,0,1.71.11v.3l.21.23c-.1.1-.1.1-2,0l-.6,0h0l-.34,0-.8,0-1.18.06,0-.31h-.31a.31.31,0,0,0,.27.31l-1.71,0h-.66c-.23,0-.71,0-1.8-.09l-.4,0-.42.41v-.42h-2l-.35,0-.78.08-1.25.11h-.9l-1.44,0,0-.3h0l0,.3-2.3-.09h0V46h0l0,.31-2.12-.21-.22,0h0l-1.39,0-.93,0-.29,0-.67,0L13,46.35l0-.3,0,.3-1.17-.06-.81,0-.33,0h0l-1.45.13a8.26,8.26,0,0,1-.95.06h0l-.74-.06-1.06-.08-.4,0H4.91l-1.3,0H3.52l-.52,0-1.18,0-.47,0c-.21,0-.48,0-.48-.32a.3.3,0,0,1,.31-.3h0l1.8.06h.54l2.31,0,0,.3h0l.05-.3,1.59.13.53,0h.17l.89-.07c1-.09,1.35-.12,1.52-.11v0l1.15.06.82,0,.34,0h.12l.33,0,.95-.06.94-.07,0,.31h0v-.31l.93,0c.92,0,1.29,0,1.46,0h0l2.08.2.22,0h0l1.26,0,.75,0a2.5,2.5,0,0,1,.32,0h2.06Zm14.23.47Z"/><path class="cls-1" d="M20,42.38v.41l2.08.05h2.5l1.32,0h1l1.44-.12.65-.06v0h.31l1.26.15.81.1.31,0,2.37-.24h0c.17,0,.56,0,1.54,0l.89,0h0a3.06,3.06,0,0,1,.35,0l.79,0,1.26,0h.3V43a.31.31,0,0,1-.32.3l-2.35.09h0c-.13,0-.39,0-1,0l-1.47,0h0l-.34,0-.82.09-1.25.12h-.3v0l-2-.25-.11.11-.11-.11-.79.07c-.93.08-1.32.11-1.5.1v0c-.12,0-2.22,0-2.36,0l0-.31h0v.31c-.07,0-1.45,0-2.08,0h-.31l-1.27,0-.78,0-.32,0a3.62,3.62,0,0,1-.52,0l-1.9-.1H15.23v.39l-.41-.37-2.24.25-.05-.3,0,.31H10.13L8.86,43.4l-.8-.1-.35,0H6.85l-1.47,0h0c-.17,0-.55,0-1.5,0H2.94l-.34,0-.78,0-1.27,0H.24v-.31a.33.33,0,0,1,.33-.31l2.36-.09h1l1.45,0h.49l1,0,.88,0,0,.31H8a.3.3,0,0,0-.24-.3c.15,0,1.76.22,2.22.27l.42-.39v.4h2.08l.34-.05.83-.09,1.24-.14H17.3l.74,0,1.22.07.34,0ZM38.59,43Z"/><path class="cls-1" d="M.31,39.8h0l2.38.05h0c.22,0,.71,0,1.89,0l.52,0h0l.34,0,.8,0,1.27-.06h.3l1.87,0H10l1.24.08L12,40a3.25,3.25,0,0,1,.37,0h0c.1,0,2.23.07,2.37.06v.31h.32a.31.31,0,0,0-.28-.31l1.31,0h.75l.31,0,.31,0,.71,0,1.32,0h.09l1.52-.12c.56,0,.8-.06.93-.05h0l1.65.14.53,0,.17,0h2.42L28.57,40l.68,0h0l2.4,0v.31h0l0-.31c.15,0,2.25,0,2.37,0v.31h.32a.32.32,0,0,0-.29-.31c.11,0,1.49,0,2.39,0h0l1,0,1.42.09v.3h0l.21.22c-.1.1-.1.1-1.67,0l-.94-.06h-6l-1.25,0-.65,0-1.14.07a4.51,4.51,0,0,1-.65,0H24.43v-.31l0,.31-.73-.06-1.1-.09-.41,0H22l-.84.06-1,.08-.57,0h0l-2.36.05,0-.3h0l0,.3H16.11l-.91,0h-.46l-1.31,0-.75,0a1.78,1.78,0,0,1-.35,0h0L10,40.44H7.85l-.31,0h0l-2.38.12h0c-.1,0-.26,0-.57,0L2.9,40.47H2.71l-1.2,0-.83,0c-.48,0-.68,0-.68-.31A.31.31,0,0,1,.31,39.8Zm7.23.31Zm31.05.19Z"/><path class="cls-1" d="M36.79,36.6v.45l.76,0,1.24.08c.14,0,.41,0,.41.32a.31.31,0,0,1-.34.3l-1.34-.08-.74-.05-.26,0h0l-1.24,0-.81,0-.36,0h0c-.11,0-2.22.11-2.37.13l0-.3h-.32a.31.31,0,0,0,.29.3c-.13,0-1.49,0-2.09.05h-.31l-1.25,0-.8,0a2.06,2.06,0,0,1-.38,0H24.45l-.8,0L22,37.56h0l-.25,0-1.86,0v.44l-.43-.42-1,.06c-.81,0-1.15.08-1.32.07h0l-.84,0-1,0h-.38l-.14,0a2.68,2.68,0,0,1-.34,0l-.81.06-1.22.08,0-.3,0,.3-1.67-.12-.52,0-.22,0h0l-1,0-1,0H7.55l-.13,0H7.05l-1,.05-.85,0,0-.3H4.83a.3.3,0,0,0,.29.3h0L4,37.81a10.49,10.49,0,0,1-1.28,0h0L.3,37.66l-.12,0A.31.31,0,0,1,0,37.35a.27.27,0,0,1,.09-.21.31.31,0,0,1,.22-.09l1.24.11.82.07a2.6,2.6,0,0,1,.36,0h0l1.2-.07,1.17-.05.27,0,.62,0L7.49,37l0,.3h.32A.31.31,0,0,0,7.57,37l1.41,0,.69,0a1.47,1.47,0,0,1,.31,0h0l.73,0,1.52.11.15,0a2.86,2.86,0,0,1,.35,0l.84-.06,1.18-.08,0,.3h0l0-.3,1.54,0,.6,0h.24l1.26-.08L19.56,37a2.19,2.19,0,0,1,.28,0l.6,0,1.31,0H22c.2,0,.62,0,1.68.08l.75,0h2.42l2.39.06h0l.31,0,.72,0,1.38,0h0l.33,0,.82,0L34.07,37h.31l2,.07Zm1.8.89Z"/><path class="cls-1" d="M31.21,34.11h.5l1.26.11.8.08.33,0h.16l2.19-.16,0,.31h0v-.31l.79,0,1.45,0c.17,0,.45,0,.45.31a.31.31,0,0,1-.33.31l-1.59-.05-.56,0h-.21l-.26,0-.63.05-1.32.09h-.18l0-.3-.05.3-2.23-.21-.42.41v-.42H29.31l-.16,0-.48.06L27,35l-.06-.3,0,.3-.94-.08-1.31-.1-.12,0a2.68,2.68,0,0,1-.34,0l-.82,0L22.12,35h0l-.6,0-1.79,0v-.3h0l0,.3-2.25-.11-.42.41v-.42l-2.07,0h0a3.05,3.05,0,0,1-.36,0l-.78,0-1.27.06h-.31c-.6,0-2,0-2.08,0v-.31H9.83a.31.31,0,0,0,.27.31c-.15,0-2.24,0-2.35,0v-.31H7.43a.31.31,0,0,0,.27.31l-2.06,0h0v.42l-.42-.4c-.47,0-2.13.14-2.24.16H.8c-.31,0-.57,0-.57-.31a.31.31,0,0,1,.34-.31l2.35,0h0a2.6,2.6,0,0,1,.36,0l.82-.06,1.24-.08h4.84l1.31,0,.73,0,.32,0h0l2.36-.12h2.42l1.23.06.82,0,.39,0c.23,0,.7,0,1.78,0l.45,0,.12-.12.12.11,2.24-.12,0,.3h.32a.3.3,0,0,0-.26-.3l1.42.11.67.06.25,0,.14,0,1.56-.19.66-.08h1.95Zm7.38.43Z"/><path class="cls-1" d="M7.78,31.08l.42.42,1.37-.12a7.36,7.36,0,0,1,.91-.06h0l.92,0,1.31.07h.12l1.25.06.78,0,.34,0,.34,0h2.28l.63,0,1.3-.07h.3l.33,0,1.89-.12,0,.31h0l0-.31,2.29.09h.08l1.27,0,.74,0h.34c.09,0,2.21,0,2.34,0v.31h0l0-.31,1.37.07.68,0,.27,0,.35,0,.8-.09,1.23-.12h0l2.33,0,0,.3h0l0-.3h1.69c.79,0,.79,0,.88.09l-.22.21h0v.31h-.66c-1,0-1.45,0-1.67,0h-2.4l-2.32.24,0-.3h0l0,.31-1,0L29.52,32H27L26,32h-.88l-.42,0h-.05l-1.29,0-.71,0-.3,0h-.19l-1.7.11L20,32h-.18l-2.17.12,0-.3v.31l-2.33,0,0-.3h-.32a.3.3,0,0,0,.27.3L13,32l-.43.42V32L11.37,32l-.65,0-.26,0h0L9.62,32c-.89.08-1.29.11-1.5.11a2.83,2.83,0,0,1-.45,0c-.47,0-1.21,0-1.63,0H3.34L2.13,32l-.81-.07c-.49-.05-.65-.06-.65-.34a.3.3,0,0,1,.3-.31H1l2.22.2.41-.38v.39h2l0,.3H6a.3.3,0,0,0-.28-.3h2Z"/><path class="cls-1" d="M11.25,28.17l.42.41,1.81-.13.6,0h0l2.34.22.41-.38v.39c.4,0,1.12,0,1.57,0H19l.31,0,.76,0,1.39-.09h0c.16,0,.49,0,1.28,0l1.21,0v.31h0v-.31h0l2.46,0h0c.12,0,.34,0,.78,0l1.6.1.43-.43v.43l1.87-.06h.31l1.3.07.83.05a1.86,1.86,0,0,1,.36,0l.24,0,.65-.06,1.55-.13,0,.3h0v-.31s.61,0,1.11,0c1.48,0,1.48,0,1.58.06l-.22.22h0V29h0l-1.34,0c-.6,0-.91,0-1.08,0l-.17,0-1.42.12-.91.08,0-.3-.05.3c-.14,0-2.28-.14-2.43-.14h0l-.35,0-.8,0-1.32,0h-.31l-1.47-.09-.73,0h0l-.35,0h-.82l-1.3,0h-.31l-.94,0c-.51,0-1.16,0-1.23,0h-.12l-1.27.09L19,29.26l0-.3v.31H16.53l-1.28-.12-.85-.08-.35,0h0l-.53,0-1.24.09-.7,0h-.13l-1.19.05-1.17.05,0-.3,0,.3-1.79,0H5.41l-1.29,0,0-.3,0,.3L2.81,29.2,2,29.15c-.49,0-.67,0-.67-.33a.31.31,0,0,1,.31-.31h0l1.2.07.87.06a3.46,3.46,0,0,1,.39,0H4.5l.9,0,1.16,0,0,.31h0l0-.31.65,0,1.19,0h.64l.34,0,.82,0,1,0Z"/><path class="cls-1" d="M9.51,25.42l.42.39,2-.19.32,0h4.79l0,.31h0l0-.31,2.28.07.12-.12.12.12h.56c.72,0,1.16,0,1.44,0h.31l1.28.1.8.06.34,0,.2,0,.54-.05,1.29-.1h.08v0h.31l1.26.08.82,0a2.33,2.33,0,0,1,.32,0h.05l1.3,0h.76l.33,0,.36,0,.83-.05,1.24-.07h2.12l.3,0h0l2.39,0a.31.31,0,0,1,.34.3c0,.3-.2.31-.67.32h-.82l-1.24,0H34.06l-2.4.15,0-.31,0,.31c-.11,0-2.25,0-2.39,0v-.31l0,.3c-.15,0-2.27-.14-2.38-.14h0l-.35,0c-.57.05-1.92.15-2,.17l0-.31h-.32a.32.32,0,0,0,.25.31l-2.25-.19-.42.41v-.41l-1.42,0h-.7l-1.23,0-.83,0-.36,0H14.67v-.3l0,.3H12.55v.39l-.41-.37H12l-1.31.13-.58.05v0H9.8l-1.29-.05-.78,0-.37,0h0l-1.17-.05-.85,0a3.45,3.45,0,0,1-.38,0H4.67l-2.1,0A.31.31,0,0,1,2.24,26c0-.3.25-.3.54-.31l2.19,0v.3H5l0-.3,1.21,0,.82,0a3.46,3.46,0,0,1,.39,0h0l2.09.09Z"/><path class="cls-1" d="M25.09,22.53v.39l1.26,0h.81l1.27.05.74,0,.33,0h2.33l2.33-.21,0,.3h0l0-.3,1.16,0,.81,0,.37,0,1,0,1.29.07h.12l0,.31h0l.21.22c-.09.09-.17.08-.34.07l-2.1-.11-.42.42V23.4l-.88,0h-.81l-.34,0-.35,0-.79.07-1.23.11H29.47l-2.31-.1v-.3h0v.31h-.76l-1.28,0h-.3l-1.22-.12-.8-.08-.33,0-.34,0-.8.06-1.21.1h-.31v0l-1.93-.11-.12.12-.12-.12-1.15.05c-.65,0-1,0-1.1,0h0l-1,0-1.22-.05H10.7a2.27,2.27,0,0,1-.34.05l-.79.09-.94.1v0H8l-.93-.06-.79-.06a3.06,3.06,0,0,1-.35,0l-.34,0-.81,0-1.19,0v-.31L3.84,23l-.22.21v-.3c.17,0,2.19,0,2.32-.06l0,.31h.31a.3.3,0,0,0-.25-.3L8.21,23l.12-.11.11.11c.46,0,2-.21,2.17-.24l.06.3H11a.3.3,0,0,0-.28-.3c.16,0,2.15,0,2.29,0l0,.3h0l0-.3,1.33.05.71,0a1.42,1.42,0,0,1,.3,0h0l1,0c.78,0,1.13-.05,1.3,0v0l1.2.07.81,0,.34,0h0l2.31-.19,0,.3h0l0-.3,2.2.23ZM38.68,23Z"/><path class="cls-1" d="M24.08,19.69l.42.4h.17C26,20,26.52,20,26.77,20s.3,0,.69,0l1.75.06v.3h.32a.3.3,0,0,0-.26-.3c.14,0,1.78.09,2.25.11l.43-.42v.43h4.22v-.41l.42.39.94-.08c1.47-.13,1.47-.13,1.57,0l-.42.45.21-.22v.3l-1.32.12c-.59.05-.89.08-1.06.08a.82.82,0,0,1-.22,0H31.64l-1.25-.06-.82,0a3.46,3.46,0,0,1-.39,0c-.23,0-.7,0-1.74,0h-.51L26.5,21v-.42l-1.79.1-.33,0h-.62l-1.17,0-.61,0v-.31l0,.3-2.38-.13H17.14l-.91.05L15,20.71v0H14.7l-1.28-.05-.79,0-.34,0H12l-.69,0c-.54,0-1.27,0-1.42,0H7.46v-.31l0,.3-1.08-.09-.91-.07c-.55-.05-.7-.06-.7-.35a.3.3,0,0,1,.31-.3h0l1.3.11.76.07a2.32,2.32,0,0,1,.31,0H9.85l0,.31h.31a.31.31,0,0,0-.28-.31c.15,0,2.28,0,2.39,0v.3h0l0-.3,2.1.09v-.42l.42.42,1.37-.06.95,0h0l2.11,0h.29l1.24.06.82.05.36,0h.6l1.51,0Z"/><path class="cls-1" d="M21.29,16.75l.42.4.61,0,1.14-.06a4.65,4.65,0,0,1,.59,0h2.47v.31h0l0-.3,2.43.1h0l1.27.1.84.07.35,0,.13,0,1.47-.14.84-.09,0,.3h0l0-.3,1,.1,1,.11.34,0,.12,0,.32,0,.83-.1,1.3-.13h.31v.3a.31.31,0,0,1-.18.28.27.27,0,0,1-.12,0c-.2,0-2.32.25-2.44.27l0-.3-.06.29-1.44-.15-.7-.07-.27,0-.22,0-.6.06-1.6.17-.05-.3-.05.3L29,17.72l-1.28,0-.82,0-.36,0H24.37v.44L24,17.65l-1.6.08-.73,0-.17,0-2.29.06,0-.3h-.32a.31.31,0,0,0,.25.3l-1.4-.13-.73-.06-.29,0h0c-.14,0-2.33.18-2.43.2l0-.31,0,.31-.43,0-1.28,0h-.54l-.22,0-.35,0-.83,0-1.27.05H8.93v0l-2.16-.14h0l-.11,0a.31.31,0,0,1,.12-.59l1.28.08.83.05.35,0h0l2.45-.11,0,.31h0l0-.3,2,.06h.44l.35,0,.82-.06,1.3-.1H17v0l.76.07,1,.09.34,0h.37l.67,0,1.22,0Z"/><path class="cls-1" d="M26.69,13.92v.42l1.89.07V14l.41.4,1.42-.16c.64-.07.9-.09,1-.09h0l2.34.25.11-.11.12.11c.48,0,2.24-.16,2.35-.18l0,.31h0l0-.31,2.48.11v.3h0V15l-1.27,0-.85,0-.37,0-.35,0-.83.07-1,.07v0h-.61v0l-1-.1-.84-.1-.33,0-.92.1C29.63,15,29.21,15,29,15l-.1,0h0l-1.35,0-.79,0a2.68,2.68,0,0,1-.34,0h0l-1.28-.07-.85,0-.38,0-.33,0h-.78l-1.35,0h-.19l-.43,0-1.16.07-.45,0v.44L18.75,15l-1.08,0c-.79,0-1.14.05-1.31,0s-.6,0-1.58-.15L14,14.82l-.1.11-.11-.11-2.34.25-.05-.3h-.31a.3.3,0,0,0,.24.3c-.15,0-2.24-.29-2.44-.3l-.12,0a.32.32,0,0,1-.19-.28.31.31,0,0,1,.31-.3l1.32.15.84.11.35.05.34-.05.85-.09,1.3-.13h.31v0l.68.07,1.41.15.11-.11.12.12,1.16-.05c.67,0,1-.05,1.18,0l.24,0,.53,0,1.74-.1,0,.3h0v-.3l2.47,0v.31h0l0-.31,2.35.14Zm12,.51Z"/><path class="cls-1" d="M34.2,11v.44l.94,0,1.16,0h.1l.36,0,.86-.06,1.27-.08v.31l-.21.22.21-.22,0,.3c-.13,0-2.37.15-2.48.17l0-.31,0,.31-1.25,0-.85,0-.37,0a6.17,6.17,0,0,1-.67,0L32,12l-.62,0h0l-1.32,0H28.93c-.14,0-2.31.28-2.46.31l-.06-.3h-.32a.31.31,0,0,0,.25.3l-2.46-.28H21.42l0-.3V12h0l-1,0c-.84,0-1.24,0-1.45,0l-.14,0H16.3l-.35,0-2,.17-.05-.3h0l0,.3-1-.06-1.39-.08c-.16,0-.42,0-.42-.32a.3.3,0,0,1,.33-.3l1.52.09.68,0,.25,0,.21,0,.53-.05,1.28-.1.47,0,0,.31h0l0-.31c.16,0,2.27,0,2.43,0l0,.31h.32a.31.31,0,0,0-.29-.31l1.46,0c.55,0,.84,0,1,0H23.9l1.29.14.86.1.35,0,.35,0,.86-.11,1.29-.15h.3l2.19,0h0l.66,0,1.72.08Z"/><path class="cls-1" d="M26.82,8.44h2.39v.31h.31a.29.29,0,0,0-.25-.3l1.86.12.38,0h4.94l0,.3h0l.05-.3,1.25.09.79.06c.45,0,.64,0,.64.33a.31.31,0,0,1-.31.31h0l-1.12-.08-.87-.06a2.77,2.77,0,0,1-.39,0H33.54l-1.88,0,0-.3h0l0,.3-.51,0-1.22-.08-.48,0-.18,0h-2.4a1.25,1.25,0,0,1-.19,0l-.53.06-1.65.17L24.39,9h-.32a.32.32,0,0,0,.29.31c-.07,0-.68,0-1.16,0-.78,0-1.11,0-1.27,0h0l-2.41-.2h0l-.27,0-.69,0-1.4.08,0-.3h-.32a.3.3,0,0,0,.29.3l-2.39,0A.32.32,0,0,1,14.39,9c0-.3.21-.3.63-.31l.76,0,1.3,0h.15l.33,0,1-.05.7,0v0h.31l1.24.1.83.07.36,0h0l1.2,0,1.15,0,.18,0,.41,0L26,8.52l.72-.08,0,.3h0Zm11.77.62Z"/><path class="cls-1" d="M23.68,5.6l2.51.05h0V6h0v-.3h2.54l1.33.12.85.08.36,0,.19,0,.51,0,1.28,0,.54,0v.3h0v-.3h3.74l1.31,0a.31.31,0,0,1,.33.31c0,.3-.3.3-.42.31H37.57l-1.2,0,0-.31v.31H33.28l-2,.07,0-.3H31a.3.3,0,0,0,.24.3c-.14,0-1.87-.19-2.36-.23l-.42.4V6.24l-1.89,0h-.35l-1.32,0-.84,0h-.55l-1.67,0h-.39v.42L21,6.29l-2.38.16h0a.3.3,0,0,1-.31-.3c0-.29.17-.3.67-.34l.87-.06,1.31-.08h.67l1.84-.05,0,.31h0Z"/><path class="cls-1" d="M26.61,2.83H29c.18,0,.54,0,1.31,0,.5,0,1.07,0,1.13,0v.31h0l0-.31c.11,0,2.32,0,2.44,0v.3h0l0-.3,2,.15.36,0,.13,0h0l2.43-.13a.31.31,0,0,1,.34.3c0,.29-.18.3-.65.33l-.82,0-1.3.07h0l-.51,0-1.76-.14-.19,0H29l0-.3v.3H26.83v.4l-.42-.39-.8.06c-1.66.12-1.67.12-1.77,0l.42-.44-.21.22V3l1.53-.11c.49,0,.75-.06.91-.06Z"/><path class="cls-1" d="M37,0l.12.12L38.87,0a.31.31,0,0,1,.33.3c0,.3-.22.31-.58.32L38,.69l-.7,0v0H37l-1,0-.64,0c-.36,0-.58,0-.58-.32a.31.31,0,0,1,.33-.3l1.77.06Z"/><circle class="cls-2" cx="42.76" cy="40.07" r="23.4" transform="matrix(0.57, -0.82, 0.82, 0.57, -14.53, 52.39)"/></g></svg>