<svg xmlns="http://www.w3.org/2000/svg" viewBox="0 0 91.23 80.59"><defs><style>.cls-1,.cls-2,.cls-5{fill:none;stroke-miterlimit:10;}.cls-1{stroke:#545655;stroke-width:1.65px;}.cls-2,.cls-5{stroke:#d7d8d8;}.cls-2{stroke-width:1.71px;}.cls-3{fill:#545655;}.cls-4{fill:#9d9fa1;}.cls-5{stroke-width:3.54px;}</style></defs><title>digital</title><g id="Services"><path class="cls-1" d="M38.81,37.22a7.38,7.38,0,0,1,9-9l18.54,5,18.54,5a7.39,7.39,0,0,1,3.31,12.36L74.67,64,61.1,77.6a7.39,7.39,0,0,1-12.36-3.31l-5-18.54Z"/><circle class="cls-2" cx="31.83" cy="31.83" r="23.45"/><circle class="cls-3" cx="31.83" cy="31.83" r="16.28" transform="translate(-12.37 23.32) rotate(-34.1)"/><path class="cls-4" d="M32.06,40A6.49,6.49,0,0,1,40,32.06l16.27,4.36,16.28,4.36a6.5,6.5,0,0,1,2.91,10.86L63.55,63.55,51.64,75.47a6.5,6.5,0,0,1-10.86-2.91L36.42,56.28Z"/><path class="cls-5" d="M31.83,61.9a30.07,30.07,0,0,1,0-60.13"/></g></svg>