<svg xmlns="http://www.w3.org/2000/svg" viewBox="0 0 86.33 78"><defs><style>.cls-1{fill:#d7d8d8;}.cls-2{fill:#545655;}.cls-3{fill:#484c50;}.cls-4{fill:#737578;}.cls-5{fill:#9d9fa1;}.cls-6{fill:none;stroke:#9d9fa1;stroke-linecap:round;stroke-linejoin:round;stroke-width:1.3px;}</style></defs><title>digital</title><g id="Services"><circle class="cls-1" cx="50.35" cy="50.35" r="27.65"/><circle class="cls-2" cx="30.96" cy="30.96" r="9.57" transform="matrix(0.16, -0.99, 0.99, 0.16, -4.56, 56.56)"/><path class="cls-3" d="M50.35,50.35a29,29,0,0,1-41,0L0,41l.84-.85,9.37,9.37A27.78,27.78,0,0,0,49.5,10.21L40.13.84,41,0l9.37,9.37A29,29,0,0,1,50.35,50.35Z"/><path class="cls-4" d="M46.44,46.44a23.47,23.47,0,0,1-33.17,0L3.9,37.07l.85-.84,9.37,9.37A22.26,22.26,0,0,0,45.6,14.12L36.23,4.75l.84-.85,9.37,9.37A23.47,23.47,0,0,1,46.44,46.44Z"/><path class="cls-5" d="M42.54,42.54a18,18,0,0,1-25.37,0L7.8,33.17l.85-.84L18,41.7A16.74,16.74,0,0,0,41.7,18L32.33,8.65l.84-.85,9.37,9.37A18,18,0,0,1,42.54,42.54Z"/><line class="cls-6" x1="59.72" y1="58.91" x2="51.02" y2="58.73"/><line class="cls-6" x1="55.28" y1="63.17" x2="55.46" y2="54.47"/><line class="cls-6" x1="72.7" y1="58.91" x2="64" y2="58.73"/><line class="cls-6" x1="68.26" y1="63.17" x2="68.44" y2="54.47"/><line class="cls-6" x1="85.68" y1="58.91" x2="76.99" y2="58.73"/><line class="cls-6" x1="81.24" y1="63.17" x2="81.42" y2="54.47"/></g></svg>